<?xml version="1.0" standalone="no"?>
<!DOCTYPE svg PUBLIC "-//W3C//DTD SVG 20010904//EN"
 "http://www.w3.org/TR/2001/REC-SVG-20010904/DTD/svg10.dtd">
<svg version="1.0" xmlns="http://www.w3.org/2000/svg"
 width="1600.000000pt" height="1522.000000pt" viewBox="0 0 1600.000000 1522.000000"
 preserveAspectRatio="xMidYMid meet">

<g transform="translate(0.000000,1522.000000) scale(0.100000,-0.100000)"
fill="#000000" stroke="none">
<path d="M8005 12386 c-11 -7 -41 -16 -67 -20 -27 -4 -48 -12 -48 -17 0 -6 -8
-9 -17 -8 -27 4 -63 -11 -63 -26 0 -17 -66 -59 -80 -50 -5 3 -13 -7 -16 -22
-7 -25 -84 -115 -84 -97 0 4 -10 -3 -21 -15 -14 -15 -22 -37 -23 -62 0 -21 -6
-41 -14 -44 -7 -3 -11 -15 -8 -31 4 -20 0 -27 -14 -31 -11 -3 -20 -14 -20 -24
0 -10 -5 -21 -11 -25 -6 -3 -9 -15 -6 -25 3 -11 1 -19 -4 -19 -5 0 -9 -9 -9
-20 0 -11 -7 -20 -15 -20 -11 0 -14 -13 -14 -55 1 -37 -4 -59 -15 -70 -9 -9
-13 -22 -9 -28 9 -16 5 -70 -7 -77 -5 -3 -11 -30 -12 -60 -3 -45 -7 -56 -23
-60 -16 -5 -20 -16 -23 -55 -2 -28 -9 -53 -15 -57 -13 -8 -18 -34 -17 -85 0
-17 -7 -39 -16 -48 -15 -14 -15 -18 -3 -26 11 -7 11 -9 1 -9 -9 0 -11 -7 -7
-19 4 -14 0 -21 -15 -26 -11 -3 -20 -15 -20 -25 0 -10 -4 -22 -10 -25 -5 -3
-10 -26 -10 -51 0 -25 -6 -55 -14 -67 -8 -12 -13 -41 -11 -65 2 -33 -2 -45
-16 -53 -12 -6 -19 -21 -19 -39 0 -15 -4 -30 -10 -32 -5 -1 -10 -21 -11 -43
-2 -22 -10 -51 -20 -65 -11 -17 -15 -36 -11 -59 3 -25 0 -38 -13 -47 -13 -10
-16 -21 -10 -53 5 -32 3 -42 -8 -47 -9 -3 -19 -23 -22 -45 -4 -22 -14 -46 -22
-55 -9 -8 -13 -17 -10 -21 3 -3 -3 -14 -14 -26 -19 -21 -24 -46 -20 -99 2 -20
-2 -28 -13 -28 -9 0 -16 -8 -16 -19 0 -10 -7 -24 -16 -31 -30 -25 -4 -110 34
-110 8 0 12 -6 9 -15 -4 -8 -2 -17 3 -20 5 -3 7 -11 4 -18 -3 -8 12 -17 41
-26 25 -7 45 -19 45 -27 0 -8 9 -14 20 -14 11 0 20 4 20 10 0 5 11 12 25 16
18 4 25 13 25 30 0 13 9 28 19 34 15 7 19 20 18 50 -1 23 -8 44 -15 49 -10 6
-10 10 3 21 8 7 15 19 15 26 0 8 4 14 9 14 5 0 9 30 9 67 0 52 4 68 17 76 14
8 15 11 4 19 -11 7 -11 11 -1 15 6 2 12 13 12 23 0 10 6 20 14 23 8 3 12 18
11 39 -3 28 2 38 23 51 15 9 21 17 15 17 -18 0 -16 35 2 50 9 7 14 19 11 25
-2 7 1 18 7 24 8 8 8 11 -2 11 -11 0 -11 3 -1 15 7 8 19 15 26 15 16 0 18 37
4 75 -7 17 -7 24 0 20 18 -11 61 47 57 78 -2 15 1 27 6 27 5 0 7 11 5 24 -4
18 0 26 15 30 15 4 18 10 14 27 -4 13 -2 28 2 33 15 18 20 75 8 80 -8 3 -4 12
10 24 12 11 19 22 16 26 -3 3 0 12 7 21 7 8 10 21 7 29 -3 8 1 17 9 20 8 3 14
12 14 20 0 9 9 33 21 55 11 22 18 45 14 50 -3 6 0 21 7 33 6 13 13 41 15 63 2
22 10 45 18 51 8 6 15 19 15 28 0 9 8 16 18 16 14 0 15 2 2 10 -12 8 -12 12
-2 18 9 6 11 18 7 35 -5 20 -3 28 9 33 9 3 16 11 15 18 -3 27 2 37 25 45 21 9
22 13 16 55 -6 41 -5 46 12 46 10 0 18 7 18 15 0 8 5 15 10 15 6 0 21 11 33
25 19 21 28 23 69 18 31 -4 49 -11 53 -22 3 -9 21 -27 40 -40 20 -13 34 -29
32 -35 -4 -11 1 -24 36 -94 9 -19 17 -40 17 -47 0 -8 9 -16 19 -20 13 -4 22
-19 26 -45 4 -22 11 -40 16 -40 6 0 8 -4 5 -9 -3 -5 0 -11 8 -14 8 -3 22 -27
32 -54 9 -26 23 -55 31 -64 7 -8 13 -27 13 -41 0 -14 9 -33 20 -43 15 -14 17
-21 9 -31 -8 -10 -3 -23 20 -51 17 -21 31 -47 31 -59 0 -13 8 -24 19 -27 14
-3 18 -11 14 -26 -3 -14 0 -23 12 -27 12 -5 16 -16 14 -43 -2 -23 1 -35 8 -34
6 1 17 -11 25 -27 7 -17 17 -30 21 -30 5 0 5 -9 2 -21 -5 -15 -2 -22 13 -26
15 -3 23 -16 27 -43 4 -21 13 -41 21 -44 8 -3 14 -13 14 -22 0 -31 24 -84 37
-84 9 0 11 -8 7 -24 -4 -18 0 -28 15 -38 14 -9 19 -19 15 -35 -5 -19 -2 -23
15 -23 19 0 21 -4 16 -34 -5 -25 -3 -36 9 -43 8 -5 17 -17 19 -28 2 -11 8 -30
15 -42 7 -12 12 -28 12 -36 0 -8 7 -17 15 -21 8 -3 15 -16 15 -30 0 -14 4 -27
10 -31 5 -3 7 -12 4 -20 -3 -8 3 -24 14 -36 11 -11 18 -27 15 -35 -3 -8 1 -14
11 -14 9 0 15 -3 15 -7 -4 -22 3 -34 24 -42 24 -10 54 -82 41 -102 -7 -11 34
-55 43 -45 3 3 14 1 24 -5 17 -9 19 -5 20 33 1 24 1 49 0 56 -1 6 5 12 13 12
10 0 13 6 10 15 -4 8 -1 15 5 15 16 0 44 59 38 81 -3 10 0 17 7 16 6 -1 11 10
11 26 0 15 6 31 12 35 7 5 14 23 16 42 3 19 9 36 16 38 6 2 11 25 11 52 0 27
3 50 8 52 13 6 44 76 38 86 -3 6 3 13 14 17 11 3 20 13 20 20 0 8 9 19 20 25
25 14 26 40 1 40 -10 0 -24 7 -31 15 -9 10 -9 15 -1 15 6 0 11 19 11 46 0 40
-2 46 -19 41 -14 -3 -17 0 -14 14 4 13 0 19 -11 19 -9 0 -13 6 -10 15 3 8 -1
24 -10 37 -9 12 -16 30 -16 40 0 9 -7 24 -16 33 -9 8 -13 23 -10 31 4 10 -1
18 -14 21 -11 3 -19 13 -18 22 3 41 -3 61 -18 61 -13 0 -15 7 -10 30 5 29 -7
42 -17 18 -5 -13 -11 42 -8 74 2 12 -3 16 -13 12 -9 -3 -19 3 -27 18 -14 24
-15 29 -17 65 -1 12 -11 24 -21 28 -11 3 -18 12 -15 19 3 7 -2 18 -10 25 -8 7
-13 18 -10 26 3 7 1 16 -5 20 -6 3 -11 24 -11 46 0 29 -4 39 -16 39 -12 0 -15
6 -11 21 4 15 0 23 -14 26 -10 3 -19 14 -19 25 0 11 -7 26 -15 34 -8 9 -15 24
-15 33 0 10 -7 24 -15 31 -8 7 -15 21 -15 32 0 10 -7 21 -16 25 -11 4 -14 14
-10 34 3 18 1 29 -9 33 -9 3 -15 19 -15 41 0 19 -4 35 -8 35 -4 0 -14 17 -21
37 -8 20 -22 46 -32 57 -11 11 -19 31 -19 44 0 17 -4 23 -15 18 -12 -4 -15 3
-15 34 0 34 -3 40 -21 40 -14 0 -19 5 -16 14 3 8 -1 17 -9 20 -8 3 -14 17 -14
31 0 21 -4 25 -32 25 -30 0 -31 1 -13 14 19 14 19 15 -5 35 -14 11 -31 20 -37
21 -7 0 -13 6 -13 13 0 18 -37 47 -60 47 -11 0 -20 7 -20 15 0 8 -4 15 -9 15
-5 0 -11 9 -14 20 -4 14 -14 20 -34 20 -16 0 -34 5 -40 11 -6 6 -37 12 -69 12
-47 2 -59 6 -62 20 -4 21 -39 23 -67 3z m-400 -837 c8 -13 6 -15 -23 -24 -22
-6 -22 -5 -10 14 14 23 24 26 33 10z"/>
<path d="M10113 11203 c-3 -7 -15 -13 -28 -13 -12 0 -28 -7 -35 -15 -7 -9 -19
-14 -27 -11 -8 3 -16 -1 -19 -9 -3 -7 -18 -16 -33 -20 -29 -6 -91 -57 -91 -74
0 -5 -16 -19 -35 -31 -23 -14 -35 -29 -35 -43 0 -12 -13 -35 -30 -50 -17 -16
-27 -34 -23 -42 3 -8 0 -15 -6 -15 -12 0 -33 -42 -36 -70 -1 -8 -5 -25 -9 -37
-5 -16 -3 -23 5 -23 16 0 2 -15 -14 -15 -8 0 -11 -16 -9 -44 2 -31 -2 -47 -13
-55 -9 -6 -16 -16 -15 -21 5 -21 -1 -35 -21 -54 -16 -15 -20 -26 -15 -46 5
-18 1 -36 -9 -51 -9 -14 -15 -30 -14 -37 4 -29 -2 -47 -15 -47 -10 0 -13 -14
-12 -52 1 -48 -1 -53 -24 -58 -17 -4 -21 -8 -12 -14 18 -11 16 -101 -3 -116
-8 -7 -15 -19 -15 -26 0 -8 -9 -23 -21 -35 -17 -17 -20 -31 -17 -69 2 -40 0
-50 -14 -54 -12 -3 -18 -14 -18 -34 0 -17 -6 -32 -12 -34 -7 -3 -13 -20 -14
-39 -2 -44 -13 -69 -30 -69 -16 0 -19 -16 -4 -25 7 -4 7 -13 0 -26 -7 -13 -7
-19 0 -19 15 0 12 -27 -4 -33 -10 -4 -14 -24 -15 -64 0 -35 -5 -62 -14 -68 -7
-5 -17 -28 -23 -50 -6 -26 -15 -39 -24 -37 -10 3 -9 -2 4 -17 11 -12 15 -21 9
-21 -5 0 -16 -25 -23 -55 -7 -30 -19 -55 -25 -55 -8 0 -13 -19 -14 -52 0 -28
-6 -55 -12 -58 -26 -17 -70 -125 -70 -176 -1 -44 -5 -53 -24 -62 -18 -8 -22
-17 -19 -47 2 -28 -1 -35 -12 -31 -15 6 -16 3 -18 -53 0 -19 -7 -36 -13 -38
-7 -3 -13 -16 -13 -29 0 -14 -6 -24 -14 -24 -9 0 -12 -8 -9 -24 3 -13 0 -27
-6 -30 -6 -4 -11 -16 -11 -27 0 -10 -5 -19 -11 -19 -8 0 -10 -12 -6 -34 4 -25
1 -36 -9 -40 -8 -3 -14 -16 -14 -30 0 -33 -10 -57 -21 -50 -5 3 -9 -11 -9 -31
0 -22 -8 -47 -20 -62 -13 -16 -18 -34 -14 -48 3 -13 1 -26 -5 -29 -6 -4 -11
-18 -11 -32 0 -13 -4 -24 -8 -24 -16 0 -29 -44 -25 -77 4 -25 2 -33 -10 -33
-39 0 -19 -112 23 -133 26 -12 165 -16 176 -4 4 4 8 33 9 66 2 38 8 66 18 75
8 9 13 24 10 34 -2 10 3 24 11 31 9 8 16 26 16 42 0 16 5 29 13 29 8 0 7 4 -3
10 -12 8 -9 15 19 41 27 25 31 33 20 40 -12 8 -11 12 4 24 12 8 19 27 20 49 1
26 7 38 24 47 16 9 20 16 13 23 -17 17 -11 36 13 37 12 0 16 3 10 6 -18 7 -16
42 2 49 12 5 13 10 4 20 -9 11 -8 15 5 20 12 5 16 18 14 51 -1 33 3 48 15 55
12 6 15 16 11 33 -4 18 -1 27 10 31 10 4 16 18 16 40 0 22 6 37 16 41 8 3 13
12 10 19 -3 7 -1 16 4 19 5 3 7 12 4 19 -3 7 2 16 11 20 11 4 15 12 11 23 -4
9 -1 20 6 25 11 6 10 10 0 17 -11 6 -10 11 3 25 9 9 23 16 32 16 11 0 9 6 -8
20 l-24 20 23 6 c17 5 22 12 19 25 -3 11 -1 21 3 24 5 3 6 18 4 34 -4 22 1 33
16 44 15 11 18 16 8 20 -20 7 -2 20 27 20 25 0 35 20 15 32 -15 9 -12 29 9 52
12 12 17 29 14 45 -3 15 2 29 11 37 9 8 16 29 16 51 0 21 6 43 14 49 18 15 27
49 15 57 -14 8 -11 21 9 40 17 18 19 22 21 62 1 15 9 26 21 29 24 6 26 20 3
25 -14 3 -13 7 10 31 14 16 23 35 20 43 -3 8 2 25 11 38 10 17 14 41 12 77 -2
43 0 52 15 56 14 4 18 14 17 40 -1 21 5 41 13 47 8 6 14 21 13 34 -1 12 4 22
12 22 17 0 19 20 2 20 -7 1 -1 8 15 16 24 13 27 20 23 52 -5 46 8 82 30 82 13
0 15 6 10 31 -5 25 -2 32 14 36 14 4 18 11 14 32 -5 29 2 42 31 59 11 6 14 12
8 12 -21 0 -14 29 13 57 15 15 27 37 27 50 0 13 6 23 13 23 8 0 14 7 14 16 0
21 68 84 85 78 7 -3 16 -1 20 5 4 8 13 7 28 -1 12 -7 24 -12 27 -13 3 0 15
-10 28 -22 12 -13 27 -23 32 -23 7 0 7 -6 0 -19 -8 -16 -6 -23 12 -35 12 -9
23 -29 25 -48 2 -17 10 -42 19 -55 8 -13 12 -28 9 -33 -3 -6 -1 -10 5 -10 14
0 49 -40 50 -56 0 -6 7 -17 15 -24 8 -7 15 -24 15 -38 0 -14 8 -34 17 -44 14
-16 15 -22 4 -40 -14 -22 -15 -21 17 -37 12 -7 20 -16 17 -20 -3 -5 2 -22 10
-37 8 -16 15 -39 15 -51 0 -12 5 -25 10 -28 6 -3 7 -17 4 -29 -4 -17 0 -28 15
-39 13 -8 22 -27 24 -46 1 -17 8 -31 15 -31 6 0 13 -7 13 -15 1 -8 2 -19 3
-24 0 -5 11 -21 24 -36 14 -16 21 -33 17 -45 -4 -11 3 -29 19 -47 43 -48 44
-50 37 -62 -12 -18 -1 -61 15 -61 10 0 14 -13 14 -44 0 -26 6 -48 15 -56 8 -7
15 -21 15 -31 0 -10 5 -21 10 -24 6 -3 10 -17 10 -30 0 -12 7 -25 15 -29 18
-7 20 -36 3 -36 -7 -1 -1 -7 13 -15 20 -11 25 -20 22 -39 -4 -19 1 -28 23 -40
23 -12 25 -15 9 -16 -15 0 -16 -3 -7 -12 7 -7 12 -22 12 -35 0 -15 6 -23 17
-23 13 0 14 -3 6 -11 -15 -15 -5 -39 14 -39 11 0 14 -9 11 -35 -3 -23 0 -35 8
-35 14 0 26 -28 18 -42 -3 -5 3 -12 15 -15 12 -3 21 -12 21 -19 0 -8 4 -14 10
-14 5 0 7 -6 4 -14 -3 -8 -1 -17 5 -21 6 -3 11 -19 11 -34 0 -16 10 -41 22
-56 19 -25 20 -29 5 -39 -17 -13 -11 -29 14 -38 18 -7 49 -61 49 -85 0 -8 7
-21 15 -30 12 -11 13 -18 4 -29 -14 -17 -3 -34 22 -34 14 0 18 -4 12 -12 -10
-17 -4 -57 13 -91 8 -15 12 -31 10 -36 -3 -5 1 -14 9 -21 8 -7 15 -18 15 -24
0 -6 -5 -4 -10 4 -14 21 -12 6 2 -27 7 -15 21 -34 31 -41 12 -9 16 -21 12 -34
-4 -12 0 -27 10 -38 9 -10 14 -23 11 -28 -3 -4 2 -21 10 -36 7 -16 14 -41 14
-56 0 -19 6 -31 19 -35 10 -3 29 -14 41 -25 27 -24 68 -26 76 -5 4 8 10 15 16
15 13 0 38 26 38 39 0 6 8 16 18 22 13 8 16 21 14 50 -3 28 0 39 10 39 13 0
29 43 43 118 4 20 13 32 23 32 15 1 15 2 -1 14 -16 13 -16 15 8 30 20 13 24
20 15 31 -8 10 -5 14 15 19 27 7 35 40 13 49 -8 3 -5 6 5 6 13 1 17 6 12 20
-4 13 0 20 15 24 14 3 20 13 20 31 0 14 5 26 11 26 7 0 9 11 6 30 -5 22 -3 30
8 30 8 0 21 16 29 35 8 19 20 35 26 35 6 0 8 10 4 25 -4 16 1 34 16 55 12 16
18 35 14 41 -4 7 4 20 17 30 13 10 18 19 12 19 -8 0 -11 9 -9 23 3 12 5 26 5
30 1 5 5 5 11 2 5 -3 12 6 16 20 4 16 13 25 25 25 10 0 19 5 19 10 0 6 -4 10
-10 10 -5 0 -10 7 -10 15 0 8 5 15 12 15 9 0 9 3 1 11 -9 9 -7 17 7 31 10 11
16 26 13 34 -3 8 1 14 10 14 8 0 17 7 21 15 3 8 1 15 -4 15 -6 0 -10 5 -10 10
0 6 10 10 21 10 18 0 20 5 16 26 -3 15 2 42 9 60 8 19 12 34 8 34 -3 0 4 13
15 29 12 16 21 34 21 40 0 6 6 11 14 11 8 0 16 4 18 9 2 5 24 12 49 16 35 5
49 3 62 -9 8 -9 22 -16 29 -16 7 0 19 -9 26 -20 7 -11 19 -20 27 -20 15 0 22
-20 27 -75 2 -17 8 -29 15 -28 7 2 10 -4 6 -12 -3 -9 2 -23 10 -33 8 -9 19
-29 22 -44 4 -16 11 -25 16 -22 15 9 28 -39 16 -55 -9 -10 -7 -16 6 -26 9 -7
17 -19 17 -28 0 -9 9 -19 20 -22 13 -4 20 -15 20 -30 0 -32 30 -108 47 -118 7
-4 13 -15 13 -22 0 -8 5 -15 10 -15 6 0 10 -16 10 -35 0 -23 6 -38 15 -41 10
-4 15 -18 13 -40 -2 -27 4 -40 30 -64 33 -30 40 -58 21 -77 -8 -8 -6 -14 9
-22 10 -6 22 -7 26 -4 3 3 6 -5 6 -20 0 -14 -4 -29 -10 -32 -17 -10 -11 -25
10 -25 14 0 20 -7 20 -24 0 -13 7 -29 15 -36 9 -7 14 -18 12 -24 -3 -6 2 -18
10 -28 8 -9 16 -29 18 -44 1 -15 9 -31 17 -35 9 -5 14 -18 11 -32 -3 -14 3
-29 16 -41 12 -11 21 -15 21 -10 1 5 7 -9 15 -31 8 -22 12 -48 9 -57 -3 -11 2
-19 16 -23 14 -4 20 -14 18 -27 -3 -18 3 -24 41 -45 2 -1 -4 -9 -13 -18 -25
-25 -22 -34 35 -149 14 -28 16 -42 9 -51 -8 -10 -6 -15 9 -20 12 -3 21 -17 23
-33 3 -23 8 -27 38 -29 37 -3 87 28 75 47 -4 6 9 10 33 10 22 0 45 6 51 13 6
8 29 14 51 15 23 1 50 6 60 12 10 5 28 10 40 10 12 0 27 6 34 13 9 8 48 12
129 12 108 0 116 1 121 20 8 30 7 35 -7 35 -8 0 -13 13 -13 34 0 33 -30 107
-46 114 -5 2 -8 12 -8 21 0 10 -9 26 -20 36 -11 10 -20 29 -20 42 0 13 -11 39
-24 56 -13 18 -27 53 -30 80 -4 26 -11 47 -16 47 -5 0 -10 12 -12 28 -2 16 -8
26 -17 24 -10 -2 -12 4 -7 21 4 19 1 26 -14 30 -13 3 -18 11 -14 20 3 8 -2 22
-11 31 -9 9 -14 23 -11 31 3 8 1 17 -5 21 -6 4 -6 11 2 20 9 11 8 14 -9 14
-21 0 -32 24 -32 72 0 16 -10 34 -25 46 -14 11 -25 24 -24 29 5 29 -5 57 -28
81 -15 15 -26 35 -25 45 2 10 -4 30 -13 43 -13 20 -14 28 -4 40 6 8 10 16 8
17 -2 2 -16 11 -31 20 -18 11 -25 22 -21 35 2 11 -2 25 -9 33 -23 23 -48 80
-48 111 0 17 -6 31 -15 35 -24 8 -56 78 -43 91 13 13 0 35 -18 28 -8 -3 -14 1
-14 9 0 8 5 15 11 15 8 0 7 6 -2 16 -7 9 -12 29 -11 45 3 21 -1 29 -12 29 -10
0 -16 9 -16 25 0 16 -6 25 -16 25 -11 0 -14 6 -9 20 4 14 -2 28 -21 47 -22 22
-28 37 -27 66 1 25 -4 40 -13 44 -9 3 -13 11 -10 19 3 7 -7 18 -24 26 -18 8
-25 15 -17 20 7 4 2 14 -16 28 -15 12 -27 27 -27 33 0 15 -57 77 -71 77 -5 0
-9 9 -9 20 0 13 -10 24 -25 30 -14 5 -24 13 -23 17 4 10 -39 53 -45 46 -3 -2
-10 5 -17 16 -6 12 -19 21 -30 21 -10 0 -20 5 -22 12 -3 8 -51 12 -171 13
-150 0 -168 -1 -182 -18 -9 -10 -22 -16 -30 -13 -7 2 -16 -1 -18 -8 -3 -8 -21
-16 -41 -20 -20 -4 -35 -10 -34 -14 4 -11 -43 -62 -82 -88 -19 -13 -29 -24
-22 -24 6 0 12 -7 12 -15 0 -9 -6 -12 -15 -9 -10 4 -20 -5 -30 -30 -8 -19 -15
-42 -15 -51 0 -8 -9 -25 -20 -37 -50 -57 -51 -58 -40 -78 13 -25 13 -30 -4
-30 -13 0 -30 -42 -31 -76 0 -6 -5 -18 -12 -25 -6 -8 -10 -30 -8 -49 2 -25 -3
-39 -16 -48 -11 -7 -19 -20 -19 -28 0 -8 -11 -20 -25 -26 -27 -12 -32 -27 -15
-44 12 -12 3 -44 -11 -44 -5 0 -9 -11 -9 -25 0 -14 -7 -28 -15 -31 -9 -4 -15
-19 -15 -38 0 -18 -6 -38 -12 -44 -7 -7 -13 -16 -13 -20 -2 -22 -18 -53 -27
-50 -5 2 -8 6 -6 8 2 3 -7 18 -19 34 -13 16 -20 32 -18 36 3 5 -4 11 -15 15
-21 7 -27 30 -10 40 16 10 12 23 -9 30 -12 3 -21 18 -24 40 -3 20 -13 42 -22
51 -9 9 -14 23 -11 30 3 7 -2 17 -11 22 -8 5 -13 15 -11 23 6 17 -18 69 -32
69 -5 0 -7 6 -4 14 3 8 -3 16 -15 19 -13 3 -21 13 -21 26 0 12 -7 24 -15 27
-8 4 -15 19 -15 34 0 16 -4 31 -9 34 -4 3 -11 23 -15 45 -3 21 -13 41 -22 45
-8 3 -14 14 -12 24 1 9 -8 32 -21 50 -13 19 -24 47 -26 62 -1 16 -7 35 -12 42
-6 7 -13 25 -17 41 -3 15 -11 27 -16 27 -6 0 -10 16 -10 36 0 26 -4 35 -13 31
-10 -4 -14 5 -15 31 -1 21 -9 42 -18 49 -9 6 -13 17 -9 22 3 6 -1 14 -9 17 -9
3 -16 10 -16 15 0 15 -53 129 -60 129 -9 0 -6 32 4 49 10 15 -1 28 -29 33 -14
3 -19 11 -18 26 2 14 -3 22 -12 22 -11 0 -15 11 -15 40 0 28 -4 40 -14 40 -9
0 -12 7 -9 21 4 14 -1 27 -14 38 -30 24 -55 103 -47 145 5 29 3 36 -10 36 -22
0 -30 24 -17 49 9 16 8 21 -9 26 -14 4 -19 12 -16 23 4 11 -7 30 -30 51 -27
27 -34 40 -29 59 4 15 2 21 -5 17 -15 -9 -50 4 -50 19 0 7 -12 19 -27 26 -37
19 -74 51 -68 60 5 8 -55 40 -75 40 -6 0 -8 5 -5 10 3 6 -2 10 -12 10 -11 0
-25 6 -31 12 -18 18 -263 18 -269 1z m3037 -2453 c0 -5 -7 -7 -15 -4 -8 4 -15
8 -15 10 0 2 7 4 15 4 8 0 15 -4 15 -10z"/>
<path d="M6040 11200 c0 -4 -19 -10 -41 -13 -23 -3 -45 -11 -49 -17 -4 -6 -11
-10 -16 -9 -12 3 -74 -34 -74 -43 0 -5 -6 -8 -14 -8 -20 0 -66 -40 -76 -66 -5
-13 -15 -24 -22 -24 -14 0 -38 -45 -38 -71 0 -10 -9 -21 -21 -24 -11 -4 -27
-22 -36 -40 -9 -18 -25 -36 -35 -39 -14 -3 -18 -10 -13 -24 3 -11 1 -23 -5
-27 -5 -3 -10 -13 -10 -22 0 -9 -6 -21 -14 -27 -16 -13 -30 -76 -16 -76 13 0
0 -31 -21 -53 -14 -13 -17 -26 -12 -48 4 -24 2 -34 -10 -41 -10 -5 -17 -16
-17 -24 0 -8 -11 -32 -24 -53 -17 -27 -24 -51 -24 -85 1 -34 -4 -52 -20 -69
-26 -27 -28 -47 -7 -47 23 0 18 -15 -19 -54 -18 -20 -29 -36 -25 -36 14 0 10
-17 -7 -34 -8 -9 -12 -21 -9 -27 4 -5 -1 -19 -10 -29 -11 -13 -16 -29 -12 -47
6 -33 -1 -53 -18 -53 -16 0 -26 -25 -19 -44 3 -9 -5 -16 -23 -21 -15 -4 -23
-9 -16 -12 7 -2 10 -10 8 -16 -3 -7 -6 -28 -8 -47 -4 -36 -12 -56 -54 -147
-13 -29 -22 -57 -19 -62 4 -5 2 -12 -4 -16 -6 -4 -8 -11 -4 -16 3 -6 -1 -18
-10 -28 -9 -10 -14 -25 -10 -35 4 -10 1 -16 -9 -16 -22 0 -31 -18 -18 -34 14
-16 5 -43 -19 -56 -15 -8 -16 -17 -8 -67 7 -45 15 -63 40 -85 17 -15 36 -28
40 -28 5 0 7 -4 3 -9 -3 -6 5 -15 17 -22 12 -7 29 -18 36 -26 7 -7 21 -13 30
-14 9 0 29 -2 45 -4 24 -3 27 0 27 24 0 15 7 36 15 47 8 10 15 28 15 40 0 11
5 25 11 31 6 6 12 36 13 67 1 51 6 61 29 57 4 0 7 3 7 9 0 5 -6 10 -12 10 -7
0 -4 6 7 12 30 16 31 18 15 28 -8 6 -10 10 -4 10 7 0 10 14 7 39 -4 32 -1 41
15 50 14 7 18 17 15 31 -4 14 0 20 12 20 15 0 17 8 13 60 -4 51 -2 61 14 66
11 3 18 15 18 30 0 14 6 24 14 24 18 0 20 81 3 92 -7 4 0 11 16 17 17 7 25 16
21 24 -3 8 2 22 11 31 9 9 14 23 11 31 -3 8 -1 15 4 15 6 0 5 10 -2 24 -14 33
-3 60 22 53 11 -3 20 -1 20 4 0 5 -5 9 -12 9 -6 0 1 13 16 29 20 21 28 39 28
64 0 21 6 38 14 41 8 3 14 20 14 41 0 19 4 35 9 35 5 0 13 14 16 32 4 17 13
37 20 44 7 7 10 24 8 37 -3 14 2 30 11 40 9 8 16 30 16 47 0 33 50 114 77 124
8 3 12 10 9 15 -12 19 40 38 99 37 l60 -1 3 -32 c2 -23 11 -37 31 -49 24 -14
28 -23 30 -68 1 -28 6 -55 11 -60 6 -6 10 -7 10 -2 0 4 6 1 13 -6 8 -7 14 -28
15 -46 0 -18 8 -39 16 -48 15 -15 20 -34 17 -61 -1 -7 5 -13 14 -13 9 0 14 -4
10 -9 -5 -9 3 -35 27 -88 6 -11 8 -26 4 -31 -8 -13 36 -62 55 -62 10 -1 8 -5
-5 -15 -12 -9 -15 -15 -7 -15 9 0 11 -8 7 -25 -5 -20 -3 -25 14 -25 16 0 20
-7 20 -35 0 -28 4 -35 20 -35 16 0 20 -7 20 -30 0 -20 5 -30 15 -30 8 0 15 -9
15 -19 0 -11 5 -23 10 -26 6 -3 10 -21 10 -40 0 -20 6 -35 15 -39 9 -3 15 -18
15 -40 0 -19 4 -37 9 -40 5 -3 12 -18 16 -33 3 -15 11 -30 16 -34 5 -3 10 -24
12 -47 1 -23 9 -50 18 -60 8 -9 21 -32 28 -49 7 -18 17 -33 22 -33 5 0 14 -11
19 -25 5 -14 14 -25 20 -25 7 0 9 -8 5 -20 -4 -13 -1 -22 9 -26 9 -3 16 -12
16 -20 0 -9 11 -14 30 -14 17 0 30 -4 30 -10 0 -5 12 -13 28 -16 15 -4 44 -25
65 -46 43 -45 75 -59 135 -64 23 -2 49 -9 56 -17 9 -9 41 -14 92 -15 42 -2 82
-6 88 -11 14 -12 356 -12 377 0 9 5 44 11 77 13 33 2 70 10 81 16 12 6 26 8
31 5 30 -18 73 36 73 91 0 13 3 24 8 24 5 0 9 7 9 16 0 8 -4 12 -10 9 -6 -4
-10 11 -10 38 0 28 5 47 13 50 11 4 14 35 15 128 0 76 5 124 11 129 6 3 13 39
15 78 2 56 0 72 -10 72 -8 0 -14 7 -14 15 0 9 -9 15 -24 15 -14 0 -31 -7 -40
-15 -8 -8 -26 -15 -41 -15 -14 0 -28 -7 -31 -15 -4 -9 -19 -15 -38 -15 -38 0
-106 -18 -124 -33 -8 -6 -41 -13 -74 -14 -34 -2 -70 -10 -82 -18 -27 -20 -85
-19 -92 0 -4 10 -21 15 -55 15 -27 0 -51 5 -56 13 -9 14 -69 39 -98 40 -11 1
-27 10 -35 21 -14 20 -16 24 -19 46 0 6 -8 10 -16 10 -8 0 -15 9 -15 19 0 10
-7 22 -16 25 -11 4 -15 14 -12 31 3 16 -1 30 -14 42 -10 9 -16 23 -13 31 3 8
-1 22 -8 31 -14 16 -44 129 -39 145 2 5 -6 15 -18 23 -11 8 -20 23 -20 34 0
11 -9 23 -22 28 -14 5 -17 10 -10 15 17 10 15 36 -3 36 -12 0 -15 10 -14 45 2
30 -3 50 -14 63 -9 10 -17 24 -17 30 0 7 -5 11 -12 9 -7 -1 -12 3 -13 8 0 6
-4 16 -9 24 -5 8 -12 28 -16 45 -4 22 -12 31 -25 31 -12 0 -19 6 -17 16 1 8
-9 26 -22 38 -20 19 -23 28 -15 48 13 34 12 40 -11 46 -13 3 -18 10 -14 21 10
27 -5 82 -31 110 -14 15 -25 36 -25 47 0 10 -5 19 -11 19 -5 0 -7 5 -4 10 6 9
-8 14 -27 11 -5 0 -8 5 -8 12 0 7 -9 18 -20 25 -12 7 -18 17 -15 22 3 6 1 10
-5 10 -6 0 -15 10 -20 23 -5 12 -9 16 -9 10 -1 -7 -6 -13 -12 -13 -7 0 -9 9
-5 24 9 37 -27 76 -71 76 -25 0 -43 7 -59 25 -16 18 -34 25 -59 25 -19 0 -35
4 -35 8 0 5 -36 9 -80 9 -44 0 -80 -3 -80 -7z"/>
<path d="M6190 10100 c0 -5 7 -10 15 -10 8 0 15 5 15 10 0 6 -7 10 -15 10 -8
0 -15 -4 -15 -10z"/>
<path d="M3947 10043 c-13 -13 -32 -17 -81 -15 -67 3 -121 -11 -111 -28 3 -6
-4 -10 -18 -10 -30 0 -40 -10 -27 -25 8 -9 4 -14 -14 -19 -13 -3 -26 -15 -29
-27 -3 -12 -11 -19 -18 -17 -7 2 -29 -14 -48 -36 -20 -23 -41 -44 -48 -49 -7
-4 -10 -14 -7 -22 4 -9 -1 -18 -12 -21 -35 -13 -54 -37 -54 -69 0 -20 -6 -35
-15 -39 -8 -3 -15 -13 -15 -22 0 -10 -7 -25 -14 -33 -8 -9 -17 -33 -19 -54 -2
-21 -9 -43 -15 -49 -7 -7 -12 -18 -12 -24 0 -7 -9 -29 -21 -48 -11 -19 -17
-40 -14 -47 4 -6 2 -15 -5 -19 -8 -5 -13 -25 -12 -51 1 -25 -3 -46 -10 -50 -7
-4 -13 -19 -13 -33 -1 -13 -7 -31 -14 -40 -7 -8 -13 -25 -13 -38 -1 -13 -9
-32 -19 -43 -10 -11 -21 -33 -25 -50 -4 -16 -12 -33 -18 -37 -8 -5 -7 -13 2
-28 16 -27 15 -47 -3 -54 -9 -3 -15 -18 -15 -35 0 -22 -8 -35 -25 -47 -18 -12
-25 -24 -23 -45 1 -15 -6 -37 -16 -47 -13 -15 -16 -29 -11 -55 6 -31 4 -35
-19 -41 -28 -7 -36 -26 -11 -26 11 0 13 -8 9 -32 -8 -45 -31 -95 -47 -101 -7
-3 -12 -19 -11 -41 1 -23 -3 -39 -13 -44 -8 -5 -15 -25 -16 -48 -1 -21 -7 -45
-14 -52 -7 -7 -13 -27 -13 -43 0 -20 -5 -29 -16 -29 -10 0 -14 -5 -10 -15 5
-15 -10 -53 -26 -65 -3 -3 -9 -23 -11 -45 -3 -22 -9 -53 -15 -70 -5 -16 -7
-35 -5 -42 7 -21 -17 -93 -32 -93 -10 0 -13 -11 -10 -39 3 -32 0 -40 -20 -49
-23 -11 -40 -68 -23 -78 5 -3 7 -13 6 -22 -3 -14 8 -17 61 -20 36 -1 66 -4 67
-5 1 -1 5 -12 8 -24 6 -19 2 -22 -41 -31 -31 -7 -54 -7 -65 -1 -10 6 -22 8
-26 5 -4 -2 -34 -5 -67 -7 -33 -2 -75 -12 -93 -21 -18 -10 -38 -16 -44 -12 -5
3 -22 1 -36 -6 -63 -29 -89 -39 -115 -45 -16 -3 -38 -16 -50 -29 -12 -12 -30
-26 -41 -29 -14 -6 -17 -13 -12 -35 4 -17 3 -22 -2 -14 -14 21 -48 -36 -34
-58 6 -10 7 -21 2 -26 -6 -6 -3 -29 5 -59 15 -47 12 -85 -5 -85 -5 0 -7 -10
-6 -22 5 -35 24 -78 36 -78 5 0 10 -4 10 -10 0 -5 -7 -10 -15 -10 -8 0 -15 -7
-15 -15 0 -8 5 -15 10 -15 15 0 12 -42 -5 -84 -14 -33 -14 -37 0 -43 9 -3 14
-12 11 -19 -3 -7 -1 -16 5 -20 5 -3 7 -14 4 -25 -4 -11 -2 -19 6 -19 6 0 17
-7 24 -16 9 -14 16 -14 33 -5 12 6 22 16 22 21 0 5 15 12 34 16 44 8 77 41 56
55 -11 7 -6 8 14 3 24 -6 28 -4 23 9 -4 12 2 17 26 19 19 2 35 11 42 23 5 11
18 20 28 21 9 0 33 1 52 2 27 2 35 6 35 21 0 18 9 20 93 21 149 3 191 0 200
-16 13 -23 78 -46 131 -46 31 0 44 -3 35 -9 -11 -7 -10 -9 4 -9 9 0 17 -5 17
-10 0 -6 3 -9 8 -9 21 4 115 -3 105 -8 -26 -10 -12 -20 45 -33 64 -14 100 -29
70 -30 -36 0 -17 -16 20 -16 20 -1 57 -4 82 -8 25 -4 61 -8 80 -10 19 -2 64
-14 100 -26 59 -20 84 -22 257 -22 158 0 196 3 208 16 8 8 39 20 68 26 29 6
65 17 81 25 15 8 36 15 46 15 10 0 23 7 30 15 7 8 23 15 36 15 16 0 28 8 36
25 6 14 17 24 24 21 16 -6 19 68 13 290 -3 101 3 118 34 108 17 -5 19 -4 10 6
-6 7 -9 19 -6 27 4 10 0 14 -13 11 -29 -5 -32 55 -5 79 12 10 21 23 21 30 0
17 10 16 35 -3 17 -13 18 -16 5 -24 -12 -8 -13 -10 -1 -10 8 0 11 -3 8 -7 -4
-3 -2 -11 3 -18 8 -10 13 -30 24 -103 1 -8 8 -17 15 -22 8 -4 11 -12 8 -17 -4
-6 3 -20 14 -32 11 -12 18 -25 14 -30 -9 -15 13 -61 30 -61 11 0 13 -5 5 -26
-14 -36 -12 -47 5 -40 8 3 16 0 16 -7 1 -7 3 -28 5 -47 1 -19 7 -36 13 -38 6
-2 11 -14 11 -27 0 -13 5 -27 11 -30 6 -4 8 -14 5 -22 -8 -20 11 -43 36 -43
18 0 18 -1 4 -16 -21 -21 -20 -28 10 -61 18 -19 23 -34 19 -50 -3 -15 -1 -25
8 -28 7 -3 13 -23 14 -47 1 -26 8 -45 18 -50 8 -5 15 -20 15 -33 0 -13 5 -27
10 -30 6 -4 7 -11 4 -17 -5 -8 -1 -9 10 -5 13 5 17 2 15 -11 -2 -9 3 -27 9
-40 7 -12 11 -26 8 -31 -3 -5 4 -17 15 -27 11 -10 18 -23 15 -30 -5 -13 48
-37 59 -26 3 3 128 7 278 8 395 3 354 -1 359 35 4 25 -1 38 -24 61 -32 33 -34
38 -12 38 14 0 14 3 4 15 -7 8 -9 15 -4 15 5 0 3 4 -4 9 -7 4 -14 20 -16 35
-2 16 -7 31 -13 34 -5 4 -13 19 -17 35 -3 15 -13 27 -21 27 -13 0 -20 19 -16
44 1 5 -2 12 -6 15 -15 10 -34 62 -27 73 4 6 0 14 -7 19 -8 4 -14 17 -15 28
-1 23 -33 93 -46 102 -5 3 -11 19 -12 35 -2 16 -8 28 -14 27 -5 -1 -12 11 -14
27 -2 16 -1 27 4 24 17 -11 7 17 -11 33 -11 9 -18 20 -15 25 3 5 -1 20 -10 33
-9 13 -16 33 -16 44 0 11 -7 24 -15 28 -8 5 -15 26 -17 47 -1 21 -8 40 -15 43
-7 3 -13 18 -13 33 0 16 -5 30 -11 32 -6 2 -11 20 -12 41 -1 23 -6 37 -14 37
-7 0 -13 7 -13 15 0 8 -9 15 -20 15 -15 0 -20 7 -20 25 0 14 -7 37 -16 50 -9
13 -16 45 -16 70 -1 40 -3 45 -21 39 -16 -5 -18 -3 -12 16 5 15 2 25 -6 31 -7
4 -14 22 -14 39 0 17 -6 35 -13 39 -7 4 -15 21 -18 37 -3 16 -9 31 -15 32 -5
2 -9 19 -9 37 0 19 -4 37 -10 40 -5 3 -10 14 -10 24 0 10 -9 26 -20 36 -13 11
-18 25 -14 37 3 12 0 18 -10 18 -10 0 -17 15 -22 45 -3 25 -10 48 -15 51 -5 3
-9 13 -9 24 0 10 -6 20 -14 23 -7 3 -13 16 -12 29 1 13 -4 37 -12 53 -8 17
-19 38 -23 47 -5 10 -4 18 4 21 7 2 3 9 -11 16 -12 6 -22 18 -22 27 0 8 -7 17
-15 20 -8 4 -15 15 -15 27 0 11 -7 29 -16 39 -13 13 -14 21 -6 31 8 10 5 20
-14 42 -19 23 -23 35 -18 62 5 27 3 33 -11 33 -14 0 -16 7 -13 31 4 22 0 33
-14 40 -11 6 -18 18 -17 27 4 28 -11 62 -28 62 -11 0 -13 3 -5 13 7 9 5 24 -8
52 -11 22 -19 45 -20 52 0 6 -5 13 -11 15 -6 2 -11 16 -11 31 0 16 -6 27 -14
27 -16 0 -19 36 -4 45 12 8 -10 45 -27 45 -17 0 -46 47 -38 60 4 6 -1 22 -10
36 -9 14 -14 32 -11 40 3 9 -7 27 -24 44 -25 25 -28 32 -20 59 7 26 5 33 -12
42 -15 8 -18 17 -14 35 4 13 3 24 -2 24 -5 0 -14 16 -22 35 -8 19 -19 35 -26
35 -8 0 -12 11 -11 27 1 19 -3 28 -13 28 -10 0 -14 8 -12 26 2 17 -3 29 -12
32 -10 4 -16 18 -16 36 0 16 -6 31 -15 35 -9 3 -12 12 -9 21 5 11 0 18 -15 22
-11 3 -21 12 -21 20 0 19 -51 65 -66 59 -8 -3 -11 1 -7 9 3 8 -2 18 -11 21 -9
3 -16 12 -16 20 0 8 -6 11 -15 8 -8 -4 -17 1 -21 10 -3 9 -15 16 -25 16 -10 0
-19 6 -19 14 0 8 -15 17 -35 20 -21 4 -35 13 -35 21 0 8 -6 16 -12 16 -7 1
-19 2 -26 3 -7 0 -16 7 -21 14 -13 21 -94 24 -114 5z m-157 -558 c0 -9 6 -15
13 -14 45 6 67 -2 73 -26 3 -14 12 -25 18 -25 7 0 13 -6 14 -12 4 -42 18 -75
39 -91 14 -11 23 -29 23 -46 0 -15 7 -36 15 -47 8 -10 15 -27 15 -37 0 -10 7
-20 16 -24 11 -4 15 -17 13 -51 -3 -40 0 -46 21 -54 17 -6 20 -12 12 -20 -10
-10 -6 -37 8 -48 17 -15 44 -67 41 -83 -1 -10 2 -24 7 -30 5 -7 13 -26 16 -44
4 -17 14 -34 23 -37 11 -5 14 -14 10 -34 -4 -21 0 -33 14 -45 14 -12 18 -24
13 -42 -5 -21 -3 -25 14 -25 18 0 20 -4 12 -32 -8 -25 -6 -34 8 -44 9 -7 22
-14 29 -14 8 0 10 -12 6 -36 -4 -24 -2 -39 7 -44 7 -4 13 -22 14 -39 0 -17 7
-33 14 -36 6 -2 12 -16 12 -29 0 -15 8 -30 19 -36 17 -8 18 -15 10 -42 -7 -25
-6 -34 6 -41 8 -4 15 -14 15 -22 0 -7 7 -21 16 -29 8 -9 16 -28 17 -43 1 -16
7 -32 14 -38 7 -5 14 -30 16 -55 3 -33 9 -46 21 -48 13 -3 16 -10 12 -25 -3
-13 1 -25 12 -33 12 -8 16 -23 13 -49 -2 -32 0 -37 14 -31 13 5 16 2 11 -11
-4 -9 -2 -19 4 -23 7 -4 14 -26 17 -49 4 -26 13 -45 24 -52 24 -12 24 -35 2
-48 -17 -10 -17 -10 0 -11 9 0 17 -6 17 -14 0 -7 7 -19 15 -26 17 -14 21 -60
5 -60 -5 0 -10 5 -10 10 0 6 -32 10 -75 10 -58 0 -77 -4 -81 -15 -4 -8 -14
-15 -23 -15 -9 0 -27 -12 -40 -25 -13 -14 -31 -25 -40 -25 -10 0 -26 -9 -36
-20 -10 -12 -24 -19 -31 -16 -6 2 -21 -2 -33 -10 -14 -10 -32 -13 -50 -9 -22
5 -32 2 -40 -12 -6 -10 -11 -14 -11 -9 0 5 -6 4 -13 -2 -23 -19 -246 -16 -296
4 -18 8 -42 14 -52 14 -9 0 -25 8 -35 17 -11 11 -33 17 -65 18 -35 0 -49 4
-49 14 0 10 -11 12 -44 9 -32 -4 -49 -1 -67 13 -13 9 -27 15 -31 13 -4 -3 -18
2 -30 10 -12 9 -41 16 -63 16 -22 0 -49 7 -59 15 -13 10 -43 15 -82 15 -35 0
-66 5 -69 10 -3 6 -14 10 -25 10 -10 0 -20 7 -24 15 -3 8 -16 15 -30 15 -13 0
-26 7 -30 15 -3 8 -13 15 -23 16 -14 0 -13 2 5 9 15 6 22 18 22 35 0 14 5 25
10 25 6 0 10 8 10 19 0 10 7 24 15 31 9 7 15 29 15 55 0 26 6 47 16 55 8 8 14
25 14 39 -3 43 -1 51 16 51 9 0 14 8 13 18 -3 33 1 42 21 42 11 0 20 5 20 10
0 6 -5 10 -12 10 -9 0 -9 3 0 12 7 7 12 22 12 35 0 13 6 23 13 23 8 0 13 14
14 37 1 23 8 42 20 51 10 7 17 20 15 28 -2 9 4 22 14 28 14 11 16 23 11 65 -5
40 -3 53 8 58 8 3 15 16 15 29 0 14 7 27 15 30 8 4 15 19 15 34 0 16 5 32 10
35 6 3 10 16 10 29 0 12 6 28 12 34 10 10 10 15 -2 23 -13 8 -13 11 0 22 9 6
17 29 18 50 2 28 11 47 34 69 30 30 31 31 12 45 -19 14 -19 14 0 29 11 8 17
14 13 14 -4 0 2 16 13 35 11 20 20 46 20 59 0 13 7 26 15 30 8 3 12 12 9 20
-8 21 27 96 44 96 11 0 13 8 8 30 -4 23 -1 32 10 37 8 3 13 11 10 18 -2 7 -2
16 2 20 4 4 7 10 8 13 4 41 19 89 28 97 6 6 17 29 24 53 7 24 20 46 28 49 8 3
14 11 14 19 0 8 7 14 15 14 8 0 20 9 27 20 15 24 58 27 58 5z m-937 -1892 c40
-3 67 -1 67 4 0 6 24 9 53 7 28 -1 52 -3 52 -4 0 -2 10 -3 115 -19 35 -5 66
-14 68 -20 2 -6 29 -11 62 -11 34 0 60 -5 62 -11 2 -7 24 -14 48 -16 25 -2 47
-8 50 -13 10 -17 59 -30 66 -18 5 7 10 3 15 -11 10 -26 38 -39 49 -22 5 10 11
9 23 -3 8 -9 29 -16 46 -16 20 0 31 -5 31 -14 0 -11 11 -15 40 -13 28 1 46 -5
63 -21 19 -18 35 -22 94 -22 43 0 82 -6 99 -15 25 -12 31 -12 50 0 16 10 24
11 33 2 8 -8 14 -8 23 1 7 7 28 12 48 12 39 0 55 8 62 29 3 9 20 16 46 17 24
1 50 8 59 15 22 19 85 39 97 32 5 -4 7 0 3 9 -10 28 17 51 66 55 39 4 46 1 52
-16 3 -12 3 -25 0 -31 -3 -5 -2 -10 2 -10 13 0 13 -183 -1 -199 -8 -11 -8 -15
0 -18 7 -2 10 -12 7 -22 -3 -11 0 -28 6 -39 8 -15 8 -23 1 -27 -7 -5 -8 -11
-1 -19 21 -26 -28 -142 -68 -161 -12 -5 -21 -15 -21 -22 0 -7 -11 -13 -25 -13
-14 0 -25 -4 -25 -10 0 -5 -9 -10 -20 -10 -11 0 -37 -7 -58 -16 -20 -9 -54
-16 -75 -14 -21 1 -44 -4 -52 -10 -12 -10 -120 -25 -150 -21 -5 1 -55 3 -109
4 -69 1 -101 6 -104 15 -2 7 -23 12 -58 12 -30 0 -54 4 -54 9 0 5 -19 12 -42
16 -24 4 -46 12 -49 17 -3 5 -26 10 -50 11 -29 1 -43 6 -42 15 2 8 -9 12 -33
12 -19 0 -42 7 -50 15 -9 8 -25 15 -38 15 -12 0 -27 5 -33 11 -5 5 -27 11 -47
12 -28 2 -38 7 -42 22 -4 18 -13 20 -75 18 -52 -1 -72 3 -76 13 -3 8 -18 14
-33 14 -16 0 -35 7 -43 15 -8 8 -16 12 -18 11 -2 -2 -26 -1 -52 4 -28 4 -50 3
-54 -3 -3 -5 -24 -7 -47 -4 -28 4 -52 1 -71 -9 -16 -8 -48 -17 -72 -19 -50 -5
-82 -20 -101 -47 -7 -10 -17 -16 -22 -13 -23 14 -107 -55 -94 -77 5 -8 -2 -9
-22 -4 -35 9 -44 21 -44 64 0 17 -5 32 -11 32 -7 0 -5 10 5 25 13 20 15 35 7
82 -5 32 -7 62 -4 67 3 4 6 42 7 83 1 57 -2 77 -14 84 -13 7 -13 10 -1 18 7 5
14 20 14 35 0 25 10 35 20 19 2 -5 2 -2 1 4 -2 7 6 18 18 24 12 7 31 20 41 30
11 10 40 21 63 25 42 6 55 17 34 27 -6 3 -5 4 2 3 7 -2 27 1 43 6 65 21 91 26
105 21 8 -3 45 -7 83 -10z"/>
<path d="M6620 9213 c-20 -8 -30 -24 -30 -50 0 -13 -8 -31 -18 -41 -14 -14
-17 -29 -14 -57 3 -28 0 -40 -11 -47 -12 -6 -15 -17 -11 -38 5 -22 1 -31 -15
-42 -12 -7 -21 -20 -21 -29 0 -9 -7 -22 -16 -29 -9 -8 -14 -25 -12 -42 2 -16
-3 -32 -10 -37 -7 -4 -14 -23 -16 -42 -2 -19 -9 -47 -15 -62 -6 -16 -9 -33 -6
-37 3 -5 -4 -14 -15 -20 -16 -8 -21 -19 -18 -41 2 -17 -3 -33 -11 -38 -7 -5
-11 -13 -7 -19 3 -6 2 -13 -4 -17 -5 -3 -10 -15 -10 -26 0 -10 -7 -19 -15 -19
-9 0 -15 -9 -15 -24 0 -16 -7 -26 -21 -29 -16 -4 -19 -9 -11 -24 15 -29 3 -92
-20 -104 -15 -8 -18 -17 -13 -36 3 -15 2 -29 -2 -32 -16 -11 -54 -102 -47
-112 3 -6 -3 -13 -14 -16 -17 -4 -19 -12 -16 -51 2 -37 -1 -49 -17 -60 -12 -8
-19 -23 -17 -35 1 -12 -1 -28 -6 -35 -12 -20 1 -29 70 -46 83 -21 158 -12 173
21 6 13 11 35 11 48 0 13 6 25 13 28 7 2 12 22 12 50 0 31 4 47 12 47 7 0 16
18 19 40 4 22 10 40 15 40 5 0 6 6 3 13 -3 8 7 25 22 40 15 15 24 33 21 41 -3
8 1 20 9 26 8 7 14 20 14 30 0 10 7 24 16 31 11 9 14 23 10 47 -4 29 -1 38 19
54 31 24 31 36 3 47 -22 8 -22 9 9 25 20 10 30 22 27 30 -3 7 2 16 10 19 9 4
13 13 10 22 -4 8 -1 21 5 29 6 7 9 20 5 29 -3 8 4 24 17 35 12 12 19 27 16 36
-9 24 2 46 20 39 11 -4 14 -2 9 5 -4 7 3 22 14 34 15 17 20 32 18 56 -4 28 0
35 20 43 20 8 22 12 12 24 -10 12 -10 21 -2 40 7 14 16 25 22 25 5 0 10 9 10
20 0 11 -4 20 -10 20 -16 0 -11 19 10 37 14 12 20 30 20 58 0 34 -4 42 -27 53
-15 6 -31 12 -36 12 -5 0 -19 10 -31 23 -21 23 -83 33 -116 20z"/>
<path d="M9513 7887 c3 -8 -11 -12 -48 -12 -31 0 -59 -6 -70 -15 -9 -8 -30
-13 -46 -12 -16 2 -29 -1 -29 -6 0 -5 -13 -12 -30 -15 -21 -5 -30 -12 -30 -26
0 -10 -6 -19 -12 -18 -40 1 -57 -5 -63 -23 -3 -11 -17 -23 -31 -26 -18 -5 -24
-13 -24 -35 0 -16 -4 -29 -10 -29 -5 0 -10 -9 -10 -20 0 -12 7 -20 16 -20 11
0 14 -5 9 -17 -4 -10 -7 -22 -7 -28 0 -5 1 -29 3 -53 2 -35 -2 -46 -21 -59
l-23 -16 22 -16 c18 -14 22 -28 23 -96 2 -44 0 -100 -4 -124 -9 -58 4 -91 36
-91 18 0 24 -4 20 -15 -5 -12 3 -15 40 -15 34 0 46 4 46 15 0 8 8 15 18 15 17
0 75 39 58 40 -16 0 27 40 43 40 9 0 31 14 49 30 30 27 40 30 96 30 34 0 66 4
72 10 12 12 154 20 154 8 0 -5 5 -6 11 -2 6 3 14 2 18 -4 3 -5 33 -13 66 -16
33 -4 62 -11 63 -16 2 -6 19 -10 37 -10 20 0 35 -6 39 -15 3 -8 14 -15 24 -15
10 0 22 -4 28 -10 5 -5 35 -11 67 -14 32 -2 63 -9 70 -14 19 -16 106 -44 116
-38 13 9 72 -5 66 -15 -8 -12 26 -27 55 -24 14 1 33 -4 42 -13 11 -9 26 -12
43 -8 21 5 25 3 23 -10 -4 -24 40 -35 132 -33 141 1 171 -1 165 -11 -3 -5 1
-10 9 -10 9 0 16 5 16 10 0 6 36 10 89 10 85 0 90 1 93 22 3 20 9 23 53 24 27
1 51 7 53 13 2 6 10 11 18 11 8 0 14 9 14 20 0 22 10 26 26 10 7 -7 23 -3 49
10 22 11 45 20 52 20 8 0 19 11 25 25 6 14 15 25 20 25 4 0 8 7 8 15 0 8 5 15
10 15 14 0 12 86 -2 110 -11 17 -10 22 0 29 11 7 14 54 14 217 l1 208 -24 10
c-13 6 -27 16 -32 22 -18 30 -170 -17 -182 -57 -4 -11 -15 -19 -29 -19 -13 0
-29 -7 -36 -15 -7 -8 -19 -15 -27 -15 -7 0 -23 -15 -34 -34 -19 -32 -24 -35
-72 -35 -29 0 -65 -7 -82 -15 -41 -21 -192 -22 -222 -1 -12 8 -38 17 -59 20
-21 2 -42 9 -48 15 -5 5 -27 10 -48 10 -21 0 -38 5 -38 10 0 6 5 10 11 10 5 0
7 5 4 10 -3 6 -21 10 -39 10 -19 0 -39 7 -46 15 -7 9 -29 15 -54 15 -23 0 -46
4 -52 10 -9 9 -37 14 -93 19 -7 1 -11 7 -7 16 4 12 -5 15 -49 15 -30 0 -55 5
-55 10 0 6 -19 10 -43 10 -23 0 -53 7 -65 16 -14 10 -50 17 -100 19 -118 5
-109 4 -92 15 10 6 -30 9 -118 9 -101 0 -133 -3 -129 -12z m253 -63 c9 -11 31
-14 92 -12 44 2 78 0 76 -4 -9 -14 37 -29 70 -22 27 5 38 2 51 -14 14 -15 26
-18 61 -14 36 4 44 2 44 -12 0 -9 7 -15 18 -14 45 4 63 -3 72 -27 6 -15 17
-25 30 -25 11 0 37 -7 58 -16 20 -9 46 -18 57 -20 67 -10 126 -24 143 -33 11
-6 22 -8 24 -6 3 3 24 -2 48 -10 58 -21 270 -21 270 -1 0 10 11 13 39 12 31
-2 38 1 33 13 -5 14 -3 14 11 2 11 -9 17 -10 17 -2 0 6 13 11 28 11 16 0 48 9
71 21 24 11 49 18 57 15 19 -7 30 14 13 25 -10 6 -11 9 -1 9 6 0 12 7 12 15 0
9 12 20 28 26 52 20 117 11 82 -11 -8 -6 -10 -10 -4 -10 6 0 12 -11 12 -25 0
-14 7 -32 17 -39 16 -11 16 -13 2 -19 -10 -4 -15 -16 -13 -34 1 -15 -1 -40 -5
-55 -5 -18 -4 -28 3 -28 7 0 7 -4 0 -13 -7 -8 -8 -35 -2 -82 5 -43 5 -71 -1
-73 -5 -2 -5 -12 2 -23 7 -15 7 -24 -1 -34 -7 -9 -8 -15 0 -20 15 -9 12 -28
-3 -22 -16 6 -40 -11 -55 -40 -8 -14 -18 -20 -32 -16 -14 4 -20 0 -20 -11 0
-9 -4 -16 -10 -16 -5 0 -10 5 -10 12 0 6 -6 3 -14 -8 -8 -10 -18 -16 -22 -12
-4 5 -14 -1 -22 -13 -7 -11 -21 -18 -30 -16 -10 2 -30 -3 -45 -10 -15 -8 -32
-11 -37 -8 -5 3 -24 -1 -42 -8 -19 -8 -49 -12 -67 -9 -18 2 -44 -2 -58 -9 -21
-11 -27 -11 -37 1 -14 19 -73 25 -91 10 -9 -8 -15 -8 -20 0 -4 7 -23 9 -51 4
-33 -5 -49 -2 -62 9 -9 8 -34 17 -54 21 -21 4 -38 11 -38 16 0 4 -24 11 -52
15 -64 9 -78 16 -52 27 22 9 -43 2 -67 -7 -10 -4 -20 4 -28 19 -14 25 -51 36
-122 36 -20 0 -42 7 -49 15 -7 8 -27 15 -44 15 -18 0 -41 6 -51 14 -10 7 -27
11 -37 8 -11 -2 -24 3 -31 12 -10 14 -29 17 -89 18 -54 0 -81 4 -89 14 -13 16
-188 20 -217 5 -9 -6 -34 -13 -54 -16 -24 -4 -38 -11 -38 -20 0 -8 -9 -15 -20
-15 -11 0 -34 -8 -52 -19 -19 -10 -47 -20 -63 -23 -17 -3 -38 -9 -47 -13 -13
-5 -18 -3 -18 9 0 8 -8 20 -18 25 -16 8 -17 22 -15 115 1 58 -2 108 -6 111
-13 8 11 65 27 65 10 0 13 14 12 53 -4 95 -1 117 18 123 9 3 26 10 37 14 11 5
39 16 63 26 23 10 42 21 42 26 0 4 31 8 69 8 39 0 73 5 76 11 12 19 42 24 127
21 58 -2 86 -8 94 -18z"/>
<path d="M7559 7883 c-1 -5 -1 -11 0 -15 0 -4 -37 -4 -83 -1 -66 4 -91 2 -117
-11 -17 -9 -48 -16 -69 -16 -20 0 -41 -5 -47 -11 -7 -7 -39 -11 -73 -10 -35 1
-59 -3 -56 -8 4 -5 -11 -15 -31 -21 -21 -6 -47 -15 -58 -20 -44 -20 -112 -42
-139 -44 -16 -2 -33 -10 -38 -19 -5 -10 -20 -17 -33 -17 -16 0 -25 -6 -25 -15
0 -9 -6 -15 -12 -14 -27 6 -153 -14 -160 -24 -4 -7 -61 -10 -168 -9 -161 2
-185 5 -175 22 3 5 -12 10 -32 12 -24 2 -37 8 -36 16 2 6 -6 12 -17 12 -11 0
-20 6 -20 13 0 16 -36 47 -54 47 -7 0 -19 7 -26 15 -7 8 -19 15 -26 15 -8 0
-11 6 -8 15 6 15 1 16 -66 17 -50 1 -59 -3 -81 -33 -20 -29 -21 -33 -6 -44 10
-7 13 -15 7 -21 -13 -13 -19 -123 -8 -130 5 -3 4 -11 -2 -18 -7 -9 -7 -23 1
-45 8 -23 8 -35 0 -45 -8 -10 -9 -26 -1 -59 7 -35 7 -51 -4 -72 -12 -23 -12
-31 1 -57 13 -25 13 -32 2 -38 -10 -7 -7 -15 14 -36 15 -15 27 -30 27 -35 0
-4 20 -15 45 -25 25 -9 45 -20 45 -25 0 -5 8 -5 17 -2 12 5 15 2 11 -9 -7 -18
29 -38 66 -38 13 0 27 -7 30 -16 4 -9 9 -14 13 -11 3 4 11 0 17 -8 9 -12 39
-15 146 -14 181 0 273 -2 280 -6 12 -7 101 10 100 19 -3 17 25 26 83 26 31 0
57 5 57 10 0 6 8 10 18 10 11 0 26 8 36 18 10 12 32 19 62 20 25 1 53 6 62 11
10 4 37 11 61 14 24 3 47 11 51 17 4 6 23 12 42 13 20 1 43 8 52 16 8 7 26 14
40 15 13 0 22 4 20 8 -6 10 82 21 115 15 17 -4 36 0 50 9 16 12 35 14 74 10
29 -4 79 -9 112 -12 34 -3 65 -12 71 -19 14 -19 58 -35 95 -35 17 0 33 -7 41
-19 6 -10 17 -17 24 -14 7 2 27 -16 46 -41 l33 -46 69 2 c47 2 70 6 73 16 3 8
14 11 24 9 12 -3 19 0 19 8 0 8 8 18 18 24 14 8 15 13 5 30 -10 15 -10 21 0
24 7 3 2 6 -10 6 -20 1 -45 21 -26 21 4 0 9 59 9 130 1 77 -2 130 -8 130 -5 0
-6 5 -2 12 12 18 14 57 4 63 -5 3 -5 16 0 31 6 14 10 36 10 49 0 30 -39 92
-63 101 -12 3 -16 12 -13 21 5 13 0 15 -34 10 -34 -4 -40 -2 -38 11 2 11 -4
17 -17 18 -40 2 -45 4 -45 21 0 9 -3 13 -7 10 -3 -4 -18 0 -32 9 -16 11 -43
16 -73 15 -37 -1 -48 2 -48 14 0 8 -5 15 -11 15 -5 0 -7 -5 -3 -12 5 -8 2 -9
-12 -3 -10 4 -45 9 -78 10 -32 2 -63 8 -69 14 -13 13 -36 15 -38 4z m56 -72
c22 0 64 -6 94 -14 29 -8 62 -12 72 -10 11 3 19 0 19 -7 0 -7 7 -9 15 -6 8 3
21 9 29 12 11 4 13 0 9 -15 -4 -17 -1 -21 21 -21 17 0 26 -5 26 -16 0 -13 7
-15 36 -11 33 6 37 4 47 -23 6 -17 17 -30 24 -30 6 0 15 -9 18 -20 3 -11 10
-20 15 -20 15 0 30 -62 24 -101 -5 -31 -3 -40 10 -45 15 -6 14 -9 -9 -24 -18
-12 -23 -20 -15 -25 6 -4 10 -14 9 -23 -1 -10 -1 -19 0 -22 1 -3 3 -22 5 -43
2 -26 -2 -41 -13 -47 -9 -5 -11 -10 -4 -10 15 0 21 -37 12 -72 -4 -16 -3 -30
2 -34 6 -3 -1 -16 -15 -29 -27 -25 -64 -24 -79 2 -4 7 -15 13 -22 13 -8 0 -15
5 -15 10 0 6 6 10 13 10 6 0 -8 12 -32 25 -24 14 -46 23 -49 21 -3 -3 -18 4
-33 15 -16 11 -33 18 -38 14 -5 -3 -29 1 -53 10 -24 8 -53 15 -64 15 -12 0
-24 7 -28 15 -4 12 -26 15 -111 15 -85 0 -107 -3 -111 -15 -4 -10 -21 -15 -54
-15 -26 0 -60 -4 -76 -10 -16 -5 -43 -11 -59 -13 -17 -2 -37 -7 -45 -12 -8 -5
-37 -14 -65 -21 -34 -7 -49 -16 -47 -25 3 -10 0 -11 -8 -3 -15 15 -60 5 -60
-14 0 -12 -9 -14 -49 -9 -37 4 -53 2 -61 -9 -7 -8 -25 -14 -41 -14 -19 0 -29
-5 -29 -15 0 -9 -10 -16 -27 -17 -61 -3 -79 -7 -114 -21 -26 -12 -45 -13 -75
-7 -59 14 -82 12 -104 -10 -16 -16 -32 -20 -84 -19 -48 1 -63 4 -60 14 9 21
-103 29 -148 10 -14 -5 -18 -2 -18 11 0 16 -8 19 -46 21 -34 1 -50 7 -61 22
-8 12 -25 21 -41 21 -20 0 -23 3 -13 9 8 5 20 7 28 4 7 -3 13 0 13 6 0 6 -13
11 -29 11 -16 0 -34 7 -41 15 -7 8 -18 15 -25 15 -19 0 -27 49 -25 153 1 51 1
97 0 102 -1 6 -2 14 0 20 1 5 1 33 1 62 0 34 5 56 14 60 7 5 15 26 17 48 2 22
8 39 13 38 6 -2 10 -9 10 -15 0 -19 47 -45 79 -45 16 0 31 -5 35 -11 4 -7 18
-13 31 -15 13 -2 26 -9 28 -15 2 -7 14 -12 27 -12 13 0 27 -4 30 -10 3 -5 33
-10 65 -10 37 0 70 -6 89 -17 26 -15 33 -16 40 -4 6 9 11 10 15 2 10 -16 26
-14 26 4 0 12 13 15 56 15 37 0 61 5 71 16 9 8 23 14 32 11 40 -11 46 -11 44
1 -3 14 13 16 22 2 9 -15 52 -12 69 5 8 8 30 15 50 15 19 0 38 5 41 11 4 6 13
8 21 5 7 -3 16 -1 20 5 3 5 14 7 24 4 12 -4 23 2 33 16 11 15 21 19 37 14 15
-5 20 -3 16 3 -12 19 23 42 54 35 20 -4 39 1 57 13 16 10 33 17 39 16 6 -1 19
7 29 18 15 16 31 20 86 20 37 0 71 5 74 10 3 6 34 10 68 10 34 0 68 4 76 9 8
5 27 5 45 0 17 -5 49 -9 71 -8z"/>
<path d="M13648 7875 c-3 -3 -48 -8 -99 -10 -106 -4 -169 -13 -185 -26 -7 -6
-23 -5 -39 1 -22 8 -33 7 -51 -5 -13 -8 -30 -15 -39 -15 -8 0 -15 -4 -15 -9 0
-10 -38 -24 -61 -22 -9 1 -19 -4 -22 -12 -3 -8 -24 -14 -57 -16 -30 -1 -59 -8
-67 -17 -8 -7 -20 -14 -26 -14 -7 0 -20 -8 -29 -19 -11 -13 -30 -19 -64 -19
-32 -1 -51 -6 -57 -17 -6 -11 -21 -15 -48 -13 -22 1 -43 -3 -47 -9 -4 -5 -36
-13 -71 -16 -36 -4 -69 -11 -75 -17 -14 -14 -186 -13 -186 1 0 6 -6 9 -14 6
-22 -9 -121 18 -154 41 -16 12 -38 22 -47 22 -9 0 -19 9 -22 20 -3 11 -9 17
-14 14 -5 -3 -12 3 -16 12 -19 51 -95 71 -128 34 -17 -19 -23 -69 -10 -89 4
-8 -1 -14 -14 -18 -23 -6 -28 -29 -8 -36 9 -3 9 -7 0 -18 -6 -8 -11 -32 -10
-54 1 -22 -3 -47 -8 -55 -5 -9 -4 -15 3 -18 7 -2 10 -7 8 -10 -2 -4 -5 -36 -7
-72 -2 -36 -7 -71 -12 -77 -6 -9 -5 -13 2 -13 7 0 10 -4 7 -9 -3 -5 3 -20 14
-33 14 -19 16 -28 8 -36 -9 -9 -9 -12 1 -12 7 0 9 -5 6 -11 -4 -6 2 -13 14
-16 12 -3 21 -12 21 -20 0 -8 5 -11 10 -8 6 3 10 2 10 -3 0 -12 49 -34 61 -27
5 4 13 -5 18 -18 11 -28 21 -33 86 -43 35 -5 49 -12 53 -26 4 -17 13 -19 75
-17 47 1 72 -2 75 -9 5 -16 114 -16 130 0 10 10 15 10 22 -1 7 -12 12 -12 23
-3 8 7 51 13 95 15 72 2 81 4 76 20 -5 17 17 23 69 18 9 -1 17 2 17 7 0 9 75
27 94 23 5 -1 17 6 27 15 10 9 27 14 39 11 11 -3 23 -1 26 5 3 5 17 7 30 4 13
-4 24 -2 24 3 0 4 21 11 47 14 26 3 52 12 58 21 8 10 27 16 55 16 33 0 48 6
67 26 19 21 34 26 81 28 31 2 82 8 112 13 30 6 71 9 90 7 19 -2 54 -4 78 -4
41 -1 181 -45 192 -61 3 -4 18 -10 33 -13 28 -5 37 -11 99 -74 35 -35 42 -37
98 -37 82 0 80 -13 45 270 -2 17 -4 47 -4 68 -1 20 -5 37 -10 37 -8 0 -7 -49
3 -248 2 -51 0 -72 -8 -69 -6 2 -10 11 -9 19 2 10 -6 13 -33 10 -29 -4 -36 -1
-41 17 -4 15 -13 21 -32 21 -20 0 -23 2 -11 10 13 9 13 11 0 20 -15 10 -41 14
-73 11 -9 -1 -20 5 -23 13 -3 9 -9 14 -14 11 -4 -2 -16 2 -26 10 -10 8 -25 15
-33 15 -8 0 -22 7 -30 14 -9 8 -41 17 -71 19 -30 3 -56 10 -58 16 -4 13 -83 4
-93 -11 -3 -5 -43 -9 -90 -9 -46 0 -87 -5 -90 -11 -3 -5 -24 -11 -47 -12 -22
-1 -46 -6 -54 -12 -28 -21 -64 -35 -95 -37 -18 -1 -33 -5 -33 -9 0 -5 -16 -8
-35 -8 -19 0 -43 -4 -53 -9 -30 -16 -56 -24 -74 -22 -12 2 -16 -3 -12 -13 4
-12 -1 -16 -17 -18 -13 -1 -33 -2 -44 -3 -11 -1 -28 -3 -37 -4 -10 0 -18 -7
-18 -15 0 -17 -44 -26 -79 -16 -31 9 -73 3 -81 -10 -4 -6 -31 -13 -61 -16 -30
-3 -56 -6 -59 -7 -3 0 -13 3 -22 7 -11 5 -28 0 -48 -14 -31 -22 -56 -19 -46 6
5 13 -14 16 -24 3 -3 -3 -18 -9 -34 -13 -23 -6 -27 -4 -23 8 4 9 2 16 -3 16
-6 0 -10 -4 -10 -9 0 -10 -183 40 -188 51 -2 5 -12 8 -23 8 -11 0 -27 9 -36
20 -10 11 -32 25 -50 31 -22 7 -33 17 -33 30 0 11 -7 22 -15 25 -18 7 -20 65
-3 82 8 8 8 15 0 24 -17 21 -14 175 3 182 11 4 15 21 15 61 l0 55 33 0 c19 0
42 -8 55 -20 12 -11 28 -20 35 -20 8 0 20 -7 27 -15 7 -9 21 -13 31 -10 10 4
29 -1 41 -9 12 -9 33 -16 46 -16 12 0 33 -7 46 -15 18 -12 30 -13 50 -6 16 7
26 7 26 1 0 -5 43 -9 100 -9 80 0 100 3 100 15 0 11 15 14 64 14 35 0 77 6 93
14 69 35 87 40 115 37 17 -1 34 2 38 8 4 7 20 13 36 14 16 1 32 6 35 10 3 5
20 9 38 9 20 1 30 5 27 13 -5 15 53 50 77 46 10 -1 29 5 43 13 14 10 34 14 47
11 12 -3 34 -2 47 4 l25 9 -25 11 c-23 11 -22 11 13 7 33 -4 51 -1 117 21 26
8 121 10 126 2 2 -4 17 -4 32 1 38 10 117 3 151 -15 15 -7 38 -11 50 -8 16 4
20 2 16 -10 -7 -16 14 -23 78 -26 52 -2 87 -17 87 -37 0 -13 3 -14 15 -4 15
13 20 5 16 -28 -2 -10 7 -11 32 -7 26 5 36 3 40 -9 4 -9 15 -16 26 -16 12 0
20 -9 23 -25 3 -14 1 -25 -5 -25 -6 0 -5 -5 1 -13 9 -10 7 -19 -4 -35 -8 -12
-11 -22 -6 -22 6 0 13 -12 16 -26 5 -17 12 -24 21 -20 8 3 17 1 20 -4 7 -12
45 -13 45 -2 0 4 -9 15 -19 24 -22 19 -18 63 5 54 10 -4 14 4 14 29 0 18 -4
37 -10 40 -5 3 -10 14 -10 24 0 10 -9 28 -20 41 -11 12 -17 27 -13 33 4 6 -4
8 -21 5 -17 -4 -29 0 -35 9 -4 8 -38 23 -76 32 -38 10 -71 24 -74 32 -3 8 -22
16 -41 18 -19 1 -38 7 -41 12 -3 5 -25 11 -50 13 -24 2 -51 6 -59 9 -16 6 -61
16 -96 23 -11 2 -23 1 -26 -1z m-1518 -695 c0 -5 -7 -10 -15 -10 -8 0 -15 5
-15 10 0 6 7 10 15 10 8 0 15 -4 15 -10z m1020 0 c0 -5 -4 -10 -10 -10 -5 0
-10 5 -10 10 0 6 5 10 10 10 6 0 10 -4 10 -10z"/>
<path d="M13620 7220 c0 -5 7 -10 16 -10 8 0 12 5 9 10 -3 6 -10 10 -16 10 -5
0 -9 -4 -9 -10z"/>
<path d="M13474 7185 c4 -13 2 -14 -14 -5 -11 6 -26 7 -33 3 -6 -4 -15 -8 -19
-9 -5 -1 -11 -3 -15 -4 -9 -2 -31 -6 -55 -8 -9 -1 -20 -11 -23 -23 -4 -11 -13
-18 -20 -15 -7 2 -26 -6 -42 -20 -15 -13 -35 -24 -44 -24 -24 0 -34 -32 -15
-46 9 -6 16 -23 16 -37 0 -14 4 -29 10 -32 9 -6 32 -77 33 -102 0 -7 5 -11 11
-10 6 1 10 -4 8 -12 -1 -7 2 -19 8 -26 5 -6 10 -23 10 -36 0 -41 6 -73 19
-104 7 -16 14 -35 15 -42 1 -7 9 -20 17 -30 9 -10 18 -25 21 -33 7 -19 108
-26 139 -9 15 7 24 7 34 -1 10 -8 19 -8 33 1 16 10 23 10 36 0 12 -10 16 -11
16 -1 0 10 3 10 14 1 9 -8 16 -8 20 -2 7 10 98 7 115 -4 6 -3 19 0 30 7 14 9
23 9 33 1 8 -7 34 -10 63 -7 28 3 69 6 93 8 51 3 64 14 67 60 2 19 6 44 10 56
6 18 3 21 -17 19 -50 -4 -58 0 -58 31 0 20 -5 30 -15 30 -14 0 -20 22 -16 63
1 9 -5 20 -13 23 -9 3 -13 10 -10 15 3 5 -2 9 -10 9 -9 0 -17 7 -17 15 -3 32
-4 36 -18 44 -8 5 -13 25 -13 49 0 24 -5 46 -14 53 -8 6 -14 26 -14 44 0 24
-6 35 -25 45 -14 7 -25 19 -25 26 0 6 -9 14 -20 17 -11 3 -19 11 -18 18 4 16
-146 23 -175 8 -12 -7 -22 -7 -32 1 -10 8 -14 8 -18 -2 -4 -10 -7 -11 -18 0
-19 18 -53 16 -45 -3z"/>
<path d="M2649 6919 c-50 -12 -69 -22 -69 -34 0 -7 -7 -16 -16 -19 -9 -3 -14
-12 -11 -19 2 -6 -3 -21 -12 -32 -9 -11 -26 -47 -36 -80 -11 -33 -22 -62 -26
-65 -12 -10 -29 -49 -29 -68 0 -11 -7 -22 -14 -25 -8 -3 -18 -22 -22 -41 -3
-20 -11 -36 -18 -36 -6 0 -3 -7 7 -15 11 -7 25 -11 32 -9 10 4 12 -1 8 -15 -6
-25 9 -28 28 -5 12 15 15 14 29 -2 8 -11 25 -20 37 -22 33 -5 99 16 114 35 10
12 10 14 2 9 -7 -4 -13 -5 -13 -2 0 3 14 12 30 21 27 14 30 20 30 66 0 32 5
51 13 55 8 3 12 16 9 34 -3 20 2 34 16 46 11 9 18 23 15 30 -2 7 1 23 8 36 13
23 15 29 17 61 1 9 9 17 17 17 23 0 18 23 -10 44 -14 10 -25 24 -25 30 0 12
-70 15 -111 5z"/>
<path d="M9260 6440 c0 -11 2 -20 5 -20 2 0 9 9 15 20 9 16 8 20 -5 20 -8 0
-15 -9 -15 -20z"/>
<path d="M3378 6263 c-9 -11 -35 -14 -114 -12 -77 2 -108 -1 -125 -12 -13 -9
-44 -16 -69 -17 -53 -3 -148 -30 -170 -48 -9 -7 -31 -15 -51 -17 -19 -2 -39
-6 -45 -10 -6 -3 -29 -9 -52 -13 -28 -4 -43 -13 -47 -25 -6 -18 -23 -25 -75
-31 -17 -2 -24 -8 -22 -20 2 -10 -3 -18 -11 -18 -8 0 -20 -7 -27 -15 -7 -8
-21 -15 -31 -15 -24 0 -25 -17 -1 -23 13 -3 10 -7 -13 -15 -76 -30 -105 -53
-126 -99 -7 -18 -20 -33 -26 -33 -7 0 -13 -8 -13 -17 0 -10 -9 -29 -20 -43
-12 -16 -20 -41 -20 -67 0 -23 -4 -45 -10 -48 -5 -3 -10 -41 -10 -85 0 -64 3
-79 17 -84 11 -5 14 -10 6 -14 -15 -10 -4 -72 13 -72 9 0 14 -11 14 -30 0 -18
6 -33 15 -36 8 -4 15 -14 15 -24 0 -10 7 -23 15 -30 9 -7 13 -21 10 -31 -4
-11 -2 -19 5 -19 6 0 27 -16 47 -35 20 -19 45 -35 55 -35 11 0 18 -6 16 -14
-2 -8 9 -25 25 -39 15 -15 27 -33 27 -42 0 -8 7 -15 15 -15 8 0 15 -7 15 -15
0 -9 9 -15 21 -15 12 0 32 -11 45 -25 13 -14 32 -25 42 -25 11 0 23 -7 26 -16
3 -8 11 -12 17 -9 6 4 13 -2 16 -14 4 -16 11 -20 24 -16 12 4 21 1 25 -9 4 -9
18 -16 33 -16 14 0 43 -11 63 -25 20 -14 44 -25 53 -25 8 0 18 -7 21 -15 4 -8
12 -15 19 -15 7 0 18 -7 25 -15 7 -8 25 -15 41 -15 16 0 29 -5 29 -12 0 -9 4
-8 10 2 8 13 11 13 19 1 8 -13 23 -17 78 -20 15 -1 21 -6 17 -16 -4 -10 3 -16
23 -21 15 -3 45 -14 67 -24 21 -10 45 -16 53 -13 8 3 19 0 23 -7 4 -7 33 -14
66 -16 76 -4 124 -14 124 -25 0 -5 7 -6 15 -3 8 4 21 2 28 -4 7 -6 54 -13 104
-15 52 -2 99 -9 107 -16 9 -8 56 -13 128 -14 62 -1 120 -7 128 -12 12 -7 179
-16 310 -16 251 -1 410 6 440 17 19 7 42 13 50 12 46 -4 80 3 80 16 0 9 12 16
28 18 25 3 27 7 27 47 1 37 -3 45 -24 52 -13 6 -30 17 -36 26 -9 13 -40 16
-181 18 -93 1 -177 -2 -186 -7 -12 -6 -26 -3 -44 9 -22 14 -110 27 -161 23
-87 -6 -194 1 -226 15 -20 8 -63 15 -94 16 -85 0 -103 2 -103 12 0 5 -7 7 -15
4 -8 -4 -17 -1 -21 5 -4 6 -23 8 -46 5 -29 -4 -43 -1 -56 12 -12 12 -31 17
-62 16 -29 -1 -49 4 -56 13 -6 9 -28 14 -62 14 -42 -1 -54 3 -63 20 -9 17 -17
19 -50 14 -32 -5 -39 -3 -39 10 0 12 -9 15 -44 13 -25 -2 -51 3 -60 10 -8 7
-22 14 -31 15 -9 1 -20 7 -23 12 -4 5 -16 11 -27 12 -11 2 -27 10 -36 18 -9 8
-33 18 -53 21 -23 3 -45 16 -60 33 -12 15 -32 31 -44 34 -12 4 -22 12 -22 17
0 6 -4 8 -9 5 -14 -9 -41 4 -41 20 0 8 -5 14 -10 14 -6 0 -21 11 -34 25 -13
14 -28 25 -35 25 -6 0 -11 6 -11 13 0 8 -11 20 -25 27 -14 7 -25 19 -25 26 0
7 -8 19 -18 26 -10 7 -22 25 -26 41 -4 18 -13 27 -26 27 -14 0 -18 5 -13 17 4
11 3 14 -5 9 -15 -9 -15 9 -1 33 10 15 8 22 -10 40 -21 21 -27 46 -13 55 5 3
5 31 1 63 -5 42 -3 64 7 80 17 27 18 53 2 53 -14 0 20 33 45 43 10 4 17 17 17
32 0 16 6 25 15 25 9 0 21 11 27 25 6 14 15 25 20 25 9 0 24 11 59 43 10 9 35
17 54 17 19 0 35 5 35 10 0 6 7 10 15 10 8 0 23 4 33 9 26 15 147 41 186 41
19 0 41 7 50 15 13 13 66 16 352 18 253 2 338 5 341 14 3 9 11 8 29 -3 23 -16
24 -15 24 5 0 27 42 29 67 2 17 -17 37 -18 295 -17 255 1 278 2 290 19 9 12
27 18 56 19 33 0 47 6 62 26 11 13 20 33 20 43 0 9 6 20 13 23 10 5 10 7 0 12
-7 3 -13 12 -13 19 0 13 -39 34 -102 54 -26 9 -235 13 -727 15 -588 3 -693 1
-703 -11z"/>
<path d="M6780 6272 c-19 -2 -40 -8 -47 -14 -7 -6 -35 -12 -63 -14 -28 -2 -58
-10 -66 -19 -9 -8 -20 -13 -25 -9 -5 3 -11 -1 -14 -8 -3 -8 -23 -14 -47 -15
-23 -1 -45 -8 -49 -15 -5 -7 -9 -10 -9 -5 0 4 -9 -2 -20 -13 -11 -11 -26 -20
-34 -20 -8 0 -16 -7 -20 -15 -3 -8 -14 -15 -25 -15 -11 0 -36 -16 -55 -35 -20
-19 -42 -35 -51 -35 -8 0 -15 -4 -15 -10 0 -6 -6 -9 -12 -8 -7 2 -12 -3 -10
-10 1 -8 -7 -16 -18 -19 -11 -3 -20 -9 -20 -14 0 -5 -5 -9 -11 -9 -7 0 -21 -9
-33 -21 -61 -60 -142 -130 -159 -135 -10 -3 -24 -18 -30 -33 -14 -33 -72 -101
-87 -101 -5 0 -10 -7 -10 -15 0 -8 -11 -17 -25 -21 -16 -4 -25 -13 -25 -26 0
-31 -19 -58 -41 -58 -15 0 -19 -5 -15 -15 3 -8 1 -15 -5 -15 -5 0 -16 -15 -24
-33 -8 -19 -25 -45 -39 -58 -14 -13 -26 -29 -26 -36 0 -7 -9 -17 -20 -23 -11
-6 -20 -18 -20 -27 0 -9 -3 -13 -6 -10 -10 10 -44 -39 -44 -62 0 -15 -6 -21
-21 -21 -15 0 -19 -5 -15 -18 4 -12 -4 -30 -24 -52 -16 -18 -30 -42 -30 -51 0
-10 -5 -21 -10 -24 -6 -4 -10 -14 -8 -24 2 -9 -5 -30 -16 -45 -15 -23 -16 -30
-5 -37 11 -7 9 -10 -8 -15 -16 -4 -23 -16 -28 -50 -3 -24 -13 -48 -22 -52 -11
-7 -13 -14 -5 -28 11 -23 5 -44 -14 -44 -9 0 -13 -10 -12 -32 3 -60 -2 -88
-15 -88 -8 0 -13 -13 -13 -37 0 -43 29 -76 60 -68 11 2 42 -4 70 -13 55 -19
186 -22 209 -5 6 5 27 10 45 11 21 2 42 12 58 29 22 24 23 28 8 44 -14 16 -14
19 10 34 14 10 24 20 22 24 -3 4 -1 13 4 21 5 9 5 19 -1 27 -12 13 5 53 21 53
6 0 10 13 10 29 0 17 5 33 10 36 6 3 10 17 10 31 0 13 -4 24 -10 24 -5 0 -10
5 -10 11 0 5 4 8 9 5 18 -11 41 6 41 30 0 15 6 24 15 24 9 0 15 9 15 24 0 13
6 29 14 35 9 7 13 24 11 42 -3 20 0 29 10 29 8 0 15 6 15 14 0 8 8 13 18 12
13 -1 16 5 14 25 -3 22 5 31 40 54 26 17 51 43 63 69 l20 41 165 -3 c167 -2
197 -4 260 -20 20 -5 66 -7 102 -5 46 3 77 0 100 -11 18 -8 65 -18 105 -21 47
-5 73 -12 77 -21 6 -16 42 -19 51 -4 9 15 41 12 54 -4 7 -8 31 -16 54 -19 78
-10 132 -23 157 -38 14 -9 32 -15 40 -14 8 0 28 -7 43 -18 15 -10 34 -16 42
-13 8 3 15 2 15 -3 0 -9 46 -33 75 -38 10 -2 22 -9 26 -15 4 -6 14 -8 23 -5
11 5 16 1 16 -14 0 -11 4 -18 9 -15 5 3 11 -3 14 -13 3 -11 17 -22 37 -26 21
-5 40 -20 58 -46 15 -21 42 -45 60 -54 17 -9 32 -20 32 -25 0 -5 11 -21 24
-35 13 -14 26 -39 30 -55 3 -18 12 -30 21 -30 11 0 14 -6 9 -25 -4 -16 0 -30
10 -40 9 -9 16 -25 16 -36 0 -11 8 -23 18 -26 24 -10 51 -45 45 -60 -3 -8 3
-13 16 -13 12 0 21 -4 21 -8 0 -11 106 -36 118 -28 5 3 52 6 105 7 66 2 101 7
108 16 7 7 22 13 35 13 13 0 24 4 24 9 0 5 3 16 6 25 4 11 1 16 -10 16 -18 0
-21 11 -7 26 9 9 14 42 12 77 -1 9 -8 17 -16 17 -11 0 -14 7 -9 26 5 18 1 29
-11 38 -12 8 -17 26 -17 53 1 27 -4 43 -14 47 -8 3 -14 15 -14 26 0 13 -10 24
-27 31 -16 7 -23 13 -15 16 20 8 14 37 -10 48 -13 6 -27 25 -32 45 -12 41 -28
60 -52 60 -16 0 -16 1 0 19 16 17 15 19 -8 35 -14 9 -30 16 -36 16 -7 0 -9 8
-5 20 5 15 -2 27 -24 46 -17 14 -28 30 -25 36 4 6 -1 8 -12 4 -15 -5 -19 0
-21 20 0 15 -6 30 -12 34 -7 3 -9 14 -5 23 4 12 1 17 -13 17 -10 0 -27 13 -36
30 -10 17 -22 30 -28 30 -5 0 -9 12 -9 28 0 21 -7 30 -30 40 -16 8 -29 17 -27
20 2 9 -59 72 -70 72 -5 0 -19 10 -33 23 -14 13 -33 26 -44 30 -10 4 -16 13
-13 22 4 10 1 12 -10 8 -12 -5 -15 -2 -10 11 5 12 -8 31 -45 66 -29 28 -46 50
-38 50 8 1 1 7 -16 14 -17 8 -39 25 -50 38 -11 14 -30 29 -43 33 -16 5 -20 10
-11 15 17 10 -12 20 -39 13 -17 -4 -20 -2 -15 11 3 9 1 16 -6 16 -6 0 -25 14
-42 30 -16 17 -34 30 -38 30 -13 0 -80 68 -80 81 0 6 -8 9 -17 8 -24 -3 -93
27 -93 40 0 6 -14 11 -30 11 -18 0 -33 6 -36 15 -4 8 -17 15 -29 15 -13 0 -25
5 -27 12 -4 11 -29 20 -60 19 -10 0 -18 4 -18 9 0 9 -78 17 -130 12z m39 -284
c17 -18 23 -19 36 -8 13 11 18 10 30 -6 8 -10 15 -24 15 -30 0 -16 26 -25 47
-17 10 4 14 2 9 -5 -3 -6 3 -16 14 -22 11 -6 20 -17 20 -25 0 -8 7 -15 15 -15
8 0 15 -4 15 -10 0 -5 7 -7 15 -4 8 4 15 1 15 -5 0 -6 9 -11 20 -11 12 0 25
-10 32 -25 6 -14 17 -25 25 -25 7 0 13 -7 13 -16 0 -20 27 -47 39 -39 5 3 11
-5 13 -17 2 -17 9 -22 23 -20 16 2 17 1 5 -7 -12 -8 -10 -13 10 -31 14 -12 42
-31 63 -41 34 -18 51 -49 26 -49 -5 0 -7 -4 -4 -10 3 -5 19 -7 35 -4 25 5 31
1 53 -33 13 -21 32 -44 41 -52 9 -7 16 -20 16 -27 0 -8 4 -14 8 -14 11 0 33
-70 26 -82 -8 -12 -24 -10 -40 7 -9 8 -26 15 -39 15 -13 0 -25 5 -27 10 -2 6
-20 11 -41 12 -30 1 -36 4 -32 18 5 14 -4 18 -51 23 -31 3 -62 11 -67 16 -6 6
-28 11 -49 11 -27 0 -38 4 -38 15 0 12 -15 15 -74 15 -53 0 -75 4 -79 14 -4 9
-24 13 -68 13 -48 0 -65 4 -75 18 -11 15 -30 18 -116 19 -57 1 -110 5 -118 11
-8 5 -67 11 -130 12 -63 2 -124 3 -135 3 -18 1 -18 2 -4 13 9 7 14 18 11 25
-2 7 0 12 5 11 27 -5 43 3 43 21 0 11 13 29 29 41 17 12 35 35 42 51 6 16 25
38 40 49 16 11 29 27 29 34 0 8 10 17 23 20 12 3 28 19 36 36 9 20 20 29 36
29 23 0 39 14 40 35 0 6 8 9 18 7 9 -2 17 2 17 8 0 5 8 10 18 10 9 0 23 10 31
21 10 18 15 19 22 8 8 -12 11 -11 20 4 13 22 24 22 48 -5z"/>
<path d="M9357 6253 c-2 -1 -103 -3 -225 -4 -122 -1 -221 -4 -218 -6 6 -6 -32
-43 -44 -43 -11 0 -12 -9 -16 -110 -7 -181 0 -300 19 -312 8 -5 6 -9 -5 -13
-11 -4 -15 -16 -14 -33 2 -15 -2 -30 -8 -34 -8 -6 -7 -10 2 -17 10 -6 12 -24
9 -62 -3 -30 -6 -56 -7 -59 -1 -3 -2 -9 -1 -14 1 -4 -4 -14 -10 -22 -9 -11 -8
-14 2 -14 11 0 14 -20 14 -89 0 -49 -3 -92 -6 -95 -3 -4 -1 -39 5 -80 7 -40 9
-84 6 -97 -4 -13 -6 -48 -5 -76 0 -29 -3 -53 -8 -53 -4 0 -5 -6 -1 -12 10 -15
13 -40 13 -93 0 -66 2 -218 3 -254 2 -35 41 -86 59 -76 5 4 15 0 23 -7 11 -12
171 -14 945 -14 880 1 931 0 931 -16 0 -22 16 -23 28 -2 7 12 28 17 89 19 55
2 89 8 106 20 15 9 30 14 35 11 4 -2 8 14 8 37 -1 48 -28 82 -73 93 -16 3 -34
14 -41 22 -9 13 -34 17 -110 18 -53 1 -107 -2 -119 -7 -12 -4 -25 -5 -27 0 -7
10 -287 8 -303 -2 -7 -5 -13 -4 -13 1 0 5 -215 9 -528 8 -376 -1 -535 2 -551
10 -14 7 -19 14 -12 18 18 12 13 74 -6 85 -12 7 -14 10 -4 11 11 0 11 3 0 16
-11 13 -11 17 2 25 19 10 18 47 -1 59 -11 7 -10 11 3 25 25 24 24 115 0 115
-16 1 -16 2 -2 10 13 7 15 26 14 94 -1 54 -6 90 -15 101 -11 13 -10 18 5 29
16 12 16 13 1 19 -16 6 -23 47 -8 47 11 0 12 9 15 105 l2 80 447 2 c374 1 449
-1 459 -13 15 -18 130 -20 126 -1 -3 15 110 14 126 -2 7 -7 17 -6 31 1 15 8
21 8 24 -1 2 -7 29 -11 68 -11 51 0 64 3 64 15 0 14 3 14 24 -1 18 -11 30 -13
42 -6 9 5 25 7 35 5 11 -3 25 0 32 6 8 6 51 9 110 8 88 -3 97 -2 97 15 0 10 5
18 11 18 14 0 48 41 49 58 0 7 -7 15 -15 18 -8 4 -15 12 -15 20 0 8 -7 14 -15
14 -8 0 -15 7 -15 15 0 24 -69 48 -145 51 -147 7 -321 8 -330 2 -6 -3 -21 -4
-35 -3 -65 7 -177 8 -188 1 -6 -4 -28 -3 -47 3 -19 5 -37 6 -39 2 -3 -4 -116
-5 -253 -3 -222 4 -320 4 -448 1 -113 -3 -209 2 -196 11 12 7 12 11 2 24 -9
10 -12 31 -8 56 4 31 1 42 -11 50 -16 9 -16 11 1 24 9 7 17 21 17 30 0 18 -2
17 140 22 52 1 100 -2 106 -7 7 -6 14 -6 17 -2 3 4 73 8 156 8 83 -1 151 3
151 8 0 4 5 5 11 1 6 -3 122 -7 257 -8 196 -2 252 -5 270 -17 20 -12 24 -12
32 1 13 21 58 20 63 -1 3 -12 12 -15 35 -11 23 3 29 8 25 21 -3 10 2 8 14 -7
17 -21 24 -22 162 -20 110 2 147 5 158 17 10 9 37 14 79 15 61 0 63 1 58 23
-5 17 -2 23 10 23 23 0 23 95 0 104 -8 3 -12 10 -9 16 4 6 -10 10 -34 10 -23
0 -41 4 -41 9 0 20 -84 24 -535 22 -258 -1 -474 -2 -480 -2 -37 2 -607 6 -608
4z"/>
<path d="M12099 6252 c-8 -3 -17 -10 -21 -16 -4 -5 -17 -11 -30 -11 -40 -3
-64 -15 -78 -39 -11 -22 -42 -40 -62 -37 -4 0 -10 -10 -14 -24 -3 -14 -13 -25
-20 -25 -10 0 -13 -7 -8 -24 4 -16 1 -25 -10 -29 -9 -4 -16 -15 -16 -25 0 -11
-7 -25 -15 -32 -10 -8 -12 -17 -7 -22 10 -10 4 -48 -7 -48 -22 -1 -32 -19 -22
-38 8 -16 6 -25 -10 -46 -12 -15 -18 -34 -15 -42 7 -19 -10 -54 -38 -76 -13
-11 -16 -18 -7 -18 7 0 11 -6 8 -14 -3 -7 -1 -18 4 -23 13 -13 -1 -73 -17 -73
-14 0 -14 -25 -1 -47 5 -8 4 -13 -2 -13 -6 0 -11 -11 -11 -24 0 -14 -4 -27 -9
-30 -15 -10 -24 -102 -11 -125 6 -12 7 -21 3 -20 -31 5 -35 -2 -31 -66 2 -47
0 -65 -9 -65 -7 0 -13 -9 -13 -19 0 -11 -5 -23 -10 -26 -6 -3 -8 -16 -5 -28 3
-12 7 -40 9 -63 1 -23 6 -46 10 -52 4 -7 -7 -24 -25 -40 -29 -26 -30 -30 -21
-64 7 -26 7 -41 -2 -55 -13 -19 -13 -28 -3 -53 3 -8 6 -37 7 -65 2 -102 4
-115 14 -115 6 0 22 -12 35 -25 13 -14 31 -25 41 -25 11 0 25 -9 32 -19 12
-18 26 -20 116 -19 79 0 102 3 102 14 0 7 18 18 40 24 22 6 40 15 40 20 0 6 5
10 11 10 17 0 39 27 39 49 0 12 -5 21 -11 21 -8 0 -8 4 -2 13 6 6 11 54 11
105 0 79 -2 92 -16 92 -12 0 -14 3 -5 8 17 11 29 97 14 106 -6 4 -11 12 -11
17 0 6 5 7 10 4 7 -4 9 19 7 64 -3 50 0 77 10 91 10 15 15 50 15 120 0 74 3
100 12 100 9 0 14 20 15 63 3 88 6 106 19 119 7 7 12 29 12 50 0 24 5 41 14
44 9 4 14 20 13 51 0 27 5 48 13 53 7 4 11 16 8 27 -7 28 20 49 43 35 10 -7
26 -12 34 -12 8 0 15 -9 15 -19 0 -14 8 -21 28 -23 19 -2 28 -9 30 -26 2 -12
8 -20 13 -17 5 4 8 -4 6 -17 -1 -12 3 -23 8 -23 6 0 27 -17 47 -38 21 -20 40
-37 44 -37 3 0 15 -11 26 -25 11 -15 30 -25 45 -25 16 0 27 -7 30 -20 3 -10
13 -22 23 -25 10 -3 30 -21 45 -40 15 -21 35 -35 48 -35 24 -1 67 -32 67 -49
0 -6 8 -11 18 -11 10 0 25 -9 35 -20 9 -11 26 -20 37 -20 11 0 20 -4 20 -8 0
-12 49 -34 84 -38 16 -2 40 -11 52 -19 25 -16 114 -21 114 -6 0 5 17 5 40 -1
33 -9 44 -7 72 9 18 11 41 18 51 16 9 -3 17 0 17 6 0 6 6 11 13 11 8 0 22 9
32 20 10 11 26 20 37 20 10 0 39 20 65 45 25 25 52 45 60 45 7 0 16 6 19 14 3
8 18 16 34 20 21 4 31 13 36 31 3 14 12 25 18 25 7 0 23 11 36 25 13 14 31 25
41 25 9 0 22 7 29 15 7 8 18 15 24 15 6 0 22 14 35 30 13 16 27 27 32 24 5 -3
9 2 9 10 0 9 5 16 10 16 6 0 10 5 10 12 0 6 24 35 54 65 40 39 62 53 83 53 20
0 24 -3 14 -9 -8 -5 -10 -14 -5 -22 4 -8 9 -29 11 -48 2 -20 9 -39 18 -43 10
-6 13 -18 9 -37 -4 -18 1 -39 15 -62 24 -38 27 -69 9 -87 -7 -7 -8 -13 -2 -13
5 -1 14 -2 19 -4 6 -1 18 -3 27 -3 15 -2 15 -5 1 -33 -9 -19 -12 -34 -6 -38
17 -11 24 -44 12 -52 -9 -5 -7 -16 8 -41 15 -25 17 -41 11 -63 -4 -18 -4 -31
2 -33 14 -5 13 -42 -1 -42 -8 0 -7 -5 1 -15 9 -11 10 -19 3 -26 -12 -12 -5
-49 9 -49 5 0 6 -6 1 -12 -13 -21 -10 -72 5 -90 10 -12 14 -38 13 -83 -3 -84
4 -289 10 -305 1 -3 2 -12 3 -20 0 -8 17 -20 36 -26 19 -7 35 -18 35 -25 0
-10 16 -15 55 -16 30 -2 61 -5 68 -8 6 -2 12 -1 12 3 0 4 28 8 61 8 39 1 64 6
69 14 5 8 14 15 22 16 24 4 68 31 61 37 -3 4 2 16 12 27 13 15 16 30 13 65 -3
25 -2 47 1 50 12 7 0 74 -13 72 -7 -1 -11 22 -11 73 0 41 -4 86 -9 99 -6 16
-5 21 3 17 7 -5 9 3 4 26 -3 18 -11 36 -18 40 -7 4 -12 43 -13 103 0 53 -5
102 -11 109 -5 6 -11 38 -13 71 -2 33 -8 65 -15 70 -14 11 -20 95 -9 114 5 8
1 14 -13 18 -12 3 -21 11 -21 18 0 7 -6 16 -12 18 -10 4 -10 6 0 6 18 1 15 35
-7 62 -11 14 -21 48 -24 77 -3 29 -11 59 -17 67 -6 8 -11 22 -10 32 4 33 0 41
-20 46 -18 5 -19 9 -10 33 9 23 8 31 -4 40 -9 6 -16 20 -16 31 0 11 -7 26 -15
33 -9 7 -14 19 -11 26 3 8 -4 18 -14 24 -12 6 -20 21 -20 36 0 28 -60 94 -85
94 -8 0 -15 5 -15 10 0 6 -24 10 -52 10 -31 1 -61 7 -72 15 -22 17 -71 21 -61
5 8 -12 -38 -24 -70 -18 -14 3 -30 -1 -36 -8 -6 -8 -20 -14 -31 -14 -10 0 -29
-11 -42 -25 -13 -14 -28 -25 -34 -25 -6 0 -22 -11 -35 -25 -13 -14 -36 -29
-53 -34 -17 -4 -29 -14 -29 -24 0 -9 -35 -50 -78 -91 -42 -41 -77 -77 -77 -80
0 -11 -38 -44 -44 -39 -3 3 -12 -9 -19 -27 -10 -21 -17 -28 -22 -20 -5 8 -11
5 -19 -12 -6 -12 -16 -23 -21 -24 -37 -3 -65 -18 -65 -35 0 -10 -5 -19 -11
-19 -6 0 -26 -16 -44 -35 -19 -19 -46 -37 -60 -41 -14 -3 -25 -12 -25 -20 0
-8 -7 -14 -15 -14 -8 0 -15 -4 -15 -10 0 -5 -25 -10 -55 -10 -30 0 -55 4 -55
9 0 10 -46 42 -64 45 -20 4 -56 31 -56 43 0 6 -9 14 -19 18 -11 3 -24 19 -30
35 -5 17 -17 30 -25 30 -9 0 -16 7 -16 15 0 8 -9 15 -20 15 -21 0 -60 33 -60
50 0 5 -11 12 -24 16 -14 3 -27 12 -30 20 -3 8 -12 14 -21 14 -8 0 -15 7 -15
15 0 8 -9 15 -20 15 -13 0 -18 5 -14 15 4 8 2 15 -3 15 -16 0 -103 92 -103
109 0 5 -9 11 -21 14 -12 3 -18 10 -14 16 3 6 0 11 -7 11 -7 0 -22 13 -32 29
-13 19 -25 27 -38 23 -14 -3 -21 2 -25 17 -4 15 -13 21 -34 21 -16 0 -29 5
-29 10 0 6 -10 10 -22 10 -12 0 -29 6 -37 14 -16 14 -125 26 -152 18z"/>
</g>
</svg>
