<?xml version="1.0" standalone="no"?>
<!DOCTYPE svg PUBLIC "-//W3C//DTD SVG 20010904//EN"
 "http://www.w3.org/TR/2001/REC-SVG-20010904/DTD/svg10.dtd">
<svg version="1.0" xmlns="http://www.w3.org/2000/svg"
 width="8192.000000pt" height="2029.000000pt" viewBox="0 0 8192.000000 2029.000000"
 preserveAspectRatio="xMidYMid meet">

<g transform="translate(0.000000,2029.000000) scale(0.100000,-0.100000)"
fill="#ffffff" stroke="none">
<path d="M16328 19461 c-56 -28 -96 -40 -198 -61 -74 -15 -112 -30 -133 -52
-13 -13 -33 -18 -70 -18 -72 -1 -132 -29 -150 -72 -25 -59 -123 -126 -201
-137 -37 -6 -41 -10 -75 -77 -38 -74 -153 -220 -195 -248 -14 -9 -32 -16 -39
-16 -21 0 -83 -72 -96 -111 -6 -19 -15 -67 -20 -107 -7 -52 -17 -84 -35 -111
-20 -28 -26 -50 -26 -88 0 -59 -7 -83 -25 -83 -23 0 -65 -41 -65 -64 0 -13
-11 -40 -25 -60 -17 -25 -25 -50 -25 -81 0 -26 -6 -50 -15 -59 -8 -8 -18 -30
-22 -48 -6 -36 -29 -68 -49 -68 -21 0 -34 -59 -34 -153 0 -100 -14 -161 -43
-194 -11 -12 -19 -35 -19 -50 6 -168 4 -202 -16 -230 -21 -30 -36 -98 -48
-218 -9 -93 -15 -107 -58 -130 -30 -16 -40 -30 -51 -69 -8 -27 -15 -67 -15
-88 0 -56 -20 -130 -41 -153 -29 -32 -38 -68 -44 -177 -7 -111 -24 -175 -55
-203 -24 -21 -26 -53 -5 -61 20 -8 19 -30 -1 -38 -13 -5 -15 -15 -11 -42 6
-38 -6 -55 -66 -97 -17 -11 -29 -31 -33 -54 -4 -20 -15 -51 -26 -69 -12 -21
-23 -73 -33 -155 -10 -84 -22 -143 -39 -184 -22 -51 -26 -76 -26 -163 l0 -102
-39 -43 c-51 -56 -61 -77 -61 -130 0 -29 -7 -53 -20 -70 -11 -14 -25 -52 -31
-84 -23 -134 -31 -163 -64 -231 -33 -66 -35 -78 -34 -163 1 -90 1 -91 -33
-126 -32 -33 -33 -36 -29 -106 8 -144 7 -156 -17 -173 -29 -20 -49 -61 -63
-126 -14 -62 -52 -149 -74 -168 -8 -7 -15 -23 -15 -37 0 -13 -20 -53 -44 -89
-50 -72 -62 -126 -54 -237 6 -73 -5 -103 -42 -115 -20 -8 -30 -21 -39 -54 -7
-25 -26 -60 -42 -79 -29 -34 -35 -66 -29 -149 5 -77 67 -160 119 -160 22 0 39
-39 26 -60 -4 -6 0 -21 8 -34 9 -12 17 -36 19 -52 3 -32 25 -45 133 -85 55
-20 107 -59 117 -89 2 -7 21 -12 42 -12 29 0 44 6 60 25 11 14 42 34 68 45 51
22 62 37 73 97 5 29 18 50 48 78 39 36 42 41 45 105 4 73 -10 142 -33 166 -21
21 -18 36 15 80 17 22 30 47 30 57 0 10 7 25 16 33 25 26 34 74 34 186 1 139
12 188 53 222 l32 26 -25 27 -25 26 22 17 c12 9 26 34 31 55 6 21 24 53 41 73
29 32 31 40 31 112 0 85 6 97 73 146 l38 28 -21 24 c-30 31 -21 77 25 135 21
27 33 51 29 61 -3 10 2 34 12 53 16 34 16 37 0 48 -26 19 -10 44 45 69 26 13
51 32 55 42 10 31 6 97 -11 151 -20 68 -19 74 13 86 70 27 132 122 140 219 3
30 11 64 18 75 8 12 12 43 11 72 -2 55 16 82 55 83 22 0 32 38 24 85 -5 25 0
50 19 94 28 66 35 176 13 210 -10 16 -6 26 30 66 26 30 42 58 42 74 0 14 9 41
20 59 12 19 20 50 20 75 0 36 5 47 30 65 19 15 31 34 36 59 3 21 24 76 46 123
30 64 42 103 48 162 4 43 12 84 17 90 12 16 29 83 43 168 13 80 27 117 57 153
12 15 28 45 34 67 9 29 19 42 40 49 32 11 36 23 14 41 -20 16 -19 30 3 46 14
10 17 26 15 91 -2 78 -2 78 30 98 28 18 33 27 37 74 6 57 22 77 90 114 l32 17
-3 123 -4 122 25 3 c32 5 57 27 64 57 3 13 15 27 27 30 11 4 50 33 86 66 65
59 65 59 127 59 33 -1 87 -7 120 -15 52 -12 66 -22 130 -87 39 -40 91 -89 115
-108 37 -30 44 -42 51 -85 5 -28 34 -105 65 -170 67 -140 70 -148 85 -196 7
-25 24 -45 51 -64 43 -28 59 -57 79 -145 7 -30 23 -69 36 -86 13 -17 20 -34
17 -38 -4 -3 9 -22 28 -41 19 -19 48 -63 63 -97 16 -35 52 -112 82 -173 29
-60 58 -137 64 -170 9 -44 23 -74 53 -113 39 -51 40 -54 27 -91 -14 -45 -10
-58 55 -141 50 -65 85 -131 85 -161 0 -26 36 -79 54 -79 28 0 48 -36 41 -74
-7 -33 -4 -39 31 -72 39 -35 39 -36 43 -119 3 -82 4 -85 37 -110 19 -14 43
-45 53 -68 11 -23 31 -53 45 -66 23 -22 26 -30 20 -72 -6 -46 -6 -48 32 -72
51 -32 60 -43 74 -97 24 -96 33 -116 64 -150 24 -26 36 -52 45 -100 17 -85 55
-164 92 -191 29 -20 30 -24 24 -74 -7 -52 -7 -52 40 -100 46 -46 47 -49 42
-95 -7 -54 4 -70 44 -70 43 0 52 -20 44 -104 l-7 -75 36 -37 c24 -24 43 -59
55 -98 11 -34 31 -86 45 -116 14 -30 26 -65 26 -77 0 -12 17 -39 39 -61 32
-31 40 -48 46 -93 4 -29 16 -66 26 -80 11 -15 18 -42 17 -68 0 -33 7 -51 31
-81 18 -23 35 -59 40 -85 10 -53 7 -49 46 -62 26 -8 30 -15 33 -52 3 -38 8
-45 52 -74 51 -33 102 -106 120 -168 6 -19 10 -63 10 -98 0 -63 1 -64 49 -113
33 -33 54 -46 65 -42 9 4 37 1 62 -6 39 -11 47 -11 55 1 5 8 9 69 9 137 l0
122 28 13 c35 15 40 23 35 52 -4 17 2 27 27 41 44 27 92 127 95 198 1 43 6 59
23 73 16 12 25 36 32 77 5 32 17 70 27 85 30 45 43 73 43 93 0 34 22 102 40
123 31 36 33 48 40 162 5 96 9 117 28 140 36 45 93 171 101 221 5 41 11 50 43
67 24 12 42 31 48 50 6 17 33 51 61 77 37 34 50 52 47 69 -3 24 -11 30 -81 54
-59 21 -76 48 -50 77 14 15 19 40 22 104 1 47 0 96 -3 110 -6 22 -11 25 -44
22 l-37 -3 -3 43 c-3 38 -7 45 -33 54 -26 9 -29 14 -29 53 0 29 -11 63 -35
109 -19 37 -35 77 -35 89 -1 23 -19 60 -58 118 -15 23 -21 43 -18 61 7 33 -2
58 -19 58 -7 0 -24 9 -39 21 -24 19 -26 27 -26 90 0 82 -7 100 -54 127 l-35
21 6 64 c6 69 -2 86 -36 68 -27 -15 -31 2 -31 120 l0 99 -34 0 c-58 0 -110 80
-122 189 -8 64 -27 109 -52 118 -31 11 -52 36 -52 63 0 14 -13 44 -30 66 -20
27 -30 51 -30 77 0 21 -7 49 -16 62 -10 15 -19 59 -23 111 -6 74 -10 89 -30
105 -13 11 -30 19 -37 19 -11 0 -14 13 -13 52 1 29 -2 53 -7 55 -5 2 -24 12
-41 23 -25 15 -34 29 -39 60 -4 22 -24 67 -45 100 -22 32 -39 69 -39 80 0 24
-23 71 -55 115 -12 17 -26 47 -29 68 -5 25 -19 48 -42 69 -34 31 -35 34 -32
100 2 63 0 71 -24 91 -31 27 -48 74 -48 137 0 35 -7 56 -28 86 -16 21 -39 66
-52 98 -13 33 -48 95 -77 140 -29 44 -55 96 -59 115 -9 57 -21 81 -39 75 -30
-12 -45 15 -45 82 0 87 -11 111 -54 120 -40 7 -61 27 -52 49 3 9 -7 29 -24 49
-20 22 -34 52 -40 87 -6 29 -13 55 -15 58 -3 3 -35 7 -70 9 -36 2 -65 7 -65
10 0 3 14 21 32 39 l32 33 -35 36 c-18 19 -62 49 -96 66 -43 21 -63 37 -63 49
0 46 -124 139 -186 139 -16 0 -26 11 -37 39 -9 21 -23 41 -31 44 -8 3 -22 21
-30 40 -19 46 -51 67 -103 67 -24 0 -62 9 -86 19 -75 34 -109 41 -196 42 -118
1 -164 15 -193 59 -21 31 -29 35 -73 37 -38 2 -63 -4 -107 -26z m-1118 -2361
c0 -10 -6 -22 -12 -27 -22 -16 -87 -34 -98 -28 -13 8 17 60 49 86 23 18 25 18
43 3 10 -10 18 -25 18 -34z"/>
<path d="M22380 16180 c-119 -8 -143 -13 -172 -37 -9 -8 -44 -21 -78 -29 -38
-9 -76 -26 -98 -44 -26 -21 -47 -30 -74 -30 -28 0 -40 -5 -48 -21 -7 -11 -37
-32 -68 -45 -93 -40 -104 -47 -163 -91 -62 -47 -106 -94 -120 -130 -5 -13 -30
-38 -56 -56 -91 -63 -121 -95 -137 -151 -16 -52 -33 -80 -91 -144 -41 -46 -54
-72 -55 -109 0 -23 -8 -37 -28 -52 -45 -31 -74 -100 -106 -247 -20 -89 -20
-100 -1 -108 25 -9 17 -26 -20 -42 -19 -8 -35 -15 -36 -17 -1 -1 -4 -55 -8
-119 -6 -115 -7 -118 -39 -151 -26 -27 -32 -41 -32 -76 0 -45 -18 -79 -74
-139 -30 -32 -31 -36 -29 -115 3 -76 0 -87 -32 -151 -28 -57 -35 -81 -35 -130
0 -67 -4 -77 -37 -95 -31 -16 -43 -69 -43 -183 l0 -97 -30 -16 c-16 -8 -36
-15 -45 -15 -25 0 -27 -22 -5 -65 39 -77 21 -240 -34 -305 -14 -17 -28 -46
-32 -65 -3 -19 -23 -54 -43 -77 -59 -70 -61 -78 -61 -208 0 -111 -2 -121 -22
-138 -58 -46 -68 -61 -68 -101 0 -47 -15 -91 -36 -108 -19 -14 -44 -104 -44
-163 -1 -63 -27 -111 -73 -133 -42 -19 -46 -37 -18 -73 19 -24 19 -27 3 -70
-16 -43 -16 -44 6 -60 30 -21 28 -42 -9 -80 -36 -37 -48 -83 -49 -175 0 -96
-15 -160 -49 -214 -16 -26 -38 -72 -47 -103 -24 -81 -41 -110 -69 -125 l-25
-13 31 -37 31 -38 -25 -47 c-14 -26 -35 -83 -47 -126 -23 -88 -37 -118 -73
-159 -20 -23 -26 -44 -31 -109 -12 -148 -17 -165 -53 -207 -77 -91 -159 -300
-174 -446 -17 -173 -11 -159 -99 -225 -23 -16 -25 -27 -30 -107 -5 -85 -6 -88
-30 -91 -44 -6 -50 -19 -50 -103 0 -86 -9 -118 -44 -160 -13 -15 -27 -48 -31
-74 -5 -38 -12 -50 -36 -63 -27 -16 -29 -21 -29 -75 0 -44 -5 -65 -20 -84 -11
-14 -23 -43 -26 -64 -4 -21 -15 -46 -25 -55 -16 -14 -19 -32 -19 -101 0 -77
-2 -86 -25 -108 -28 -25 -45 -72 -45 -121 0 -51 -20 -93 -51 -110 -26 -13 -29
-19 -29 -66 0 -28 -5 -68 -11 -87 -13 -39 -48 -113 -59 -121 -19 -15 -32 -75
-26 -117 5 -37 2 -52 -16 -81 -12 -19 -25 -58 -29 -85 -6 -35 -17 -58 -34 -74
-42 -39 -55 -86 -55 -192 l0 -97 -35 -17 c-46 -22 -58 -56 -51 -134 11 -107
68 -211 129 -236 44 -19 293 -41 359 -33 108 14 119 17 129 44 5 14 14 80 19
147 10 125 28 200 61 247 12 16 19 43 19 73 0 36 7 56 31 89 21 31 33 61 39
107 7 47 15 69 31 82 l22 18 -23 24 -23 24 65 68 c85 88 93 105 68 128 -27 24
-25 39 5 59 30 19 51 67 60 133 12 84 25 113 65 139 46 31 53 46 35 71 -32 42
-4 103 47 103 22 0 22 4 2 35 -23 36 -11 88 27 118 l30 23 -18 32 -18 32 33
26 c31 25 32 28 32 102 1 113 12 158 50 197 31 32 33 37 27 85 -6 48 -4 53 28
88 28 32 35 49 44 111 8 61 15 79 40 105 22 22 31 42 31 64 0 18 7 44 16 57 9
14 14 35 11 47 -5 16 3 30 28 54 31 29 34 38 33 79 -2 35 2 49 15 56 22 13 22
28 -3 55 l-21 21 27 32 c14 17 47 41 72 53 l46 21 -48 42 c-52 45 -53 60 -7
70 42 9 61 35 59 81 0 22 4 49 10 61 7 12 12 54 12 93 0 68 1 72 40 114 37 39
39 45 25 59 -8 9 -15 20 -15 26 0 17 36 31 77 31 44 0 83 23 83 49 0 10 -11
28 -25 41 -36 34 -31 66 20 144 41 63 45 75 45 130 0 52 5 69 35 116 29 45 35
63 35 111 0 68 13 109 56 172 45 65 53 111 25 141 -30 31 -27 44 24 105 44 54
65 113 65 180 0 30 34 81 54 81 21 0 55 30 50 45 -3 7 -19 18 -35 24 -16 5
-29 14 -29 19 0 5 17 29 39 53 50 58 71 100 71 145 0 20 12 62 28 93 25 52 27
67 30 196 l3 140 43 40 c42 39 43 42 49 118 5 65 11 86 38 128 19 30 34 68 37
96 4 39 9 47 33 57 32 11 36 25 17 57 -10 17 -10 23 -1 26 6 2 30 17 52 34
l41 29 0 118 c0 139 13 176 75 208 l40 21 -3 75 -4 75 39 19 38 19 3 82 c3 80
3 82 41 116 21 19 47 39 57 45 18 10 18 11 1 29 -26 30 -21 67 18 115 65 80
94 130 106 182 9 42 17 55 40 65 19 8 32 24 38 47 23 82 172 214 242 214 20 0
42 7 49 15 16 20 22 19 86 -10 30 -14 58 -25 62 -25 4 0 41 -29 82 -65 41 -36
81 -65 88 -65 14 0 16 -46 2 -55 -5 -3 -10 -19 -10 -34 0 -21 10 -36 35 -55
42 -33 67 -80 84 -161 7 -33 26 -86 42 -118 17 -35 29 -73 29 -97 0 -33 4 -40
19 -40 25 0 127 -111 134 -147 3 -15 21 -48 40 -73 26 -33 38 -63 47 -113 9
-47 23 -84 46 -117 19 -27 34 -55 34 -62 0 -7 -12 -33 -26 -58 l-26 -45 24
-18 c13 -10 38 -28 57 -40 28 -18 37 -32 46 -72 6 -27 18 -66 27 -85 25 -55
38 -100 38 -132 0 -16 11 -49 24 -74 20 -38 23 -55 19 -99 -5 -52 -5 -54 36
-97 46 -46 71 -95 71 -137 1 -33 18 -64 51 -90 20 -15 28 -33 33 -69 5 -38 18
-65 61 -121 50 -66 55 -78 55 -123 0 -63 17 -99 86 -179 80 -93 86 -107 69
-156 -21 -60 5 -145 47 -156 25 -7 38 -48 38 -121 0 -74 12 -115 52 -173 15
-23 28 -53 28 -66 0 -13 12 -41 26 -62 14 -21 29 -60 33 -86 6 -35 18 -59 44
-89 41 -45 45 -64 20 -93 -17 -19 -17 -20 11 -41 64 -45 75 -64 78 -129 3 -62
3 -62 50 -92 50 -32 61 -55 28 -55 -11 0 -20 -4 -20 -8 0 -4 9 -25 20 -47 11
-22 20 -52 20 -68 0 -39 17 -67 41 -67 23 0 36 -27 20 -43 -15 -15 -14 -72 2
-85 6 -6 24 -13 39 -17 33 -8 41 -39 32 -113 l-7 -54 44 -38 c41 -35 44 -41
42 -85 -1 -44 0 -47 33 -61 19 -8 43 -29 54 -47 10 -17 26 -40 36 -49 10 -11
14 -25 11 -39 -4 -14 3 -38 19 -64 13 -23 24 -53 24 -67 0 -46 32 -133 66
-181 38 -53 44 -91 15 -107 -32 -17 -36 -48 -10 -76 12 -13 28 -24 35 -24 18
0 80 -73 108 -128 13 -26 31 -74 39 -105 8 -31 29 -75 46 -98 l31 -42 -20 -32
c-11 -18 -20 -40 -20 -48 0 -21 35 -43 83 -51 32 -6 37 -10 31 -24 -26 -57
-13 -154 33 -260 12 -28 25 -71 28 -93 3 -25 17 -56 35 -79 38 -47 40 -69 5
-46 -16 10 -25 12 -25 5 0 -27 64 -141 104 -185 40 -45 44 -54 48 -114 3 -50
10 -74 31 -105 18 -26 27 -53 27 -78 0 -21 7 -51 15 -67 23 -45 43 -111 50
-170 9 -68 25 -94 73 -119 20 -10 68 -40 105 -65 60 -40 75 -46 122 -46 50 0
55 2 85 40 17 22 40 40 50 40 26 0 90 68 97 102 3 16 20 40 37 54 47 40 55 62
56 153 0 83 0 83 38 120 38 38 62 103 92 246 21 105 38 142 70 155 36 15 37
20 5 48 -33 29 -31 46 8 71 57 35 71 56 59 89 -12 35 -6 47 31 56 62 15 101
94 62 126 -22 18 -19 29 11 40 23 9 25 14 20 44 -7 38 5 56 51 75 32 13 53 56
53 108 0 20 7 35 21 45 19 12 22 22 20 85 -2 70 -1 71 32 92 21 13 47 46 73
92 21 39 49 78 61 87 20 13 23 23 23 84 0 63 4 78 40 143 27 49 40 85 40 111
0 32 7 46 47 86 46 46 46 48 28 68 -15 17 -17 28 -9 82 8 55 12 63 34 68 17 4
33 21 50 55 21 41 33 52 70 66 52 19 62 41 25 57 -32 15 -34 55 -3 77 19 13
21 18 10 35 -18 29 -15 42 19 88 17 24 33 60 36 83 4 30 12 43 29 49 30 12 64
46 64 64 0 8 -9 18 -20 21 -30 10 -25 44 8 50 68 14 73 22 76 120 2 64 9 106
25 143 11 29 21 64 21 77 0 13 18 52 40 86 22 34 45 77 52 95 9 25 21 37 47
45 20 7 41 18 49 25 23 24 124 48 199 49 60 0 76 -4 100 -23 15 -12 51 -33 79
-46 28 -13 67 -41 85 -61 19 -20 50 -45 69 -54 43 -20 59 -52 71 -144 13 -91
27 -137 44 -137 16 0 25 -22 25 -62 0 -16 8 -42 19 -56 30 -43 56 -94 71 -141
11 -33 22 -47 45 -57 53 -22 70 -90 40 -160 -14 -35 -14 -36 15 -62 16 -15 38
-48 48 -73 14 -32 34 -56 63 -75 41 -28 43 -32 55 -104 22 -127 82 -267 138
-319 14 -14 26 -34 26 -45 0 -11 12 -32 26 -47 22 -23 28 -41 34 -104 7 -68
11 -80 41 -111 30 -31 33 -41 36 -102 6 -100 7 -103 83 -187 89 -98 102 -136
69 -194 -29 -53 -20 -70 46 -92 31 -10 51 -23 56 -36 10 -29 -8 -94 -32 -115
-38 -32 -20 -57 52 -72 23 -5 28 -13 38 -66 8 -41 22 -71 42 -94 19 -22 29
-45 29 -64 0 -17 13 -52 30 -78 30 -47 39 -72 60 -153 6 -24 23 -54 37 -67 20
-19 27 -37 33 -94 9 -84 36 -124 94 -140 30 -9 94 -198 79 -237 -10 -27 7 -61
38 -73 38 -16 63 -52 54 -79 -9 -29 9 -56 60 -91 25 -17 45 -36 45 -43 -1 -7
-14 -28 -30 -47 -24 -27 -30 -44 -30 -81 0 -53 7 -71 97 -259 64 -134 74 -171
59 -222 -7 -24 -3 -29 33 -52 31 -20 43 -35 52 -68 24 -91 33 -98 124 -97 97
0 191 54 197 112 l3 32 94 12 c64 9 107 21 135 37 42 24 132 46 192 46 18 0
75 13 126 30 51 16 104 30 118 30 14 0 50 12 80 27 46 23 71 27 189 34 75 4
206 9 291 9 85 1 166 5 180 9 27 8 45 37 55 92 6 33 4 37 -24 48 -31 13 -35
23 -46 111 -14 108 -67 241 -116 292 -16 17 -29 36 -29 42 0 34 -24 87 -58
128 -23 27 -44 66 -51 95 -21 86 -33 117 -61 158 -50 75 -73 136 -100 258 -12
53 -28 99 -39 111 -11 12 -25 44 -32 71 -15 59 -25 74 -55 86 -21 7 -22 13
-17 63 l6 54 -42 21 c-37 19 -41 25 -41 59 0 24 -10 52 -30 82 -20 30 -30 58
-30 83 0 21 -7 49 -16 62 -15 23 -15 27 1 51 19 29 16 35 -28 50 -49 17 -66
49 -77 148 -12 104 -22 125 -89 191 -48 47 -51 52 -51 101 0 67 -27 129 -89
206 -38 47 -52 73 -56 107 -8 55 -22 97 -47 133 -22 31 -23 86 -3 112 24 32
18 43 -37 79 -74 47 -85 64 -90 128 -4 46 -11 65 -39 100 -65 80 -119 216
-119 297 0 40 -5 49 -56 100 -60 58 -102 136 -111 201 -3 23 -1 41 6 45 17 11
13 52 -6 67 -9 8 -30 14 -47 14 -40 0 -49 35 -15 59 l23 16 -24 42 c-16 29
-24 59 -25 102 -1 69 -7 84 -40 96 -23 9 -45 59 -45 102 0 9 -16 25 -35 37
-33 19 -35 24 -30 55 8 40 -8 75 -66 142 -51 59 -59 80 -68 181 -7 72 -12 86
-40 118 -17 20 -31 47 -31 60 0 20 -13 33 -56 61 -49 31 -55 39 -49 61 5 20
-4 34 -50 81 -31 31 -66 76 -78 101 -24 51 -123 161 -173 191 -24 16 -37 33
-45 63 -14 53 -21 61 -79 93 -28 15 -51 35 -54 48 -9 36 -64 93 -110 116 -24
11 -52 33 -61 48 -25 38 -56 62 -84 62 -14 0 -43 12 -64 27 -39 27 -43 28
-251 36 -255 10 -669 1 -700 -15 -11 -6 -36 -24 -54 -39 -22 -20 -44 -29 -66
-29 -19 0 -39 -7 -47 -16 -17 -21 -74 -48 -134 -64 -53 -14 -85 -35 -85 -56 0
-22 -128 -152 -213 -216 l-79 -60 22 -24 c28 -29 20 -54 -18 -54 -50 0 -93
-68 -122 -190 -18 -79 -30 -102 -85 -166 -62 -70 -105 -133 -105 -151 0 -8 9
-35 21 -60 20 -45 20 -47 3 -60 -10 -7 -24 -13 -31 -13 -20 0 -60 -96 -73
-174 -6 -40 -21 -83 -33 -100 -17 -25 -23 -48 -25 -111 -4 -110 -6 -118 -57
-175 -25 -28 -45 -59 -45 -70 0 -19 -25 -42 -90 -83 -43 -28 -49 -57 -21 -113
20 -39 21 -46 7 -78 -8 -19 -23 -39 -34 -45 -15 -8 -22 -25 -27 -65 -5 -39
-14 -61 -32 -78 -37 -34 -53 -72 -53 -123 0 -46 -30 -124 -56 -146 -8 -6 -14
-21 -14 -33 0 -11 -11 -45 -25 -74 -30 -64 -50 -66 -80 -6 -11 22 -32 56 -47
75 -14 19 -30 50 -35 69 -6 24 -22 43 -54 65 -54 39 -63 73 -25 106 37 33 33
55 -17 86 -45 27 -57 46 -77 128 -7 28 -30 80 -51 116 -23 38 -39 78 -39 97 0
21 -9 39 -27 56 -21 20 -28 38 -34 92 -9 71 -45 146 -79 164 -13 7 -20 21 -20
39 0 27 -26 61 -46 61 -22 0 -54 42 -54 71 0 21 -11 41 -35 66 -35 37 -39 46
-49 114 -2 20 -15 61 -29 90 -13 30 -32 88 -42 129 -15 59 -26 82 -57 114 -29
31 -38 48 -38 76 0 21 -13 57 -32 90 -60 107 -85 166 -98 230 -6 35 -25 89
-40 120 -16 30 -34 75 -40 99 -6 24 -22 54 -36 68 -19 19 -27 41 -34 96 -5 40
-10 76 -10 80 0 4 -13 13 -30 18 -24 9 -31 18 -35 47 -16 107 -28 145 -56 176
-18 22 -29 45 -29 64 0 22 -8 36 -28 51 -20 14 -38 45 -61 108 -39 103 -125
276 -146 293 -20 17 -19 49 6 115 19 52 20 58 4 74 -9 10 -36 24 -61 31 -48
14 -64 33 -64 75 0 33 -17 65 -34 65 -26 0 -38 30 -46 116 -7 86 -16 104 -53
117 -6 2 -11 28 -12 59 0 51 -4 59 -47 106 -81 91 -134 264 -122 399 7 80 -2
103 -41 103 -43 0 -61 53 -39 115 21 61 18 73 -23 92 -30 14 -39 24 -41 48 -5
60 -14 76 -78 147 -85 95 -97 117 -88 174 l6 44 -45 0 c-66 0 -94 14 -114 57
-13 28 -35 47 -83 75 -84 48 -169 123 -182 159 -11 32 -84 79 -171 109 -33 12
-53 25 -56 37 -4 23 -19 33 -51 33 -14 0 -40 9 -57 20 -18 11 -61 24 -95 29
-92 14 -366 20 -498 11z m8291 -6860 c21 -12 26 -40 6 -40 -7 0 -23 7 -36 16
-18 13 -20 18 -10 25 18 11 17 11 40 -1z"/>
<path d="M10835 16141 c-22 -11 -74 -27 -117 -35 -92 -19 -120 -29 -137 -49
-7 -9 -27 -19 -44 -22 -52 -11 -165 -75 -197 -111 -16 -19 -38 -34 -48 -34
-51 0 -171 -99 -207 -171 -22 -42 -54 -79 -71 -79 -31 0 -104 -136 -104 -193
0 -26 -13 -41 -79 -89 -24 -18 -55 -53 -68 -78 -35 -63 -69 -101 -115 -128
-38 -23 -38 -24 -33 -70 6 -40 3 -52 -19 -81 -14 -19 -26 -46 -26 -61 0 -14
-13 -41 -29 -60 -53 -65 -78 -182 -46 -223 18 -24 7 -51 -54 -132 l-46 -60 3
-85 3 -86 -35 -32 c-20 -18 -38 -45 -41 -60 -3 -15 -28 -72 -57 -127 -60 -118
-78 -177 -78 -265 0 -88 -15 -136 -60 -195 -71 -94 -72 -116 -10 -129 51 -10
38 -42 -68 -160 -50 -56 -53 -62 -47 -98 6 -33 2 -43 -25 -78 -24 -30 -33 -53
-35 -86 -2 -25 -12 -57 -22 -72 -42 -63 -45 -75 -38 -153 8 -90 -1 -114 -51
-135 -39 -16 -69 -71 -59 -105 11 -33 -4 -57 -43 -70 -52 -16 -65 -28 -51 -45
7 -9 9 -32 6 -62 -24 -193 -40 -246 -137 -457 -57 -124 -70 -159 -76 -207 -4
-29 -12 -62 -18 -73 -6 -11 -11 -37 -11 -57 -1 -25 -9 -46 -24 -62 -17 -18
-25 -42 -30 -82 -5 -53 -9 -58 -34 -65 -56 -15 -73 -53 -42 -95 33 -43 11
-111 -49 -154 -34 -24 -35 -28 -36 -85 0 -65 23 -188 45 -241 18 -45 86 -116
146 -154 29 -19 49 -39 49 -50 0 -18 22 -39 123 -114 71 -54 120 -68 222 -64
l80 3 7 54 c3 29 22 85 41 125 19 39 40 94 46 123 6 28 20 70 32 92 16 31 24
76 34 178 14 146 21 163 72 163 27 0 31 25 7 51 -15 17 -13 20 30 46 25 15 46
31 46 35 0 4 -10 16 -22 28 -17 16 -19 23 -10 32 8 8 12 47 12 109 l0 97 46
44 c38 36 45 48 43 78 -3 55 -1 60 26 60 41 0 47 27 39 176 l-7 134 45 43 c31
28 48 54 53 77 11 60 15 69 34 75 29 9 41 50 41 139 0 57 -5 88 -15 102 -23
31 -18 42 30 64 50 23 65 44 65 93 0 19 7 40 16 48 26 21 46 70 41 98 -3 15 1
33 10 43 13 14 13 21 -1 62 -35 103 -11 165 59 152 28 -6 37 -3 42 10 4 10 2
19 -5 22 -22 7 -12 37 29 87 50 60 79 124 79 173 0 47 17 109 33 119 28 18 38
45 46 118 6 52 15 84 28 98 22 25 43 71 43 93 0 8 9 33 20 54 11 22 29 57 39
78 13 25 19 57 18 93 0 37 6 65 19 88 46 81 53 98 54 131 1 100 112 296 201
355 29 19 39 32 39 52 0 40 26 61 101 83 57 17 91 20 206 18 l138 -3 6 -55 c9
-84 31 -123 92 -168 29 -22 59 -53 65 -69 5 -15 15 -79 21 -141 12 -128 20
-149 58 -154 35 -4 69 -70 76 -147 4 -54 20 -92 68 -168 13 -20 21 -51 22 -89
2 -52 5 -59 32 -74 25 -14 31 -25 37 -65 7 -52 17 -82 56 -165 14 -32 27 -80
30 -115 3 -44 11 -69 30 -95 33 -45 69 -76 104 -91 35 -14 35 -24 1 -54 -27
-22 -27 -24 -10 -43 15 -16 17 -29 11 -67 -7 -51 2 -65 42 -65 34 0 48 -27 59
-109 l10 -75 45 -16 45 -16 6 -59 c5 -46 12 -63 30 -76 49 -36 59 -50 59 -78
0 -15 9 -40 21 -55 14 -17 25 -55 33 -111 10 -67 18 -92 38 -113 39 -41 48
-66 48 -128 0 -43 6 -68 26 -101 14 -24 34 -69 44 -99 11 -30 28 -68 40 -84
13 -18 26 -63 35 -122 19 -121 23 -136 55 -183 15 -22 45 -76 68 -120 22 -44
54 -92 71 -107 17 -15 42 -49 55 -75 13 -27 34 -54 45 -61 17 -10 21 -22 21
-62 0 -42 4 -52 26 -66 14 -10 33 -33 42 -53 16 -34 20 -36 80 -42 49 -5 69
-12 90 -32 15 -15 43 -32 62 -38 56 -19 108 -56 210 -147 56 -50 120 -97 155
-113 58 -27 82 -34 238 -59 37 -6 93 -24 125 -40 52 -26 71 -30 227 -40 94 -6
215 -21 270 -33 94 -20 125 -22 535 -21 410 0 440 1 520 21 47 12 132 27 190
33 135 14 202 27 267 51 42 15 58 16 77 8 33 -15 68 -5 109 30 45 41 77 108
91 199 8 52 21 89 37 111 24 32 24 33 4 46 -43 30 -45 35 -45 110 0 78 10 118
39 150 27 30 31 66 41 376 7 252 11 293 29 335 31 76 41 144 41 279 l0 124
-29 15 c-16 9 -31 27 -35 40 -14 56 -93 59 -174 7 -27 -17 -77 -37 -116 -45
-44 -9 -77 -23 -94 -39 -40 -37 -66 -47 -119 -47 -87 0 -255 -42 -318 -80 -43
-26 -106 -41 -215 -51 -137 -13 -179 -22 -240 -52 -100 -50 -195 -48 -255 5
-33 28 -42 31 -147 39 -76 6 -120 14 -139 26 -123 79 -173 101 -278 123 -30 6
-69 21 -86 34 -32 25 -70 90 -80 139 -4 19 -17 32 -43 45 -28 13 -38 24 -40
45 -2 17 -19 44 -43 67 -38 37 -40 42 -43 104 -2 57 -6 70 -35 106 -25 32 -35
55 -40 98 -4 32 -14 68 -23 82 -35 53 -108 315 -108 386 0 31 -7 43 -44 77
-34 30 -48 52 -58 89 -8 31 -21 57 -36 67 -12 9 -32 23 -44 32 l-21 16 23 31
c20 27 22 35 12 57 -7 14 -20 25 -31 25 -31 0 -36 17 -42 136 -5 105 -7 114
-39 164 -19 29 -41 67 -49 84 -9 17 -20 30 -26 29 -17 -2 -45 17 -45 30 0 8
-11 36 -24 64 -14 27 -32 76 -41 109 -19 64 -39 94 -64 94 -30 0 -61 30 -61
59 0 19 -16 46 -50 85 -60 69 -67 91 -46 153 27 78 22 97 -26 119 l-43 19 -1
95 c-1 109 -19 160 -85 248 -42 56 -78 126 -79 153 0 9 -9 24 -19 33 -11 10
-21 28 -23 40 -2 17 -11 22 -45 24 -35 3 -43 7 -43 23 0 11 -22 42 -50 68 -27
26 -50 57 -50 67 0 10 -16 32 -35 47 -19 15 -35 37 -35 47 0 21 -24 27 -35 9
-4 -5 -14 -9 -23 -7 -14 3 -17 16 -17 75 0 65 -3 75 -31 110 -42 52 -94 79
-167 88 -79 9 -111 22 -174 76 -55 48 -114 69 -188 69 -27 0 -57 7 -72 18 -23
14 -56 17 -213 20 -168 3 -189 1 -225 -17z"/>
<path d="M11268 13086 c-10 -7 -18 -16 -18 -19 0 -13 42 -28 60 -22 25 8 26
31 1 45 -24 12 -22 12 -43 -4z"/>
<path d="M5035 12933 c-11 -3 -31 -13 -45 -22 -53 -36 -81 -41 -225 -41 -198
0 -310 -26 -317 -72 -3 -24 -23 -33 -91 -43 -42 -7 -56 -28 -39 -56 18 -28 15
-38 -15 -51 -52 -22 -83 -49 -103 -89 -14 -26 -29 -41 -48 -45 -33 -8 -94 -54
-141 -108 -19 -23 -60 -65 -91 -95 -49 -48 -55 -59 -55 -94 0 -39 -2 -41 -60
-71 -80 -42 -125 -106 -125 -178 0 -57 -18 -98 -54 -122 -16 -10 -26 -26 -26
-40 0 -20 -13 -48 -66 -147 -8 -14 -22 -67 -33 -117 -11 -58 -28 -107 -45
-132 -14 -22 -26 -47 -26 -57 0 -9 -21 -60 -46 -112 -27 -55 -49 -115 -51
-141 -2 -25 -14 -63 -25 -84 -16 -29 -22 -64 -26 -135 -4 -85 -8 -101 -33
-140 -18 -27 -29 -58 -29 -79 0 -19 -15 -66 -34 -105 -18 -40 -37 -88 -40
-107 -11 -55 -27 -91 -61 -140 -17 -25 -42 -72 -54 -105 -12 -33 -33 -81 -46
-108 -31 -58 -31 -56 0 -123 14 -30 25 -63 25 -73 0 -11 -17 -36 -39 -56 -33
-31 -39 -45 -45 -92 -8 -69 -25 -102 -70 -137 -47 -35 -57 -55 -67 -138 -7
-53 -16 -80 -41 -116 -32 -45 -33 -50 -31 -132 4 -118 1 -124 -49 -139 -43
-13 -78 -37 -78 -52 0 -5 16 -15 35 -23 32 -14 35 -19 35 -54 0 -83 -61 -238
-119 -306 -35 -41 -38 -49 -44 -126 -4 -49 -13 -92 -22 -104 -8 -12 -22 -31
-32 -44 -9 -13 -22 -64 -30 -113 -8 -56 -23 -108 -39 -140 -15 -27 -29 -71
-31 -97 -7 -68 -20 -97 -51 -108 -24 -8 -27 -15 -28 -59 -1 -50 -25 -110 -67
-166 -12 -17 -26 -67 -38 -136 -10 -59 -24 -126 -30 -148 -6 -22 -15 -87 -19
-145 -9 -130 -32 -202 -82 -252 -38 -38 -38 -39 -38 -119 0 -92 -7 -109 -53
-138 -61 -38 -104 -159 -73 -206 9 -13 16 -40 16 -58 0 -19 6 -39 13 -45 17
-14 123 -30 212 -32 120 -2 138 -9 154 -59 10 -30 11 -49 4 -60 -13 -21 -71
-40 -165 -53 -65 -9 -84 -8 -127 6 -42 13 -62 15 -114 6 -34 -5 -85 -10 -113
-10 -80 0 -211 -28 -294 -63 -52 -22 -89 -31 -120 -29 -47 2 -66 -4 -165 -48
-75 -34 -250 -100 -265 -100 -22 0 -91 -42 -140 -85 -28 -25 -68 -54 -90 -65
-49 -25 -60 -45 -53 -98 5 -40 4 -42 -20 -42 -18 0 -34 -11 -54 -37 -23 -30
-28 -45 -26 -87 1 -28 2 -89 2 -134 0 -53 8 -111 21 -158 11 -41 20 -103 20
-138 0 -58 -3 -67 -26 -85 -25 -20 -26 -25 -22 -79 7 -71 59 -192 87 -199 41
-11 33 -58 -11 -65 -12 -2 -25 -13 -29 -26 -7 -18 -3 -28 16 -48 35 -35 34
-114 -1 -209 -41 -109 -42 -122 -5 -156 24 -21 31 -34 26 -50 -4 -11 0 -30 9
-44 9 -14 16 -45 16 -74 0 -46 2 -50 37 -71 21 -12 43 -31 51 -41 26 -37 110
-12 147 45 18 27 27 32 105 52 105 28 184 95 159 135 -16 26 -10 30 44 27 52
-3 52 -3 52 27 0 26 5 31 40 42 22 7 53 15 69 18 17 4 50 27 77 55 54 55 58
57 186 64 99 5 133 16 133 45 0 10 8 28 18 40 16 20 30 22 262 31 336 14 550
-6 550 -50 0 -17 76 -61 149 -85 46 -16 113 -28 187 -34 108 -8 146 -18 116
-28 -17 -7 -5 -23 18 -23 10 0 28 -11 39 -25 19 -25 24 -26 158 -31 129 -4
170 -12 144 -28 -21 -13 -11 -36 22 -49 17 -8 73 -24 122 -36 154 -39 215 -59
215 -72 0 -4 -12 -9 -27 -11 -17 -2 -28 -9 -28 -18 0 -17 33 -23 205 -39 214
-20 408 -50 497 -76 48 -15 97 -29 108 -32 11 -2 29 -8 40 -13 30 -13 61 -19
164 -35 72 -12 195 -15 524 -15 448 0 539 6 589 42 41 29 88 46 229 83 71 19
149 44 172 54 61 28 129 51 151 51 10 0 45 18 78 40 38 25 72 40 92 40 45 1
72 20 109 75 20 31 41 51 55 53 46 7 47 15 45 543 -3 583 -5 569 77 569 49 0
59 7 41 26 -6 5 -11 29 -13 54 -3 43 -5 45 -38 50 -28 4 -39 12 -53 41 -15 32
-16 42 -5 84 7 27 29 66 49 89 21 23 44 58 52 79 9 20 21 37 27 37 19 0 64
-27 89 -54 23 -24 23 -27 8 -44 -21 -23 -22 -38 -2 -46 8 -3 15 -17 15 -31 0
-14 7 -36 15 -49 8 -12 24 -74 36 -137 11 -63 23 -124 25 -137 2 -12 18 -34
34 -49 21 -18 30 -36 30 -57 0 -19 14 -52 35 -83 27 -41 35 -62 35 -98 0 -65
44 -145 87 -159 30 -10 33 -24 12 -86 -28 -86 -26 -100 16 -100 42 0 55 -20
55 -84 0 -69 20 -148 45 -178 14 -16 26 -48 30 -77 4 -28 16 -62 27 -76 15
-20 19 -35 15 -62 -11 -64 43 -123 113 -123 28 0 25 -17 -10 -57 -16 -18 -30
-42 -30 -52 0 -11 19 -43 43 -71 72 -89 77 -100 77 -166 0 -51 4 -65 24 -87
16 -17 27 -44 31 -74 16 -122 26 -158 49 -182 32 -35 46 -64 46 -96 0 -14 9
-45 20 -67 11 -23 20 -51 20 -63 0 -30 9 -36 33 -23 27 14 47 -12 47 -63 0
-20 9 -56 20 -80 11 -24 20 -58 20 -75 0 -20 15 -50 45 -90 24 -32 45 -69 45
-81 0 -22 31 -49 84 -71 22 -10 46 -10 100 -3 99 14 784 31 1256 31 217 0 413
4 435 10 51 12 65 32 65 96 0 62 -10 93 -42 126 -80 82 -99 110 -87 124 6 8
20 14 30 14 25 0 32 15 14 30 -8 7 -15 20 -15 30 0 10 -13 44 -30 75 -16 31
-30 69 -30 84 0 14 -18 55 -40 91 -22 36 -40 71 -40 78 0 27 -31 72 -54 78
-32 8 -56 59 -56 117 0 28 -6 49 -16 58 -33 27 -67 112 -68 171 -1 44 -7 63
-24 81 -12 13 -31 56 -42 95 -26 92 -61 172 -111 248 -22 34 -43 79 -46 100
-7 46 -29 94 -44 94 -14 0 -39 63 -39 99 0 20 7 34 20 41 25 13 16 34 -41 97
-28 31 -39 51 -39 75 0 17 -16 62 -35 99 -19 38 -35 81 -35 97 0 16 -11 44
-25 63 -43 61 -54 85 -65 152 -12 75 -20 98 -55 146 -17 23 -25 47 -25 76 0
30 -8 54 -30 86 -22 32 -30 56 -30 88 0 67 -18 115 -50 133 -16 9 -30 27 -32
40 -2 17 -13 26 -42 36 -55 18 -66 29 -66 67 0 37 -13 81 -46 150 -27 57 -44
136 -44 206 0 26 -4 59 -10 74 -9 22 -15 25 -47 23 l-38 -3 3 52 c3 43 -1 58
-21 85 -16 22 -28 58 -36 106 -8 54 -20 86 -45 122 -19 27 -37 68 -41 90 -4
22 -18 57 -32 77 -20 29 -28 58 -34 117 -5 54 -14 88 -28 107 -11 14 -23 43
-27 63 -3 20 -27 65 -52 99 -38 52 -45 68 -43 104 1 38 -2 44 -29 58 -36 19
-46 41 -66 150 -9 44 -24 95 -34 112 -11 18 -24 51 -30 72 -6 22 -24 53 -40
70 -23 22 -30 39 -30 68 -1 62 -17 116 -66 217 -43 88 -46 99 -34 121 12 23
10 27 -33 68 -26 24 -47 51 -47 61 0 9 -18 34 -40 56 -28 28 -41 50 -46 80 -4
22 -22 66 -40 96 -35 59 -41 79 -24 89 16 10 12 58 -8 86 -9 14 -32 48 -50 75
-33 48 -34 50 -27 130 l6 82 -38 18 -38 19 3 67 4 67 -46 47 c-42 43 -46 50
-46 97 0 68 -31 132 -72 146 -24 9 -29 14 -22 28 15 33 7 97 -21 158 -15 32
-36 84 -46 113 -10 30 -30 66 -44 80 -19 19 -25 35 -25 69 0 38 -5 49 -40 83
-45 44 -49 69 -20 118 32 52 4 104 -75 142 -58 28 -95 88 -95 154 0 32 -9 65
-30 106 -16 33 -30 75 -30 94 0 52 -13 76 -75 147 l-56 64 5 60 c2 33 8 71 11
85 4 17 1 30 -12 42 -10 9 -31 28 -46 43 -27 25 -28 29 -22 84 5 48 4 59 -9
64 -8 3 -33 42 -56 86 -22 44 -53 90 -69 102 -24 17 -29 30 -34 77 -5 43 -12
61 -29 74 -13 10 -29 23 -35 28 -8 6 -13 33 -13 62 0 45 -4 57 -33 88 -26 27
-36 49 -45 99 -8 47 -19 72 -39 93 -20 21 -28 40 -28 65 0 30 -5 38 -40 57
-25 14 -47 37 -60 63 -38 77 -118 149 -170 155 -25 2 -31 8 -35 34 -3 19 -18
42 -36 58 -18 14 -35 38 -38 52 -6 23 -11 26 -36 20 -25 -5 -35 0 -61 29 -19
20 -45 37 -65 41 -21 4 -43 19 -63 44 -19 24 -43 41 -63 45 -70 15 -110 38
-134 76 -21 33 -29 39 -60 39 -39 0 -89 22 -102 46 -14 26 -82 43 -167 42 -44
0 -89 -3 -100 -5z m-501 -1556 c1 -1 8 -15 17 -32 14 -28 18 -30 67 -27 54 4
117 -12 138 -33 7 -7 23 -33 35 -59 12 -26 32 -51 43 -56 33 -12 43 -30 51
-87 9 -66 53 -160 95 -198 43 -40 59 -75 71 -148 6 -37 24 -87 45 -124 19 -34
34 -71 34 -83 0 -29 16 -57 52 -89 l31 -28 -1 -105 c-2 -97 0 -106 20 -126 13
-11 35 -25 51 -31 29 -11 34 -30 16 -63 -17 -32 -2 -83 41 -134 53 -64 100
-165 100 -214 0 -23 13 -68 30 -105 17 -36 30 -72 30 -81 0 -30 31 -88 70
-130 40 -43 43 -60 24 -122 -6 -21 21 -76 52 -107 26 -27 29 -35 29 -99 l0
-70 33 -7 c50 -10 56 -21 43 -73 -25 -101 -12 -131 77 -176 l44 -21 -7 -85
c-7 -81 -6 -85 19 -118 17 -23 31 -61 41 -112 11 -56 22 -85 40 -104 15 -16
29 -46 35 -78 11 -62 23 -83 62 -108 32 -21 32 -17 11 -157 -4 -33 -1 -42 31
-77 20 -22 36 -48 36 -58 0 -9 17 -42 38 -74 26 -37 43 -77 52 -120 7 -34 25
-85 40 -113 18 -32 33 -79 40 -130 17 -108 26 -131 66 -156 31 -19 34 -25 34
-70 0 -42 6 -57 33 -91 30 -38 32 -45 32 -122 0 -96 5 -107 47 -99 l30 6 -6
-39 c-6 -32 -3 -45 14 -66 11 -15 28 -57 36 -95 26 -111 43 -151 85 -190 48
-46 51 -78 9 -118 -37 -35 -37 -43 -3 -47 18 -2 29 -10 32 -23 2 -11 21 -45
42 -75 20 -30 41 -71 44 -92 13 -69 -17 -101 -53 -58 -14 16 -35 20 -123 26
-59 4 -146 3 -195 -1 -80 -6 -90 -10 -118 -37 -17 -17 -49 -37 -72 -45 -23 -8
-70 -39 -105 -69 -35 -30 -75 -57 -89 -60 -49 -11 -80 -27 -108 -55 -31 -32
-89 -59 -127 -59 -14 0 -48 -12 -75 -26 -46 -24 -57 -26 -125 -19 -75 7 -75 7
-104 -24 -16 -17 -38 -31 -48 -31 -10 0 -23 -4 -29 -9 -30 -27 -117 -36 -349
-35 -291 0 -426 18 -573 75 -13 5 -35 9 -49 9 -15 0 -58 19 -97 42 -71 44
-120 55 -234 57 -46 1 -57 5 -88 36 -37 37 -51 40 -139 26 -61 -10 -128 5
-184 42 -23 15 -54 27 -70 27 -17 0 -50 11 -73 24 -62 34 -102 45 -203 55 -66
7 -110 18 -158 40 -60 28 -82 32 -229 42 -126 8 -168 15 -188 29 -14 9 -42 20
-63 24 -25 5 -52 20 -73 41 -19 19 -44 37 -57 39 -12 3 -35 8 -51 11 -16 3
-44 22 -61 41 -17 19 -41 34 -53 34 -32 0 -27 15 12 38 34 20 56 66 56 118 0
11 11 31 24 43 13 13 27 39 31 59 4 20 20 55 37 78 25 35 32 57 42 146 7 57
20 118 29 134 51 92 57 110 57 177 0 80 11 107 45 107 28 0 35 17 33 84 -1 57
24 86 73 86 40 0 50 27 18 51 -22 16 -23 19 -7 36 10 10 24 47 32 83 10 44 23
70 40 84 19 16 28 37 36 86 17 103 18 107 60 155 30 35 40 55 40 81 0 24 9 43
30 66 41 42 44 60 36 199 l-7 119 31 31 c21 21 34 48 41 83 7 33 22 62 41 83
24 25 34 48 44 103 8 40 23 83 34 97 12 15 20 41 20 63 0 22 12 60 30 93 l30
57 -25 16 c-31 20 -32 41 -3 71 26 28 48 86 48 131 0 64 24 113 93 190 37 42
67 83 67 92 0 8 -17 29 -37 47 l-38 32 43 40 c23 22 42 49 42 60 0 11 8 35 18
53 29 53 61 140 68 186 4 28 19 58 40 83 26 32 32 46 28 69 -13 61 59 218 118
257 l36 25 -5 73 c-6 70 -5 73 21 90 20 13 26 26 26 52 0 19 7 48 16 64 8 17
21 63 29 103 17 89 42 163 65 196 22 31 54 101 74 161 19 59 54 117 77 130 11
5 27 27 37 47 11 24 25 38 40 40 12 2 42 24 65 48 47 48 85 66 131 58 16 -2
30 -5 30 -7z m-2764 -5297 c41 -6 128 -13 192 -17 102 -5 122 -3 155 13 44 22
189 25 283 5 30 -6 87 -15 125 -20 208 -28 322 -52 380 -81 53 -27 76 -31 199
-40 112 -8 143 -13 160 -28 24 -21 89 -42 132 -42 51 -1 118 -25 162 -57 49
-36 120 -52 157 -35 25 12 39 1 64 -49 24 -49 95 -75 121 -44 14 17 46 20 55
5 13 -20 82 -48 125 -51 47 -3 100 -23 100 -39 0 -27 34 -40 106 -40 81 0 127
-14 183 -58 64 -49 79 -52 265 -62 163 -9 190 -13 269 -42 l89 -31 55 28 c56
28 56 28 90 10 33 -18 34 -18 72 3 26 15 70 25 137 32 113 12 139 22 156 61
16 36 52 55 118 63 94 12 154 27 190 50 80 50 178 86 238 86 l42 0 -6 38 c-11
68 53 121 165 137 97 13 123 10 149 -21 21 -24 24 -35 19 -80 -3 -28 -1 -56 3
-60 39 -39 37 -476 -2 -552 -10 -18 -9 -28 4 -50 9 -15 16 -50 16 -78 1 -29 8
-69 16 -89 20 -47 20 -64 0 -86 -14 -16 -14 -20 0 -48 21 -40 20 -70 -4 -152
-39 -129 -115 -252 -185 -295 -25 -16 -51 -41 -58 -56 -13 -31 -24 -37 -82
-45 -24 -3 -49 -14 -63 -29 -13 -14 -34 -24 -51 -24 -25 0 -123 -27 -176 -49
-57 -23 -98 -31 -168 -31 -57 0 -99 -7 -168 -30 -160 -52 -279 -64 -554 -56
-332 10 -420 18 -453 43 -38 28 -108 43 -201 43 -68 0 -89 4 -138 29 -32 15
-85 34 -118 41 -33 6 -81 23 -107 35 -51 26 -138 45 -200 45 -31 0 -45 7 -67
31 -25 27 -38 32 -107 41 -58 7 -92 18 -128 39 -27 17 -73 35 -103 40 -29 6
-76 21 -105 34 -29 13 -86 28 -126 34 -76 10 -106 26 -118 65 -13 41 -32 45
-196 46 -160 0 -202 7 -224 39 -13 18 -61 34 -135 46 -20 3 -54 18 -76 34 -30
22 -51 29 -89 29 -27 1 -84 7 -127 13 -65 11 -84 10 -110 -1 -19 -8 -91 -16
-172 -20 -108 -5 -150 -11 -185 -27 -47 -21 -139 -44 -254 -63 -92 -15 -150
-44 -212 -107 -46 -46 -57 -52 -82 -47 -42 8 -119 -34 -192 -105 -48 -47 -60
-65 -60 -90 0 -39 -15 -46 -68 -31 -83 22 -122 81 -122 186 0 35 -6 54 -22 71
l-21 23 33 61 c35 67 36 83 11 277 -9 66 -8 106 4 198 28 211 17 355 -31 405
l-24 26 20 18 c21 19 50 101 50 141 0 16 9 25 30 33 16 5 30 15 30 20 0 6 28
29 63 52 34 23 71 50 82 59 35 31 88 56 145 69 120 28 140 34 151 47 9 11 9
17 0 28 -14 16 4 26 48 26 15 0 56 9 91 21 116 38 205 58 235 53 17 -2 64 -9
105 -14z"/>
<path d="M12487 10600 c-76 -19 -108 -59 -121 -151 -4 -27 -23 -74 -46 -112
-39 -65 -40 -68 -40 -162 l0 -96 -36 -35 -36 -36 7 -73 7 -72 -50 -49 c-28
-28 -54 -63 -58 -79 -4 -17 -22 -52 -41 -80 -28 -42 -33 -59 -33 -106 0 -41
-7 -69 -26 -104 -32 -62 -54 -123 -54 -156 0 -14 -9 -53 -20 -87 -11 -33 -24
-88 -28 -121 -8 -54 -14 -66 -50 -99 -23 -22 -42 -43 -43 -48 -1 -5 -2 -37 -4
-71 -2 -43 -8 -70 -24 -91 -11 -17 -21 -43 -21 -59 0 -15 -9 -39 -20 -53 -11
-14 -20 -33 -20 -42 0 -30 -20 -63 -49 -79 -22 -13 -31 -29 -41 -68 -11 -45
-17 -54 -52 -72 -48 -25 -53 -35 -33 -82 36 -86 3 -234 -62 -284 -33 -26 -33
-26 -32 -104 1 -67 -2 -82 -21 -106 -36 -46 -123 -251 -119 -281 3 -21 -5 -32
-41 -56 l-40 -26 0 -111 c0 -118 -5 -136 -52 -178 -25 -22 -33 -40 -45 -106
-7 -44 -16 -92 -19 -107 -5 -23 -1 -29 37 -48 52 -27 105 -43 234 -69 85 -17
116 -19 207 -12 169 14 201 41 233 192 9 41 26 90 39 109 17 26 26 61 35 140
10 87 17 109 36 130 25 26 55 100 55 135 0 12 9 38 20 60 11 22 20 49 20 60 0
11 23 52 51 90 56 77 79 123 79 158 0 13 11 38 24 56 14 18 28 50 31 72 4 21
22 58 41 81 33 42 34 46 34 131 0 100 12 132 63 171 18 14 39 37 47 51 12 22
11 27 -5 45 -10 11 -23 20 -29 20 -6 0 -22 9 -35 19 l-25 19 35 20 c81 48 109
73 109 97 0 14 14 40 30 58 22 25 30 45 30 71 0 20 7 53 15 73 8 19 15 55 15
78 0 36 7 53 43 97 40 50 42 56 42 119 0 69 14 101 44 98 33 -3 41 2 41 24 0
12 19 49 41 82 39 56 42 65 48 148 7 95 5 93 83 149 23 16 23 17 6 48 -10 17
-18 44 -18 58 0 33 31 86 71 119 44 37 37 109 -12 125 -18 6 -3 38 45 97 41
50 45 58 51 132 6 65 4 84 -11 116 -17 33 -30 42 -104 73 -47 19 -109 54 -137
77 -80 63 -207 94 -296 73z"/>
<path d="M38910 9771 c-187 -6 -197 -7 -240 -32 -71 -42 -169 -53 -408 -46
-259 7 -416 -5 -486 -38 -109 -51 -129 -56 -321 -75 -55 -6 -122 -16 -150 -24
-27 -7 -75 -19 -105 -26 -86 -20 -241 -72 -285 -97 -40 -22 -112 -58 -150 -74
-11 -5 -51 -14 -90 -19 -90 -12 -163 -28 -178 -37 -17 -11 -92 -31 -157 -43
-140 -25 -172 -41 -222 -115 -35 -51 -70 -70 -158 -85 -150 -26 -166 -30 -182
-51 -10 -12 -18 -33 -18 -48 -1 -36 -21 -60 -59 -67 -17 -4 -50 -23 -74 -43
-50 -43 -107 -71 -146 -71 -31 0 -56 -22 -48 -43 4 -12 34 -29 69 -41 32 -10
9 -30 -65 -59 -120 -48 -248 -116 -309 -165 -66 -53 -103 -101 -150 -193 -42
-82 -64 -109 -110 -138 -21 -12 -38 -30 -38 -39 0 -31 -30 -103 -64 -156 -18
-28 -41 -67 -50 -87 -23 -50 -46 -164 -46 -237 0 -48 -7 -80 -30 -131 -25 -57
-30 -85 -35 -182 -8 -143 -7 -254 1 -343 6 -65 10 -72 50 -110 l43 -41 -21
-33 c-18 -28 -20 -43 -15 -100 7 -87 27 -132 69 -156 43 -25 48 -33 48 -84 0
-68 27 -135 71 -176 28 -27 41 -49 45 -78 4 -21 17 -55 30 -74 13 -19 36 -51
50 -71 22 -33 25 -45 19 -87 -5 -38 -2 -52 11 -67 9 -11 21 -19 25 -19 14 0
80 -48 146 -107 86 -77 165 -130 216 -145 56 -16 67 -25 67 -60 0 -35 21 -66
107 -162 39 -43 70 -89 82 -120 16 -44 25 -54 65 -74 36 -17 48 -29 52 -52 8
-38 16 -43 96 -64 47 -13 81 -29 110 -55 109 -94 170 -131 214 -131 17 0 41
-14 72 -45 30 -29 54 -45 71 -45 33 -1 56 -18 64 -50 3 -14 16 -36 28 -48 18
-21 27 -22 74 -17 52 7 53 6 81 -30 34 -43 69 -60 148 -69 33 -5 66 -12 75
-17 9 -4 36 -18 61 -29 25 -11 59 -29 75 -40 17 -11 39 -25 50 -30 11 -6 36
-20 55 -30 19 -11 61 -27 93 -36 48 -14 63 -24 88 -59 21 -30 42 -46 70 -54
22 -7 54 -24 72 -39 64 -55 78 -61 206 -82 32 -6 64 -18 77 -31 l24 -22 24 26
c32 34 39 34 69 -2 36 -44 89 -61 202 -68 127 -7 155 -20 155 -72 0 -33 4 -40
33 -54 17 -8 59 -23 92 -32 33 -9 69 -20 80 -25 11 -4 40 -15 65 -25 44 -17
66 -26 143 -59 23 -10 66 -16 108 -16 59 0 75 -4 102 -24 61 -46 93 -52 472
-86 119 -11 203 -34 235 -65 24 -23 32 -25 77 -19 38 5 60 2 94 -14 74 -32
133 -41 479 -67 178 -13 264 -26 304 -47 62 -32 126 -40 491 -58 326 -16 395
-22 485 -43 58 -13 157 -28 220 -31 63 -4 153 -10 200 -14 101 -8 1903 -8
2005 0 39 3 120 9 180 13 102 7 175 21 316 60 34 9 112 17 190 19 74 2 146 8
162 15 15 6 37 27 48 46 24 40 64 65 106 65 15 0 42 9 60 19 27 17 32 27 39
77 10 86 -1 208 -22 236 -9 13 -42 34 -72 47 -30 14 -79 47 -109 74 -51 47
-59 51 -136 63 -116 19 -852 29 -1072 15 -93 -7 -198 -14 -231 -17 -53 -5 -67
-2 -100 18 -123 75 -435 118 -694 97 -273 -23 -608 8 -840 76 -115 33 -306 55
-486 55 l-173 0 -34 30 c-28 25 -40 28 -70 23 -26 -4 -45 0 -70 16 -31 19 -49
21 -177 21 l-143 0 -56 38 c-80 55 -110 63 -254 69 -125 6 -129 7 -191 43 -74
43 -151 60 -277 60 -46 0 -100 4 -120 9 -37 8 -79 38 -79 56 -1 5 -10 21 -22
35 -20 24 -24 25 -157 25 -75 0 -142 4 -148 8 -7 5 -13 16 -13 26 0 42 -29 51
-162 51 -133 0 -175 9 -244 53 -22 13 -65 32 -98 42 -32 10 -72 30 -89 44 -28
23 -115 60 -146 61 -7 0 -39 17 -70 37 -87 59 -194 103 -247 103 -53 0 -138
54 -234 148 -37 37 -88 75 -118 89 -29 14 -68 40 -86 59 -30 31 -37 34 -77 28
-59 -8 -109 25 -122 79 -8 31 -17 42 -56 62 -26 13 -78 53 -117 90 -38 36 -90
76 -116 88 -31 14 -49 29 -53 45 -10 41 -36 72 -92 109 -58 38 -103 89 -103
117 0 9 -31 50 -69 91 -40 43 -72 87 -76 105 -4 16 -11 32 -16 35 -5 4 -9 15
-9 25 0 34 -42 70 -90 78 l-45 8 1 47 0 47 -34 0 c-33 0 -34 1 -28 30 3 17 17
55 32 84 33 67 29 85 -32 156 -42 49 -84 125 -84 151 0 5 12 28 26 51 25 39
26 45 20 142 -22 346 -23 323 35 437 39 77 40 139 2 167 l-28 20 45 44 c25 25
74 62 109 83 70 42 100 89 101 156 0 37 19 62 55 73 30 9 77 56 100 100 24 47
71 96 91 96 18 0 66 34 154 111 36 31 75 61 88 68 42 22 116 41 162 41 60 0
117 17 132 39 18 25 45 37 98 45 25 3 59 13 75 20 62 28 82 36 155 56 138 39
224 58 302 69 31 5 61 12 68 16 6 4 64 10 128 15 131 9 189 22 245 57 20 13
67 30 105 37 89 19 682 35 1612 46 399 4 741 10 760 13 19 4 56 9 82 12 26 4
52 13 59 21 18 22 55 17 102 -13 23 -16 49 -31 57 -34 21 -9 40 9 40 37 0 88
91 118 192 65 19 -11 48 -31 63 -45 61 -57 45 -56 1081 -56 539 0 964 4 981 9
15 5 44 12 64 15 20 4 47 16 61 29 62 58 151 87 263 87 79 0 126 19 173 69 53
56 77 101 97 174 12 44 26 75 42 87 30 23 29 45 -1 66 -14 8 -28 29 -31 45
-10 43 -57 85 -143 125 -42 19 -85 39 -94 45 -10 5 -23 9 -29 9 -6 0 -25 6
-42 13 -81 35 -148 47 -287 52 -80 3 -185 7 -235 9 -448 17 -4231 31 -4705 17z"/>
<path d="M51380 9751 c-25 -10 -67 -27 -94 -40 -46 -20 -91 -29 -264 -51 -94
-12 -155 -33 -206 -71 -27 -20 -52 -29 -77 -29 -21 0 -42 -7 -49 -15 -33 -40
-68 -53 -185 -70 -111 -16 -185 -40 -200 -65 -3 -5 -15 -10 -26 -10 -11 0 -37
-15 -57 -34 -63 -59 -86 -74 -131 -86 -30 -8 -56 -25 -87 -59 -34 -37 -55 -50
-96 -61 -68 -17 -111 -44 -214 -136 -84 -75 -179 -134 -215 -134 -12 0 -21 -9
-25 -25 -4 -17 -15 -27 -33 -31 -47 -10 -51 -13 -51 -37 0 -29 -30 -57 -92
-87 -25 -12 -49 -31 -51 -41 -3 -10 -18 -23 -34 -29 -56 -21 -78 -36 -172
-124 -53 -49 -127 -118 -164 -153 -112 -103 -286 -245 -370 -300 -69 -45 -137
-112 -137 -134 0 -9 -60 -110 -70 -119 -3 -3 -15 -19 -26 -37 -38 -62 -165
-192 -214 -220 -35 -20 -51 -36 -55 -55 -8 -33 -42 -78 -59 -78 -27 0 -95 -41
-115 -69 -12 -16 -21 -45 -21 -65 0 -67 -45 -151 -94 -178 -10 -6 -40 -15 -65
-22 -45 -11 -46 -12 -46 -51 0 -45 -9 -65 -30 -65 -13 0 -50 -56 -93 -140 -40
-80 -109 -176 -157 -220 -32 -29 -69 -84 -80 -120 -4 -13 -24 -38 -44 -55 -64
-54 -101 -96 -101 -115 0 -33 -12 -50 -36 -50 -23 0 -104 -73 -104 -94 0 -5
-6 -17 -13 -25 -16 -20 -33 -72 -42 -127 -7 -45 -23 -58 -90 -72 -39 -8 -40
-9 -41 -53 -1 -75 -14 -104 -80 -188 -76 -97 -119 -172 -129 -226 -3 -22 -18
-52 -32 -67 -21 -21 -27 -41 -32 -95 -7 -67 -29 -125 -86 -218 -30 -50 -30
-56 0 -89 33 -35 32 -45 -6 -53 -52 -10 -92 -60 -112 -138 -9 -39 -17 -79 -17
-90 0 -39 -36 -119 -72 -160 -38 -43 -48 -81 -27 -102 14 -14 24 -116 12 -137
-5 -9 -29 -26 -53 -39 l-45 -22 -6 -185 c-6 -198 -10 -215 -60 -244 -47 -28
-62 -121 -35 -221 16 -63 32 -92 67 -127 37 -37 68 -48 142 -49 68 0 171 -18
257 -44 121 -36 247 -55 414 -61 197 -7 312 4 376 35 25 13 92 31 150 41 58
11 123 28 146 39 45 22 142 113 163 154 13 25 12 29 -28 81 -22 30 -41 60 -41
65 0 5 27 30 59 55 75 58 101 91 101 128 0 16 7 45 15 65 14 33 14 40 -5 89
-16 43 -17 59 -9 86 20 63 42 94 79 115 37 22 37 23 42 95 5 69 14 98 58 178
12 22 19 55 20 89 0 49 -3 57 -35 87 -19 18 -35 40 -35 49 0 15 7 16 44 11 80
-12 128 30 142 125 7 48 37 89 65 89 25 0 49 50 49 103 0 36 8 55 43 103 41
58 42 61 47 159 l5 100 38 18 c26 12 43 29 53 52 17 41 27 48 79 55 l40 5 5
80 c3 46 11 90 20 102 8 12 48 46 89 75 74 53 215 185 238 223 7 11 36 66 65
123 48 95 54 102 77 98 14 -3 199 -8 411 -12 660 -12 910 -22 990 -37 41 -8
120 -24 175 -36 87 -18 135 -21 370 -21 263 -1 272 -2 340 -26 39 -14 89 -29
113 -34 23 -5 51 -14 61 -20 11 -5 36 -10 56 -10 20 0 45 -4 55 -10 10 -5 58
-13 107 -16 91 -6 248 -34 294 -52 14 -6 39 -24 56 -40 59 -60 139 -59 201 3
42 42 114 33 192 -25 19 -14 48 -31 63 -38 32 -14 147 -38 227 -47 191 -22
382 -72 495 -128 44 -22 117 -48 161 -58 54 -11 103 -31 145 -56 76 -46 140
-67 179 -58 22 5 33 1 52 -18 12 -14 41 -36 63 -49 54 -33 189 -88 216 -88 12
0 49 -18 82 -41 54 -37 64 -40 102 -34 l43 6 19 -58 c14 -45 23 -59 40 -61 13
-2 32 -19 44 -40 34 -56 55 -73 126 -97 94 -33 154 -76 214 -153 29 -37 79
-93 112 -125 56 -55 155 -127 175 -127 16 0 92 -79 92 -95 0 -12 68 -104 107
-143 18 -19 93 -177 93 -197 0 -32 34 -75 72 -90 l38 -15 -3 -88 -2 -88 48
-69 c32 -48 47 -80 47 -102 0 -48 31 -90 98 -134 91 -59 142 -131 142 -199 0
-38 24 -60 66 -60 23 0 51 -11 85 -34 27 -19 60 -37 72 -41 12 -3 45 -12 72
-20 156 -44 245 -53 320 -34 22 5 157 14 300 20 143 5 271 11 285 13 14 2 48
6 75 10 53 8 125 34 125 46 0 12 81 38 134 43 60 6 77 25 94 104 13 62 5 83
-30 83 -31 0 -58 19 -58 41 0 11 12 36 27 56 19 25 30 57 39 111 27 162 14
218 -56 246 -44 18 -46 25 -29 106 10 47 9 54 -16 95 -14 25 -29 45 -33 45
-11 0 -40 60 -46 95 -4 17 -11 77 -16 134 l-10 104 -45 48 c-32 35 -45 56 -45
78 0 50 -30 87 -98 123 -35 18 -65 36 -68 39 -2 4 10 21 26 39 17 18 30 39 30
47 0 24 -32 77 -59 98 -74 57 -126 121 -145 180 -22 69 -59 153 -78 176 -23
28 -64 49 -109 57 -56 10 -60 28 -14 75 45 46 46 78 3 111 -41 31 -151 86
-172 86 -13 0 -16 14 -16 76 l0 77 -84 86 c-57 58 -87 98 -94 121 -8 34 -10
35 -55 32 -55 -3 -67 12 -78 101 -5 39 -15 68 -34 93 -23 30 -27 45 -26 91 1
54 1 54 -37 69 -76 30 -98 46 -131 97 -19 29 -60 77 -91 107 -56 54 -57 56
-69 134 -13 89 -24 106 -90 140 -90 46 -108 60 -132 105 -37 69 -184 214 -254
251 -33 17 -80 49 -105 71 -51 45 -173 129 -187 129 -21 0 -45 40 -46 77 -2
36 -3 38 -37 38 -35 0 -35 1 -40 50 -3 28 -12 61 -19 74 -7 13 -76 89 -152
168 -122 126 -139 147 -139 177 0 29 -5 35 -42 52 -59 25 -172 110 -238 178
-33 34 -81 70 -118 88 -73 36 -77 41 -61 66 26 41 7 51 -103 54 -86 3 -102 6
-99 18 12 42 5 63 -25 79 -47 26 -105 70 -184 144 -41 37 -77 67 -82 67 -48 0
-318 252 -318 297 0 24 -48 51 -100 56 -58 5 -166 38 -213 63 -15 9 -38 21
-50 27 -12 7 -41 31 -64 55 -38 39 -44 42 -96 42 -69 0 -98 12 -161 67 -34 31
-57 43 -80 43 -48 1 -104 25 -127 54 -32 41 -75 58 -163 63 -77 5 -136 23
-136 42 0 5 -26 16 -58 25 -86 24 -467 22 -532 -3z m186 -985 c11 -8 46 -39
79 -70 32 -31 62 -56 67 -56 9 0 60 30 68 41 15 19 49 18 74 -2 30 -24 86
-115 86 -141 0 -9 11 -29 25 -44 24 -26 32 -28 103 -28 72 -1 77 -2 80 -24 2
-13 19 -37 39 -55 20 -18 46 -42 59 -54 13 -12 26 -34 30 -50 8 -35 37 -63 64
-63 21 0 60 -33 60 -51 0 -8 13 -9 42 -5 37 6 44 4 68 -23 20 -21 41 -31 74
-36 38 -6 53 -15 86 -53 22 -24 40 -50 40 -56 0 -17 40 -55 85 -80 38 -21 47
-35 60 -98 3 -14 23 -45 45 -67 32 -32 48 -41 75 -41 39 0 58 -22 70 -80 9
-42 30 -59 73 -60 35 0 41 -14 16 -41 -12 -14 -13 -22 -4 -39 18 -34 132 -131
180 -153 8 -4 29 -16 45 -27 17 -10 49 -29 73 -41 48 -26 132 -110 132 -133 0
-28 -12 -46 -31 -46 -28 0 -35 -28 -13 -46 15 -12 37 -14 108 -9 80 5 91 4
121 -16 18 -13 47 -45 66 -73 58 -87 121 -169 171 -221 34 -35 53 -66 64 -102
8 -30 26 -61 39 -71 60 -48 121 -272 83 -310 -25 -25 -76 -13 -138 32 -50 37
-72 46 -132 56 -50 8 -86 21 -113 40 -31 22 -61 31 -125 40 -161 22 -155 19
-158 70 -2 25 -7 48 -11 53 -12 12 -119 37 -164 37 -23 1 -60 5 -82 9 -22 5
-63 14 -91 19 -28 6 -72 22 -97 36 -35 20 -69 28 -158 36 -63 6 -122 13 -132
16 -10 3 -25 22 -35 42 -16 34 -23 38 -77 49 -33 7 -112 13 -175 12 -157 -1
-271 9 -295 27 -11 7 -32 24 -47 35 -30 25 -126 37 -289 38 -118 1 -181 19
-237 68 -24 21 -64 43 -90 50 -29 8 -162 17 -342 23 -296 10 -397 19 -448 39
-54 21 -243 41 -393 41 -300 0 -619 13 -636 25 -15 11 -13 16 20 48 28 29 36
46 39 79 l3 43 62 3 c48 2 67 8 87 27 14 13 26 32 26 43 0 39 41 100 112 167
87 83 124 129 168 210 21 40 69 96 141 166 66 64 109 114 109 126 0 25 33 56
91 83 44 20 96 66 112 100 42 85 74 118 131 134 30 9 64 16 76 16 30 0 86 61
95 102 9 41 19 48 71 48 32 0 46 6 66 28 14 16 45 34 71 41 46 13 96 52 134
105 l21 30 27 -20 c15 -10 34 -23 42 -29 11 -8 19 -4 31 15 54 80 85 96 128
66z"/>
<path d="M61080 9699 c-80 -4 -455 -12 -834 -17 l-689 -9 -24 -29 c-59 -71
-109 -117 -150 -136 -24 -11 -46 -24 -49 -29 -3 -5 -12 -109 -20 -232 -17
-251 -15 -1000 4 -1143 12 -92 36 -170 60 -197 15 -17 14 -20 -20 -50 -49 -43
-57 -63 -57 -141 1 -51 -4 -74 -21 -102 l-22 -35 32 -45 32 -45 -5 -117 c-10
-247 -34 -397 -67 -417 -18 -11 -10 -43 16 -62 23 -17 27 -29 36 -114 12 -110
2 -512 -13 -574 -10 -41 -8 -68 33 -425 5 -47 7 -134 4 -195 -3 -60 -10 -195
-15 -300 -9 -188 -15 -223 -35 -237 -7 -5 -7 -17 3 -40 31 -79 34 -119 42
-653 5 -302 13 -590 18 -639 20 -174 117 -306 226 -306 28 0 55 -6 65 -15 60
-54 360 -60 3635 -62 2837 -2 3295 -5 3381 -28 67 -17 58 -11 77 -57 21 -49
45 -49 88 0 19 22 48 46 64 54 25 13 128 28 200 29 98 1 312 23 360 36 33 9
97 33 141 55 45 21 91 38 102 38 31 0 42 30 42 115 0 123 -38 214 -119 288
-41 37 -117 77 -147 77 -25 0 -137 59 -169 89 -16 16 -46 34 -65 40 -97 30
-692 30 -791 0 -20 -6 -54 -8 -75 -5 -131 22 -281 27 -674 22 -326 -4 -436 -9
-471 -20 -38 -12 -54 -12 -95 -1 -69 18 -679 26 -2209 31 -704 2 -1395 7
-1535 12 -226 8 -261 11 -303 30 -52 23 -59 41 -29 82 13 20 17 45 17 125 -1
107 -10 134 -64 181 -25 21 -22 44 5 44 20 0 18 11 -11 50 -33 44 -32 71 3 97
16 12 37 38 47 59 22 47 9 99 -41 153 -19 21 -34 43 -34 49 0 6 12 26 28 44
42 51 60 96 71 184 18 141 -14 264 -69 264 -31 0 -30 13 1 39 42 36 52 82 56
261 6 206 -17 381 -58 461 -16 31 -29 60 -29 64 0 5 21 28 47 53 l48 45 -25
16 c-49 31 -67 57 -74 104 -8 52 3 82 33 92 11 3 22 14 25 23 7 22 24 295 31
497 3 87 10 162 14 165 5 3 663 7 1463 8 1629 4 1858 -1 1936 -45 60 -32 165
-53 273 -53 114 0 169 14 205 51 l28 29 183 0 c184 0 184 0 244 -30 59 -29 60
-29 107 -14 26 9 55 21 65 26 14 7 26 3 50 -15 45 -33 129 -47 281 -46 162 1
209 13 216 54 5 25 10 30 33 28 15 -1 43 -14 62 -29 45 -34 118 -43 163 -20
22 11 58 16 124 16 63 0 100 5 113 14 39 26 153 36 441 37 159 1 300 4 314 8
19 5 28 18 38 53 10 38 20 51 55 71 75 44 151 137 162 200 7 37 -1 50 -59 90
-14 10 -36 39 -49 64 -16 35 -30 50 -54 57 -34 12 -55 35 -68 76 -9 30 -23 42
-90 76 -58 30 -173 63 -265 75 -36 5 -72 12 -80 15 -33 15 -1121 28 -1280 16
-94 -7 -110 -7 -566 -4 -214 2 -330 -1 -349 -8 -23 -9 -58 -6 -161 10 -100 17
-136 19 -152 11 -15 -8 -467 -11 -1619 -11 -1575 0 -1689 2 -1746 32 -18 9
-18 10 -1 29 18 20 18 22 -3 62 -41 83 -46 103 -38 179 16 149 2 218 -45 233
-39 12 -34 46 13 98 28 29 49 64 56 90 6 23 14 48 19 54 15 24 150 35 480 40
321 5 337 4 402 -16 55 -18 76 -20 111 -12 97 21 292 31 659 31 320 1 394 4
440 17 48 14 72 14 190 3 74 -6 338 -14 585 -16 1013 -9 1182 -17 1287 -67 72
-34 97 -34 129 2 34 39 80 61 126 61 50 -1 75 -16 112 -67 30 -41 33 -43 84
-42 28 0 72 8 97 17 36 14 46 23 48 45 2 15 6 27 10 27 3 0 25 -18 48 -41 63
-62 106 -69 429 -69 301 0 616 15 685 32 25 6 68 24 95 39 63 35 216 59 374
59 106 0 111 1 126 24 14 21 14 31 4 65 -11 36 -10 43 6 61 10 11 26 20 36 20
38 0 54 56 54 185 0 130 -10 164 -60 203 -14 11 -25 27 -25 35 0 8 -8 24 -17
36 -15 17 -33 22 -108 27 -121 7 -129 9 -169 45 -30 26 -48 32 -134 44 -176
25 -1065 34 -2377 26 -671 -5 -1434 -5 -1695 0 -789 13 -1876 18 -2030 8z"/>
<path d="M71535 9691 c-22 -10 -56 -33 -75 -50 -37 -34 -49 -38 -120 -45 -129
-12 -231 -62 -276 -133 -56 -89 -126 -141 -202 -150 -53 -6 -68 -21 -96 -98
-23 -63 -33 -75 -73 -92 -35 -14 -35 -15 -33 -109 1 -60 0 -63 -35 -90 -42
-32 -60 -63 -69 -120 -5 -26 -22 -58 -47 -89 -21 -26 -39 -51 -39 -55 0 -4 7
-24 15 -43 33 -80 8 -160 -56 -177 -61 -17 -87 -77 -58 -132 24 -45 14 -103
-27 -164 -60 -89 -68 -112 -69 -199 -1 -59 -6 -90 -21 -115 -29 -53 -35 -60
-96 -120 -32 -30 -58 -61 -58 -68 0 -7 9 -21 20 -32 16 -16 19 -28 14 -55 -4
-25 0 -47 17 -81 21 -45 22 -52 11 -126 -13 -87 -35 -129 -84 -154 -28 -14
-30 -19 -26 -62 3 -26 13 -68 23 -94 l19 -47 -27 -25 c-20 -19 -27 -35 -27
-64 0 -42 -27 -132 -40 -132 -21 0 -70 -219 -70 -312 0 -44 28 -167 43 -185
18 -24 -1 -43 -42 -43 -33 0 -43 -5 -61 -30 -20 -28 -21 -39 -18 -227 3 -203
-3 -243 -37 -243 -18 0 -40 -42 -49 -94 -4 -21 -19 -56 -33 -77 -21 -32 -25
-46 -20 -81 4 -24 11 -77 17 -118 5 -41 12 -91 15 -110 3 -19 10 -69 14 -110
5 -41 15 -89 22 -106 12 -29 10 -36 -20 -83 -19 -28 -57 -72 -86 -96 -28 -25
-60 -63 -70 -85 -17 -39 -17 -42 0 -107 29 -104 25 -196 -9 -261 -31 -59 -31
-84 -1 -187 13 -45 19 -122 25 -310 8 -254 21 -355 45 -355 14 0 108 -69 170
-125 44 -39 115 -75 150 -75 12 0 48 -23 83 -55 89 -81 106 -85 422 -85 318 0
372 8 419 62 30 35 99 78 124 78 6 0 43 12 81 26 49 19 73 35 84 54 10 18 31
32 54 39 51 16 92 52 117 107 37 78 37 94 -3 140 l-36 42 19 43 c36 85 52 506
25 662 -6 31 -14 42 -40 55 -38 18 -41 27 -17 54 26 28 42 83 58 188 16 112 7
175 -31 211 -33 31 -33 69 0 69 16 0 27 8 33 23 4 12 7 111 5 220 -4 213 3
264 45 355 32 71 42 166 51 498 l8 272 36 40 c43 47 45 58 52 247 4 77 11 190
18 250 11 107 18 129 67 211 13 21 25 75 35 160 9 70 21 135 28 145 7 9 26 33
42 53 27 34 29 43 33 154 5 125 18 177 59 225 21 25 24 39 24 103 0 72 1 76
32 105 42 38 80 38 155 -1 31 -16 69 -30 83 -30 33 0 70 -38 70 -71 1 -49 44
-82 123 -94 53 -8 89 -44 101 -101 4 -17 20 -40 36 -53 25 -18 30 -29 30 -62
0 -48 24 -99 48 -99 9 -1 49 -30 87 -66 129 -120 223 -202 245 -214 12 -7 57
-47 99 -89 73 -74 79 -79 139 -89 87 -15 112 -30 139 -81 30 -58 43 -72 90
-96 21 -11 92 -74 158 -141 81 -83 130 -125 150 -129 80 -18 125 -35 172 -64
51 -32 113 -95 113 -116 0 -19 40 -55 61 -55 33 0 110 -43 156 -86 44 -41 118
-74 166 -74 20 0 30 -7 36 -24 9 -22 99 -86 122 -86 6 0 23 -7 37 -14 29 -16
146 -46 178 -46 23 0 136 -43 168 -63 64 -42 274 -75 365 -57 30 5 63 18 73
26 14 14 30 16 84 10 37 -4 75 -11 85 -16 10 -6 49 -10 87 -10 60 0 80 5 148
38 133 65 153 72 209 72 50 0 56 2 70 30 9 18 23 30 36 30 26 0 76 26 103 54
45 46 103 83 161 100 68 20 173 94 275 193 85 81 123 110 190 141 30 14 67 40
82 57 32 37 98 75 132 75 46 0 136 84 136 127 0 26 51 79 91 96 19 8 68 44
109 81 77 68 123 96 159 96 25 0 58 20 122 72 25 21 51 38 57 38 26 0 90 50
150 118 48 54 73 74 102 82 41 11 60 33 60 69 0 13 12 26 30 36 17 9 30 20 30
26 0 25 76 123 173 225 104 107 196 183 266 218 32 17 134 26 147 14 3 -4 -4
-20 -17 -37 -22 -30 -22 -31 -5 -88 10 -32 22 -87 27 -123 17 -108 37 -165 74
-202 l33 -35 4 -119 c4 -129 -2 -110 95 -297 16 -31 27 -72 31 -113 4 -55 1
-70 -23 -118 -15 -30 -25 -59 -21 -64 3 -5 45 -16 93 -22 49 -7 96 -17 106
-22 24 -12 16 -43 -37 -145 -24 -46 -21 -93 9 -126 14 -15 33 -50 42 -78 16
-48 16 -53 0 -78 -42 -66 -42 -59 18 -186 61 -128 62 -132 36 -259 -12 -58
-12 -59 18 -101 44 -61 43 -114 -1 -148 l-32 -25 27 -41 c32 -49 32 -51 7
-101 -33 -66 -25 -115 28 -172 21 -23 24 -31 15 -50 -18 -39 -33 -104 -33
-144 1 -62 25 -159 48 -191 46 -65 50 -116 55 -658 5 -542 23 -838 52 -895 15
-28 82 -80 105 -80 30 0 135 -68 156 -101 29 -47 72 -58 269 -69 83 -5 165
-14 183 -21 27 -9 36 -9 50 4 20 17 138 34 304 42 125 6 175 20 205 58 19 24
80 57 106 57 24 0 136 61 170 93 18 17 28 34 25 45 -3 11 9 39 29 68 65 93 67
103 71 299 6 334 5 361 -15 392 -10 15 -26 35 -36 43 -26 22 -36 80 -37 215
-1 150 -24 401 -40 437 -16 34 -7 58 21 58 19 0 21 4 16 43 -9 73 -23 124 -45
158 -56 90 -59 99 -70 269 -7 91 -14 239 -18 330 -5 136 -10 176 -29 230 -30
84 -55 219 -55 301 -1 82 -31 219 -58 257 -46 64 -68 303 -38 404 17 54 14 58
-58 93 -39 19 -49 32 -102 133 -4 8 3 22 16 34 19 18 21 27 16 71 -7 52 -25
95 -57 135 -36 46 -89 190 -89 242 0 26 -25 164 -41 225 -6 22 -24 66 -40 97
-26 51 -29 68 -29 146 0 79 -2 91 -22 109 -13 11 -35 23 -49 27 -15 3 -37 14
-49 24 l-23 18 27 76 c14 42 26 85 26 96 0 10 -18 38 -39 61 -38 42 -71 117
-71 163 0 14 -19 47 -45 77 -40 46 -45 58 -45 101 0 45 -3 50 -53 93 -50 42
-54 50 -71 123 -21 87 -45 131 -120 217 -63 73 -128 121 -192 142 -27 9 -56
25 -64 35 -26 31 -53 38 -167 45 -153 8 -238 26 -320 68 -77 39 -167 56 -202
37 -12 -6 -19 -15 -15 -21 3 -5 -1 -20 -9 -32 -24 -37 -172 -59 -282 -42 -36
5 -81 -10 -115 -41 -14 -12 -58 -31 -98 -42 -72 -20 -121 -50 -172 -103 -35
-37 -91 -75 -120 -84 -27 -8 -107 -65 -155 -112 -51 -49 -97 -78 -179 -113
-59 -25 -83 -42 -95 -63 -55 -101 -118 -175 -338 -398 -134 -135 -258 -268
-276 -297 -35 -55 -114 -122 -145 -122 -22 0 -42 -26 -84 -112 -37 -73 -48
-82 -83 -66 -31 14 -29 16 -88 -76 -31 -48 -34 -50 -117 -71 -47 -11 -100 -29
-118 -39 -36 -19 -72 -69 -72 -102 0 -23 -20 -44 -65 -67 -16 -9 -72 -54 -122
-100 -100 -91 -172 -142 -243 -172 -54 -22 -74 -40 -99 -85 -13 -25 -27 -36
-51 -41 -19 -4 -41 -17 -50 -28 -22 -30 -109 -51 -212 -51 -142 0 -180 12
-249 81 -40 40 -83 70 -142 98 -46 23 -89 41 -95 41 -37 0 -157 99 -177 146
-9 22 -33 46 -69 68 -61 40 -86 70 -121 149 -24 56 -65 97 -95 97 -20 0 -50
31 -50 52 0 22 -43 58 -69 58 -67 0 -199 99 -228 172 -15 38 -65 78 -97 78
-26 0 -89 44 -119 84 -16 20 -34 36 -41 36 -32 0 -75 33 -89 68 -13 32 -21 39
-68 52 l-54 16 -3 46 c-3 44 -6 48 -50 74 -51 30 -196 170 -258 249 -21 28
-42 52 -45 55 -4 3 -19 27 -33 54 -26 50 -67 86 -97 86 -23 0 -59 38 -52 55 6
17 -22 55 -41 55 -16 1 -55 38 -101 95 -69 86 -96 103 -152 92 -41 -8 -66 10
-91 64 -27 58 -53 73 -150 84 -52 6 -68 12 -89 35 -17 20 -38 30 -71 34 -57 8
-95 22 -145 53 -60 37 -236 70 -427 79 -101 4 -120 3 -155 -15z"/>
<path d="M20620 6910 c-65 -8 -90 -18 -90 -35 0 -15 -34 -21 -132 -24 -77 -3
-135 -17 -223 -55 -40 -17 -78 -26 -116 -26 -42 0 -60 -5 -73 -19 -9 -10 -37
-24 -62 -31 -53 -15 -94 -45 -94 -69 0 -9 -7 -27 -16 -39 -12 -18 -25 -22 -66
-22 -66 0 -111 -22 -131 -65 -12 -25 -32 -42 -75 -64 -65 -33 -67 -36 -78
-107 -4 -28 -17 -61 -30 -77 -38 -46 -28 -99 22 -111 25 -7 26 -9 18 -44 -4
-20 -8 -105 -9 -189 0 -147 -1 -152 -25 -178 -14 -15 -37 -34 -52 -43 -37 -21
-35 -34 7 -66 64 -49 69 -68 73 -299 2 -117 -1 -255 -7 -315 -14 -137 -5 -196
38 -234 17 -16 43 -28 57 -28 41 0 66 -18 58 -42 -4 -13 -1 -24 7 -29 26 -16
117 -21 172 -9 47 9 57 15 65 39 7 21 21 32 49 41 99 31 168 80 159 113 -3 14
5 30 28 51 33 31 46 39 126 72 24 11 74 43 110 73 36 29 76 58 90 63 14 6 93
14 175 19 119 6 163 12 210 30 52 20 82 24 233 27 122 3 177 0 187 -8 8 -6 23
-9 35 -5 12 4 30 0 44 -8 32 -21 86 -35 206 -51 65 -10 118 -23 148 -39 28
-14 75 -27 115 -31 59 -7 73 -12 113 -47 29 -25 55 -39 73 -39 15 0 36 -7 47
-15 28 -22 74 -32 219 -50 113 -14 141 -21 211 -56 135 -65 220 -88 329 -87
103 1 138 -12 155 -57 13 -33 70 -55 143 -55 48 0 70 -6 114 -31 45 -26 63
-30 111 -29 80 3 80 3 84 -27 4 -31 40 -61 94 -75 21 -5 190 -13 374 -16 184
-4 341 -11 348 -15 6 -5 12 -14 12 -22 0 -25 33 -26 69 0 35 24 45 25 253 33
190 7 220 10 238 27 11 10 20 26 20 35 0 40 32 59 105 64 114 8 163 18 183 36
10 9 34 25 54 34 28 14 37 24 41 52 9 57 24 68 57 44 42 -30 57 -28 189 32 25
11 66 26 92 34 40 12 52 22 80 67 18 28 45 64 61 79 15 15 28 36 28 47 0 11 9
25 19 31 46 24 46 220 0 312 -24 46 -24 57 0 82 35 39 41 141 41 675 l0 511
-57 29 c-32 16 -67 38 -79 49 -60 57 -111 57 -297 0 -104 -33 -177 -77 -221
-136 -35 -47 -43 -52 -96 -63 -34 -7 -69 -21 -86 -36 -16 -14 -47 -33 -69 -43
-42 -18 -81 -57 -134 -133 -27 -39 -38 -47 -81 -56 -28 -6 -81 -11 -118 -11
-71 -1 -136 -14 -242 -51 -60 -21 -82 -23 -290 -24 l-225 0 -80 37 c-44 20
-116 44 -159 53 -43 9 -102 27 -131 40 -35 17 -69 25 -106 25 -71 0 -129 17
-129 36 0 9 9 18 20 21 25 7 26 29 3 42 -10 5 -54 13 -98 19 -61 7 -92 17
-130 41 -43 26 -65 32 -155 41 -65 7 -116 18 -135 29 -31 18 -110 36 -205 46
-63 7 -80 18 -80 51 0 12 -5 26 -11 29 -6 4 -64 10 -129 15 -94 6 -125 11
-153 29 -25 15 -51 21 -93 21 -67 0 -134 17 -214 53 -68 30 -168 44 -370 52
-85 4 -158 9 -162 11 -5 3 -8 13 -8 23 0 15 -12 19 -67 24 -86 9 -450 6 -523
-3z m455 -159 c61 -4 113 -14 133 -24 17 -9 47 -25 64 -34 27 -14 65 -17 226
-17 l192 -1 23 -27 c31 -37 82 -50 189 -46 78 2 98 0 118 -15 14 -10 41 -29
60 -43 33 -24 41 -26 139 -22 l105 3 15 -30 c22 -42 27 -44 101 -44 89 0 109
-9 155 -76 39 -57 42 -59 105 -72 55 -11 110 -29 247 -83 12 -5 66 -16 120
-25 54 -9 112 -20 128 -24 17 -5 57 -15 90 -22 33 -7 79 -21 103 -31 24 -10
57 -18 72 -18 16 0 55 -7 87 -16 152 -42 182 -45 410 -51 292 -7 353 -1 397
37 30 26 41 29 117 32 76 3 84 5 85 23 2 36 4 37 35 14 l32 -22 16 20 c11 14
38 24 91 32 41 7 119 30 175 53 65 26 119 41 154 43 66 3 88 27 56 59 -19 19
-19 30 1 46 8 8 21 28 28 45 17 40 81 73 168 86 118 17 192 -10 137 -52 -22
-17 -23 -18 -6 -36 9 -11 21 -43 27 -71 11 -61 20 -80 49 -106 26 -24 27 -43
3 -51 -29 -9 -42 -49 -42 -130 0 -40 -5 -96 -12 -124 -10 -45 -9 -53 6 -70 16
-18 16 -21 1 -52 -14 -26 -16 -48 -11 -108 17 -217 19 -292 5 -317 -9 -19 -10
-30 -2 -42 21 -35 25 -82 9 -107 -21 -32 -20 -44 5 -71 31 -33 19 -54 -32 -54
-44 0 -59 -12 -156 -125 -29 -34 -36 -37 -67 -31 -38 7 -66 -11 -66 -44 0 -24
-25 -33 -40 -14 -18 20 -33 17 -60 -11 -13 -14 -35 -25 -50 -25 -17 0 -39 -13
-65 -40 -34 -34 -45 -40 -82 -40 -23 0 -73 -12 -110 -26 -38 -14 -87 -26 -111
-25 -23 0 -71 -9 -105 -20 -40 -13 -108 -23 -192 -28 -102 -6 -142 -13 -184
-31 -42 -19 -57 -21 -70 -12 -77 55 -104 65 -175 66 -53 1 -79 -4 -99 -16 -30
-20 -54 -23 -59 -7 -6 18 -69 25 -138 16 -86 -11 -143 -3 -187 27 -33 23 -65
34 -188 68 -22 7 -49 19 -60 28 -23 19 -71 33 -200 56 -104 18 -133 30 -116
47 6 6 11 15 11 19 0 13 -67 9 -137 -9 l-66 -16 -51 55 c-47 51 -68 65 -121
83 -11 4 -85 13 -165 20 -134 11 -149 15 -195 44 -37 23 -69 33 -122 40 -39 5
-97 21 -129 35 -37 17 -74 26 -108 26 -42 0 -58 5 -88 30 -51 42 -78 50 -171
50 -162 1 -278 16 -339 44 -49 23 -77 28 -205 36 -169 10 -358 -2 -403 -25
-16 -8 -60 -22 -97 -30 -113 -26 -131 -34 -153 -71 -15 -23 -29 -34 -45 -34
-26 0 -47 -7 -150 -56 -38 -18 -104 -42 -145 -54 -41 -11 -98 -27 -126 -35
-73 -21 -81 -19 -94 20 -6 19 -28 47 -48 64 l-37 29 -6 294 c-3 183 -10 303
-17 321 -8 19 -8 35 -1 55 13 37 42 92 49 92 3 0 16 9 30 20 25 19 25 19 30
233 6 237 7 242 73 267 18 7 43 17 57 22 14 6 34 14 45 18 11 5 41 17 67 29
26 12 51 21 56 21 16 0 97 43 139 73 42 30 45 30 205 37 166 8 192 13 240 52
15 12 47 25 70 29 59 9 232 9 353 0z"/>
<path d="M15084 6873 c-15 -50 -7 -48 -245 -45 -209 3 -228 2 -284 -18 -115
-41 -190 -59 -248 -60 -38 0 -73 -7 -100 -20 -48 -24 -145 -38 -266 -39 -80 0
-86 -2 -110 -29 -18 -20 -59 -39 -136 -65 -61 -21 -129 -47 -152 -57 -61 -28
-251 -90 -298 -96 -64 -9 -134 -34 -147 -53 -21 -29 -68 -55 -112 -61 -38 -5
-53 -18 -69 -63 -1 -5 -41 -10 -87 -13 -146 -6 -297 -34 -375 -67 -46 -19 -72
-21 -345 -25 -277 -3 -563 8 -603 23 -9 4 -20 18 -23 31 -4 14 -15 26 -28 29
-11 2 -47 9 -79 16 -49 9 -62 16 -75 40 -12 21 -25 29 -44 29 -30 0 -68 31
-68 54 0 34 -90 105 -151 119 -14 4 -45 22 -70 42 -24 19 -49 35 -56 35 -20 0
-44 31 -38 50 11 34 -19 42 -162 44 -162 1 -181 -6 -242 -87 -54 -72 -58 -91
-27 -122 26 -26 34 -62 18 -81 -28 -31 -42 -279 -20 -341 10 -27 10 -38 0 -53
-16 -27 -15 -62 4 -143 16 -63 16 -70 -1 -107 -14 -30 -16 -53 -11 -107 21
-217 21 -214 -15 -285 -16 -31 -10 -86 16 -142 29 -63 31 -79 10 -96 -27 -23
-15 -54 50 -129 36 -41 65 -77 65 -81 0 -8 142 -80 157 -80 5 0 30 -13 55 -29
26 -16 61 -31 79 -33 28 -3 33 -7 34 -32 2 -50 85 -96 174 -96 43 0 75 -17 95
-51 10 -16 26 -29 37 -29 11 0 33 -10 49 -21 41 -31 137 -37 705 -45 630 -9
592 -9 674 11 59 14 74 22 86 45 20 39 52 48 215 60 128 9 149 13 180 35 20
14 45 25 56 25 11 0 51 20 88 45 38 24 82 47 100 49 17 2 72 9 121 15 50 6
109 18 132 26 48 17 178 45 208 45 11 0 50 16 87 34 45 23 92 38 142 45 51 7
95 21 139 45 36 18 84 37 107 41 24 4 52 15 62 25 28 26 138 41 278 39 119 -2
128 -1 180 26 66 33 113 35 340 11 300 -32 336 -40 403 -94 47 -38 109 -59
211 -72 84 -11 104 -20 154 -69 17 -17 41 -31 54 -31 27 0 98 -70 169 -165 24
-33 48 -63 53 -67 10 -7 239 -1 313 8 26 3 55 16 75 32 23 19 43 27 72 27 35
0 41 4 61 39 12 21 33 45 48 54 32 20 34 39 7 88 -16 27 -18 39 -10 49 9 10 7
16 -9 24 -11 6 -26 11 -34 11 -8 0 -25 8 -38 19 -18 14 -21 22 -12 32 30 38
47 552 21 670 -14 66 -13 89 3 158 10 46 10 60 -5 101 -16 45 -16 50 4 121 11
40 20 89 20 109 0 75 -98 236 -167 277 -37 22 -43 29 -43 59 0 20 -5 34 -12
35 -7 1 -51 2 -98 3 -76 1 -85 3 -88 21 -7 36 -31 52 -88 59 -72 8 -92 20 -96
53 -2 23 -9 29 -38 34 -19 3 -60 18 -90 33 -48 22 -68 26 -151 26 -117 0 -151
10 -166 50 -12 32 -46 42 -41 13 2 -13 -3 -17 -17 -16 -11 1 -60 7 -110 13
-49 6 -127 15 -173 20 -52 6 -104 19 -137 35 -63 29 -94 32 -101 8z m-1 -188
c43 -8 113 -15 154 -15 46 0 143 -14 251 -36 103 -20 190 -33 208 -29 24 4 35
0 53 -19 20 -21 27 -23 54 -14 18 6 36 15 42 19 5 5 19 9 32 9 21 0 23 -5 23
-44 0 -48 9 -56 64 -56 33 0 57 -18 69 -53 10 -27 34 -31 100 -19 77 15 98 3
131 -73 18 -39 35 -61 65 -79 23 -15 43 -37 47 -51 3 -14 22 -38 41 -54 54
-44 67 -94 67 -254 l1 -139 29 -20 28 -21 -53 -47 c-52 -46 -53 -48 -38 -71
16 -25 33 -164 34 -276 0 -54 -4 -65 -27 -90 -26 -27 -26 -29 -9 -40 29 -18
42 -89 30 -164 -6 -35 -8 -86 -4 -113 6 -47 5 -49 -39 -92 -34 -32 -56 -44
-89 -49 -60 -9 -85 0 -130 46 -21 22 -46 39 -57 39 -10 0 -26 7 -35 17 -15 15
-15 17 -1 25 9 5 16 15 16 23 0 23 -187 125 -229 125 -10 0 -50 18 -87 40 -56
33 -78 40 -120 40 -28 0 -80 9 -115 21 -35 11 -104 29 -154 39 -69 15 -95 25
-111 44 -31 35 -105 46 -314 46 -207 0 -285 -11 -318 -46 -27 -29 -39 -31
-167 -38 -55 -3 -143 -16 -195 -30 -52 -13 -128 -29 -169 -36 -40 -7 -97 -22
-125 -34 -28 -12 -69 -27 -91 -34 -157 -44 -190 -58 -203 -85 -13 -26 -14 -26
-42 -12 -16 8 -41 15 -55 15 -35 0 -95 -26 -95 -41 0 -7 -7 -21 -16 -31 -15
-16 -29 -17 -135 -11 l-118 6 -48 -31 c-26 -17 -68 -34 -93 -37 -80 -11 -87
-14 -100 -44 -15 -36 -52 -51 -131 -51 -69 0 -177 -21 -248 -50 -97 -38 -134
-42 -219 -23 -42 9 -111 17 -153 17 -68 1 -79 -2 -119 -29 -99 -69 -82 -65
-252 -65 l-157 0 -13 27 c-20 43 -61 56 -185 61 -84 3 -129 0 -182 -13 -39 -9
-77 -15 -85 -12 -7 3 -16 18 -19 34 -8 38 -41 53 -120 53 -78 0 -128 18 -175
61 -50 46 -75 59 -116 59 -19 0 -37 4 -41 9 -9 15 29 31 74 31 28 0 41 4 41
14 0 18 -13 22 -84 31 -35 5 -69 16 -89 31 -18 13 -51 33 -74 44 -33 16 -45
30 -60 68 -17 43 -18 86 -18 522 l0 475 31 45 c19 27 36 69 43 105 23 116 31
136 49 133 9 -2 18 -13 20 -25 8 -58 129 -124 249 -137 27 -2 59 -16 85 -35
23 -17 50 -31 59 -31 25 0 89 -29 89 -40 0 -16 57 -40 95 -40 21 0 49 -9 66
-21 24 -17 53 -22 164 -30 157 -10 209 -20 275 -54 56 -28 95 -32 104 -10 8
21 33 19 63 -5 29 -23 47 -15 57 24 8 33 23 37 168 45 120 7 131 10 180 40 45
29 58 32 98 27 98 -14 114 -12 118 9 7 37 20 38 63 6 60 -44 116 -39 200 16
25 16 66 29 129 38 50 8 102 21 115 29 14 9 40 16 60 16 20 0 47 7 60 16 17
11 36 14 56 10 35 -7 83 14 99 44 18 34 67 53 102 41 37 -13 48 -8 41 19 -7
26 29 66 71 79 17 6 63 9 102 8 63 -2 78 2 145 35 41 20 89 41 108 47 19 6 58
30 88 52 l53 41 164 9 c132 7 176 13 218 30 42 18 85 23 208 29 85 5 166 13
180 18 36 15 104 14 193 -3z"/>
<path d="M32056 6845 c-44 -8 -172 -19 -285 -25 -288 -15 -385 -29 -470 -67
-35 -16 -58 -14 -162 12 -19 5 -46 -3 -100 -29 -41 -20 -84 -36 -97 -36 -13 0
-35 -13 -51 -31 -29 -32 -101 -59 -157 -59 -19 0 -44 -9 -61 -23 -40 -34 -75
-44 -193 -57 -90 -10 -113 -17 -160 -45 -31 -18 -67 -36 -81 -40 -15 -4 -47
-24 -73 -45 -57 -48 -59 -48 -194 -64 -101 -11 -113 -15 -146 -44 -21 -18 -48
-32 -64 -33 -125 -2 -171 -9 -210 -29 -29 -15 -88 -29 -175 -41 -73 -11 -159
-29 -192 -40 -85 -30 -207 -41 -380 -34 -120 5 -153 10 -168 23 -13 12 -39 17
-90 18 -106 3 -275 52 -372 109 -93 53 -117 65 -133 65 -27 0 -60 27 -77 64
-11 22 -25 36 -43 39 -19 4 -34 19 -51 52 -30 57 -69 88 -139 110 -93 31 -185
3 -225 -67 -22 -38 -32 -143 -19 -191 13 -48 8 -62 -29 -77 -28 -12 -59 -45
-59 -63 0 -4 12 -19 26 -32 26 -24 26 -25 10 -59 -17 -35 -22 -68 -30 -191 -3
-39 -11 -85 -17 -103 -10 -29 -9 -37 7 -60 17 -24 19 -37 12 -107 -21 -227
-29 -295 -39 -324 -9 -26 -8 -35 5 -50 9 -10 16 -26 16 -37 0 -11 16 -44 35
-74 36 -58 43 -88 23 -108 -9 -9 -8 -16 5 -30 9 -10 17 -28 17 -39 0 -14 13
-26 41 -39 29 -12 46 -29 55 -51 9 -21 19 -30 28 -27 8 3 23 -4 33 -16 26 -32
111 -70 154 -70 35 0 40 -4 66 -52 36 -67 68 -85 197 -108 133 -24 169 -39
185 -77 19 -47 46 -53 220 -53 152 0 160 -1 207 -27 45 -24 58 -26 169 -27
104 0 126 3 166 22 56 27 75 28 89 2 13 -24 32 -25 63 -6 32 21 126 35 297 46
89 5 157 14 166 21 8 6 14 22 14 35 0 40 35 54 136 54 68 0 95 4 104 14 17 22
92 44 204 61 68 10 106 21 120 33 36 33 63 42 121 42 34 0 65 6 80 16 19 12
37 14 74 9 41 -5 56 -3 78 12 15 11 60 25 98 32 104 18 146 32 191 64 46 32
97 46 164 47 73 0 118 18 175 70 64 58 91 67 255 80 68 6 169 17 224 26 174
28 246 31 416 22 169 -9 269 -28 439 -84 103 -34 96 -31 236 -102 22 -11 66
-28 97 -37 52 -14 71 -29 185 -138 71 -68 146 -131 168 -142 33 -16 62 -20
161 -20 140 0 167 9 185 64 16 49 6 214 -31 505 -16 131 -30 269 -31 305 -1
106 -11 155 -33 159 -18 4 -18 -4 -13 -170 3 -95 11 -267 17 -383 11 -202 8
-315 -9 -315 -14 0 -29 23 -33 50 -3 24 -5 25 -85 26 -65 0 -86 4 -103 19 -11
10 -20 24 -20 32 0 24 -39 53 -72 53 -18 0 -40 5 -48 10 -13 9 -13 12 3 21 9
5 17 18 17 29 0 31 -56 51 -161 58 -92 7 -98 9 -127 40 -16 17 -39 32 -51 32
-11 0 -46 16 -78 35 -32 19 -68 35 -81 35 -12 0 -39 11 -60 25 -48 31 -114 51
-222 65 -49 6 -106 21 -136 35 -33 16 -68 25 -101 25 -55 0 -144 -23 -180 -48
-19 -12 -69 -17 -217 -23 -207 -8 -228 -11 -296 -39 -25 -10 -87 -23 -139 -30
-66 -8 -107 -19 -135 -36 -84 -51 -148 -76 -229 -91 -45 -8 -100 -24 -122 -34
-24 -12 -62 -19 -95 -19 -64 0 -132 -17 -213 -54 -32 -15 -85 -29 -118 -33
-57 -6 -63 -10 -60 -44 3 -31 -28 -41 -151 -51 -134 -10 -160 -18 -176 -54 -6
-12 -25 -30 -43 -40 -33 -16 -36 -16 -247 2 -74 6 -118 -3 -154 -33 -40 -34
-321 -74 -379 -54 -43 15 -80 14 -105 -3 -11 -8 -48 -28 -82 -46 -75 -38 -102
-31 -102 25 0 29 -4 35 -22 35 -12 0 -29 -6 -37 -14 -21 -18 -104 -46 -138
-46 -23 0 -25 3 -19 30 6 34 -16 52 -37 31 -6 -6 -25 -11 -42 -11 -33 0 -210
43 -330 80 -38 12 -79 24 -90 27 -11 3 -32 14 -46 24 -15 10 -50 24 -78 30
-36 8 -66 23 -103 54 -28 24 -89 63 -136 87 -82 41 -86 45 -102 91 -8 27 -25
56 -37 65 -32 26 -43 56 -43 115 0 38 7 68 25 100 l24 46 -21 48 c-17 38 -22
74 -26 177 -6 169 10 285 47 328 24 30 26 39 29 152 4 180 -1 170 85 163 81
-6 113 -18 175 -64 24 -17 60 -37 80 -44 20 -6 54 -24 74 -40 31 -24 46 -29
94 -29 43 0 71 -7 116 -30 33 -17 93 -37 133 -45 41 -7 95 -25 122 -39 53 -28
95 -32 155 -14 33 10 44 9 61 -3 17 -11 75 -15 270 -17 l247 -3 33 32 c38 38
77 48 197 49 123 0 204 16 290 57 146 69 163 75 265 82 81 6 107 12 131 30 17
12 55 26 85 30 30 4 75 17 101 29 26 12 57 22 70 22 68 0 100 13 113 44 7 17
22 39 32 48 37 34 118 68 172 74 31 4 90 21 131 39 68 31 83 34 168 33 58 -1
97 3 104 10 7 7 20 12 30 12 30 0 20 18 -17 31 -19 7 -34 17 -32 22 1 5 50 10
107 11 89 2 120 7 205 36 97 33 104 34 250 33 83 -1 170 -2 195 -3 25 -1 88 1
141 5 120 9 229 -5 341 -46 61 -22 96 -30 133 -27 50 3 50 3 53 -29 2 -18 11
-37 20 -42 9 -5 71 -14 137 -20 213 -21 274 -42 301 -106 l14 -34 30 17 c27
15 32 15 40 2 6 -8 9 -33 8 -55 l-3 -40 88 0 c87 0 89 0 115 -32 16 -20 40
-35 60 -39 18 -4 41 -18 52 -32 22 -28 27 -91 8 -110 -10 -10 -10 -17 0 -32
18 -29 15 -57 -10 -102 -18 -32 -20 -42 -10 -58 16 -26 26 -47 46 -92 14 -34
20 -38 52 -38 20 0 48 -9 65 -21 35 -25 102 -23 107 2 2 9 -15 37 -37 62 -21
26 -42 60 -46 77 -9 40 16 80 50 80 15 0 29 9 36 22 17 32 4 122 -25 173 -14
24 -26 53 -26 65 0 25 -23 72 -58 118 -13 18 -28 47 -31 65 -7 32 -8 32 -73
37 -54 4 -72 10 -95 31 -28 27 -58 39 -252 100 -64 20 -121 45 -147 65 -58 45
-72 51 -135 58 -31 4 -74 17 -95 28 -44 24 -140 47 -198 48 -21 0 -89 13 -150
29 -61 16 -138 34 -171 41 -33 6 -67 13 -75 15 -8 1 -51 -3 -94 -10z m-4232
-1911 c21 -8 21 -40 0 -48 -41 -16 -73 22 -36 43 21 13 17 12 36 5z m2872 -15
c3 -6 -1 -18 -10 -27 -15 -15 -17 -15 -32 0 -19 19 -11 38 16 38 10 0 22 -5
26 -11z"/>
<path d="M32019 5034 c-11 -14 -10 -18 6 -30 10 -8 25 -14 32 -14 23 0 27 30
7 45 -24 18 -29 18 -45 -1z"/>
<path d="M31623 4959 c-16 -6 -23 -17 -23 -35 0 -23 -3 -25 -22 -19 -54 17
-87 15 -158 -8 -41 -14 -105 -28 -142 -32 -71 -8 -92 -21 -124 -74 -13 -21
-30 -33 -62 -41 -24 -6 -80 -35 -124 -65 -44 -30 -88 -55 -98 -55 -9 0 -29 -9
-44 -21 -35 -27 -34 -68 3 -119 17 -24 31 -58 35 -88 3 -27 22 -80 41 -118 35
-70 53 -123 74 -226 9 -41 18 -59 32 -63 10 -4 22 -18 25 -33 3 -15 15 -49 26
-76 12 -30 24 -91 29 -155 13 -144 81 -358 139 -431 15 -19 34 -50 44 -67 23
-46 49 -59 139 -72 108 -15 139 -14 235 10 79 20 85 21 125 5 40 -15 44 -15
95 6 l54 22 40 -23 c37 -21 41 -21 52 -6 11 16 15 16 42 2 23 -12 34 -13 49
-4 28 16 217 15 286 -2 52 -12 60 -12 116 9 57 20 62 21 91 6 23 -12 61 -16
149 -16 110 0 297 13 370 25 50 9 88 54 101 122 18 87 42 224 42 234 0 5 -35
9 -77 9 -105 0 -126 12 -136 75 -15 89 -17 95 -30 95 -7 0 -22 6 -33 14 -16
12 -20 31 -24 110 -6 93 -7 97 -38 126 -18 16 -32 36 -32 44 0 9 -8 16 -18 16
-27 0 -52 32 -59 76 -7 47 -20 75 -44 92 -24 17 -39 73 -39 151 0 53 -5 74
-30 117 -17 31 -34 80 -40 121 -15 95 -22 106 -84 152 -30 22 -57 50 -61 61
-4 11 -25 33 -48 47 -23 14 -49 36 -59 48 -29 38 -89 48 -273 47 -118 -1 -185
-6 -219 -16 -43 -13 -53 -13 -84 0 -33 13 -37 13 -54 -6 -17 -18 -21 -19 -41
-5 -45 29 -91 43 -114 34z"/>
<path d="M1445 4190 c-113 -10 -220 -43 -252 -78 -13 -15 -41 -46 -63 -69 -24
-26 -42 -57 -46 -80 -4 -20 -22 -64 -40 -98 -19 -34 -54 -116 -79 -181 -25
-65 -70 -168 -100 -229 -30 -60 -60 -132 -66 -160 -7 -28 -26 -64 -44 -85 -19
-20 -42 -64 -55 -105 -12 -38 -29 -78 -38 -87 -28 -33 4 -62 88 -77 34 -6 35
-8 32 -48 -4 -57 18 -62 67 -18 21 19 42 35 47 35 5 0 31 -18 57 -40 56 -46
94 -55 185 -46 48 5 91 18 150 47 77 37 106 69 65 69 -15 0 -13 4 7 20 14 11
29 20 33 20 20 0 81 58 93 87 8 18 14 57 14 86 0 78 17 155 40 184 15 19 20
41 20 85 0 64 11 91 59 152 22 27 31 50 31 75 0 38 14 84 43 140 9 19 17 49
17 68 0 48 24 89 60 101 47 17 40 48 -30 120 -33 34 -60 66 -60 71 0 36 -94
52 -235 41z"/>
<path d="M19841 2876 c-14 -17 -11 -78 5 -83 10 -3 54 65 54 86 0 16 -45 14
-59 -3z"/>
</g>
</svg>
