<?xml version="1.0" standalone="no"?>
<!DOCTYPE svg PUBLIC "-//W3C//DTD SVG 20010904//EN"
 "http://www.w3.org/TR/2001/REC-SVG-20010904/DTD/svg10.dtd">
<svg version="1.0" xmlns="http://www.w3.org/2000/svg"
 width="2133.000000pt" height="1429.000000pt" viewBox="0 0 2133.000000 1429.000000"
 preserveAspectRatio="xMidYMid meet">

<g transform="translate(0.000000,1429.000000) scale(0.100000,-0.100000)"
fill="#ffffff" stroke="none">
<path d="M10178 11779 c-21 -10 -68 -26 -105 -35 -37 -8 -78 -22 -90 -30 -12
-8 -36 -14 -53 -14 -41 0 -69 -16 -80 -46 -11 -28 -59 -60 -111 -74 -28 -8
-39 -18 -50 -45 -19 -48 -98 -140 -134 -156 -38 -18 -64 -64 -72 -128 -3 -28
-12 -56 -19 -62 -8 -6 -14 -26 -14 -44 0 -43 -9 -65 -26 -65 -15 0 -67 -106
-59 -119 6 -10 -36 -94 -52 -104 -8 -5 -13 -29 -13 -65 -1 -31 -8 -75 -17 -97
-9 -22 -17 -72 -19 -112 -2 -43 -9 -82 -18 -95 -9 -13 -19 -57 -22 -98 -6 -64
-11 -78 -36 -101 -24 -21 -31 -38 -39 -94 -5 -38 -17 -77 -26 -87 -11 -12 -18
-46 -23 -103 -5 -64 -12 -93 -28 -114 -19 -26 -20 -31 -6 -42 14 -11 14 -13
-1 -21 -9 -6 -14 -17 -11 -26 6 -20 -1 -33 -29 -48 -11 -6 -22 -22 -23 -34 -2
-13 -10 -33 -17 -44 -7 -12 -16 -50 -19 -84 -4 -35 -12 -76 -18 -90 -6 -15
-14 -64 -18 -109 -6 -72 -10 -86 -33 -107 -19 -18 -27 -35 -27 -59 0 -19 -6
-40 -14 -46 -8 -6 -17 -37 -21 -69 -3 -31 -17 -80 -31 -109 -16 -35 -24 -70
-24 -106 0 -42 -5 -58 -21 -73 -19 -17 -20 -26 -15 -85 6 -58 4 -67 -14 -84
-11 -10 -29 -48 -40 -85 -11 -37 -27 -73 -35 -80 -8 -7 -15 -18 -15 -25 0 -7
-11 -33 -25 -56 -19 -34 -25 -58 -25 -106 0 -70 -6 -93 -25 -93 -8 0 -19 -15
-25 -34 -6 -19 -18 -40 -26 -46 -19 -16 -18 -102 1 -140 9 -16 27 -33 40 -36
16 -4 25 -13 25 -25 0 -11 5 -29 12 -42 6 -12 14 -28 17 -36 4 -7 29 -22 56
-32 27 -10 60 -30 72 -44 27 -29 45 -32 63 -9 8 8 28 21 45 29 25 10 34 21 39
49 4 19 15 41 26 49 30 21 41 61 31 113 -5 25 -14 51 -19 56 -8 8 -5 18 8 36
11 14 20 33 20 43 0 9 6 19 13 21 8 3 14 38 17 106 5 88 8 104 29 125 22 24
22 26 4 36 -17 10 -17 12 0 21 9 6 17 19 17 29 0 10 9 30 20 44 13 17 20 40
20 70 0 39 5 49 34 75 30 26 33 32 20 43 -16 13 -11 44 13 71 20 23 34 89 22
104 -7 9 -3 17 13 28 12 9 28 16 34 16 19 0 25 46 13 96 -12 45 -11 47 18 70
48 37 65 71 77 158 9 68 15 83 34 91 17 8 22 18 22 48 0 21 7 61 17 89 13 41
14 57 5 81 -10 26 -9 33 9 51 24 25 51 91 50 122 0 12 8 29 19 39 11 10 20 24
20 30 0 7 11 38 26 68 14 31 29 78 34 104 27 142 49 226 63 241 9 9 20 29 26
45 6 15 17 27 26 27 18 0 20 16 3 23 -10 4 -10 7 0 18 6 7 12 34 12 59 0 33 5
50 20 63 11 10 20 29 20 46 0 23 8 34 36 50 l37 22 -7 70 c-6 67 -5 70 18 79
13 5 28 15 33 23 4 8 30 33 56 56 38 32 56 41 85 41 60 0 111 -19 133 -50 12
-16 41 -43 65 -60 28 -20 44 -39 44 -52 0 -12 20 -65 45 -119 25 -54 45 -104
45 -111 0 -7 15 -25 34 -40 23 -18 36 -39 41 -65 7 -41 28 -83 62 -125 12 -15
31 -53 43 -84 11 -32 30 -69 40 -84 11 -15 22 -46 26 -69 4 -24 17 -55 30 -71
18 -20 22 -35 18 -56 -4 -21 1 -38 20 -64 36 -49 66 -107 66 -124 0 -9 11 -23
25 -32 17 -11 25 -26 25 -44 0 -15 9 -35 20 -45 15 -13 20 -31 20 -66 0 -35 5
-52 18 -61 35 -26 82 -108 76 -133 -5 -19 0 -27 24 -39 22 -12 32 -26 41 -62
7 -26 23 -61 37 -77 13 -15 24 -39 24 -51 0 -32 38 -116 56 -123 9 -3 14 -19
14 -42 0 -27 7 -44 25 -61 17 -16 25 -34 25 -57 0 -26 4 -33 19 -33 27 0 35
-17 32 -68 -2 -30 3 -49 15 -63 17 -19 74 -150 74 -172 0 -6 9 -21 21 -33 11
-12 25 -39 30 -61 6 -21 14 -52 18 -70 5 -17 18 -47 30 -66 11 -19 21 -42 21
-50 0 -9 9 -21 20 -27 11 -6 20 -19 20 -30 0 -10 16 -32 37 -47 43 -33 72 -93
73 -149 0 -25 7 -50 18 -63 17 -21 106 -54 116 -43 4 3 6 38 6 78 0 63 3 75
20 84 11 6 20 19 20 29 0 10 10 26 21 37 26 23 49 74 49 109 0 15 7 33 15 41
8 9 15 25 15 37 0 12 8 38 19 57 10 19 22 51 26 70 4 19 16 49 26 66 13 21 19
50 19 90 0 48 6 67 29 102 16 23 35 64 42 91 9 35 19 52 36 60 13 6 23 17 23
25 0 8 13 25 29 38 42 33 41 48 -4 72 -30 16 -39 27 -36 41 2 11 4 49 5 85 1
62 0 65 -21 62 -19 -3 -23 1 -23 23 0 18 -6 29 -20 32 -15 4 -20 14 -20 37 0
17 -9 45 -20 61 -11 17 -20 40 -20 51 0 12 -9 33 -21 47 -11 15 -21 38 -22 52
-1 15 -13 34 -26 44 -18 14 -24 29 -27 66 -2 37 -9 53 -26 66 -18 14 -22 25
-19 59 2 38 1 41 -18 35 -20 -6 -21 -3 -21 58 0 62 -1 65 -27 70 -35 7 -54 38
-64 102 -6 35 -16 57 -34 72 -14 12 -25 28 -25 36 0 8 -8 25 -19 38 -18 24
-28 58 -37 134 -9 70 -13 82 -34 88 -14 4 -20 13 -20 35 0 21 -8 35 -25 46
-14 9 -25 24 -25 34 0 10 -11 34 -25 54 -14 20 -25 45 -25 56 0 10 -11 33 -25
52 -14 19 -25 42 -25 52 0 10 -11 28 -25 40 -21 18 -24 28 -19 54 5 25 1 40
-15 60 -13 16 -21 41 -21 63 0 20 -7 47 -16 59 -8 12 -30 50 -48 85 -17 34
-39 76 -49 92 -9 17 -19 42 -22 56 -3 18 -11 26 -22 25 -14 -1 -19 8 -21 34
-5 63 -11 78 -37 84 -15 4 -25 13 -25 25 0 10 -9 26 -20 36 -11 10 -20 26 -20
36 0 38 -12 49 -51 49 -39 0 -52 13 -24 24 34 13 4 57 -62 90 -18 9 -33 23
-33 30 0 20 -54 63 -90 71 -16 4 -30 10 -30 14 0 5 -16 29 -35 55 -28 36 -42
46 -64 46 -16 0 -44 6 -63 14 -19 8 -70 18 -114 22 -69 6 -82 10 -104 36 -29
33 -51 34 -102 7z m-661 -1375 c7 -19 -4 -31 -40 -40 l-29 -7 16 32 c18 33 43
41 53 15z"/>
<path d="M13671 9850 c-24 -5 -48 -13 -55 -18 -6 -5 -24 -12 -40 -16 -16 -4
-41 -16 -54 -27 -14 -10 -34 -19 -45 -19 -11 0 -30 -8 -41 -18 -12 -10 -37
-25 -56 -32 -47 -18 -108 -67 -131 -103 -9 -17 -39 -46 -65 -66 -33 -25 -51
-47 -57 -71 -5 -19 -24 -51 -43 -72 -18 -21 -36 -50 -40 -65 -4 -16 -14 -37
-24 -48 -27 -30 -37 -56 -53 -123 -12 -54 -12 -63 0 -74 12 -10 10 -14 -11
-25 -23 -12 -26 -19 -26 -72 0 -44 -5 -65 -21 -86 -12 -14 -23 -41 -25 -58 -2
-17 -18 -49 -35 -70 -26 -33 -30 -45 -26 -75 4 -26 0 -51 -13 -81 -11 -24 -20
-58 -20 -76 0 -42 -9 -65 -25 -65 -17 0 -25 -33 -25 -107 0 -59 -1 -61 -30
-72 -30 -10 -38 -25 -20 -36 16 -10 12 -136 -5 -165 -8 -14 -22 -41 -31 -60
-9 -19 -27 -48 -40 -63 -21 -24 -24 -39 -24 -103 0 -67 -2 -75 -25 -90 -18
-11 -25 -25 -25 -46 0 -17 -9 -45 -19 -62 -11 -17 -24 -60 -30 -94 -11 -71
-16 -82 -37 -82 -20 0 -29 -27 -15 -44 8 -9 8 -22 2 -38 -7 -19 -6 -29 7 -41
15 -15 14 -19 -8 -42 -20 -21 -25 -40 -30 -108 -5 -60 -13 -95 -32 -132 -15
-27 -30 -62 -33 -78 -4 -15 -16 -33 -26 -40 -17 -12 -17 -15 -2 -36 13 -19 13
-27 3 -49 -7 -15 -20 -53 -30 -84 -9 -31 -27 -69 -39 -84 -14 -17 -21 -41 -21
-68 0 -54 -15 -104 -39 -130 -37 -39 -81 -162 -92 -254 -9 -80 -13 -89 -42
-114 -28 -23 -32 -33 -32 -75 0 -42 -3 -48 -22 -51 -20 -3 -23 -9 -23 -51 0
-32 -8 -64 -25 -95 -14 -26 -25 -55 -25 -64 0 -10 -9 -23 -20 -29 -12 -8 -19
-23 -19 -40 1 -34 -30 -123 -42 -123 -5 0 -9 -23 -9 -52 0 -34 -6 -58 -16 -70
-10 -10 -21 -41 -25 -69 -5 -32 -15 -57 -27 -65 -13 -9 -21 -30 -25 -63 -3
-28 -18 -71 -32 -95 -18 -31 -24 -52 -19 -70 4 -16 0 -33 -10 -48 -9 -12 -16
-33 -16 -46 0 -13 -11 -37 -25 -54 -21 -25 -25 -40 -25 -97 0 -63 -2 -69 -25
-79 -22 -10 -25 -18 -25 -64 0 -61 23 -113 63 -142 24 -17 43 -20 156 -20 71
-1 132 2 136 6 4 4 12 51 17 104 6 67 15 107 28 129 11 18 20 44 20 58 0 15 9
41 20 59 11 18 20 42 20 54 0 11 6 29 14 39 10 14 11 23 3 37 -10 15 -4 25 32
62 38 39 42 47 31 61 -11 13 -10 19 8 38 12 13 26 47 32 78 7 36 18 61 35 76
19 17 24 30 22 59 -2 33 1 38 23 44 17 4 21 8 12 14 -20 12 -14 56 10 76 19
15 21 20 9 34 -12 14 -11 19 7 37 18 16 22 31 22 78 0 43 5 65 20 84 11 14 20
40 20 58 0 19 8 42 20 54 10 11 22 40 25 65 3 24 14 53 24 65 11 11 22 41 26
67 4 26 16 54 26 64 10 9 19 30 19 45 0 15 4 31 10 34 6 4 5 13 -3 26 -10 18
-8 23 15 44 15 12 33 25 40 28 9 4 4 13 -16 30 l-30 24 29 14 c32 15 43 51 44
136 1 29 8 50 26 71 17 20 21 32 14 39 -13 13 -3 20 42 28 49 9 54 19 29 53
l-23 31 32 47 c20 31 31 60 31 83 0 20 9 50 20 66 11 17 20 47 20 70 0 22 7
51 15 65 46 80 49 91 37 110 -17 28 -15 41 14 71 18 19 28 43 32 80 6 46 11
56 35 67 32 16 34 27 7 42 -21 11 -20 12 9 46 17 19 33 47 36 62 3 15 12 47
20 72 8 25 15 79 15 120 0 71 2 77 30 102 25 22 30 34 30 70 0 26 8 55 20 73
11 17 20 42 20 57 0 18 7 29 20 33 23 7 25 16 9 32 -8 8 -2 16 21 29 34 21 40
37 37 104 -2 65 10 99 38 110 22 8 25 16 25 57 0 40 4 50 23 58 18 8 22 19 24
60 1 42 6 54 32 76 22 18 28 28 20 36 -15 15 -4 46 35 92 19 22 37 56 40 75 4
22 14 37 26 41 11 4 20 13 20 22 0 47 100 128 170 138 48 6 67 -3 158 -70 34
-26 39 -34 35 -58 -4 -19 0 -35 14 -50 27 -29 38 -52 52 -111 7 -27 19 -58 27
-70 7 -11 14 -30 14 -41 0 -12 12 -28 29 -38 16 -9 37 -34 46 -54 10 -21 26
-49 36 -62 10 -12 21 -39 25 -60 4 -20 16 -51 27 -70 18 -29 19 -38 8 -68 -14
-38 -13 -39 25 -62 26 -16 33 -31 64 -151 7 -25 16 -53 21 -62 5 -10 9 -34 9
-54 0 -26 8 -46 29 -69 16 -19 31 -50 35 -73 4 -26 13 -45 26 -52 11 -6 20
-21 20 -34 0 -13 16 -47 35 -75 22 -31 35 -62 35 -82 0 -31 20 -66 71 -126 23
-27 26 -37 22 -78 -5 -40 -2 -50 20 -73 19 -21 26 -41 29 -85 3 -38 12 -68 26
-87 12 -16 22 -37 22 -47 0 -10 6 -27 14 -38 7 -11 17 -34 20 -51 4 -18 16
-40 27 -50 21 -19 26 -54 7 -54 -7 -1 2 -13 20 -29 25 -22 32 -35 32 -64 0
-29 6 -41 30 -59 20 -15 26 -24 18 -29 -9 -6 -9 -13 0 -34 7 -14 12 -35 12
-45 0 -11 9 -25 19 -32 15 -9 18 -19 14 -45 -5 -28 -2 -34 21 -43 23 -8 26
-15 26 -56 0 -35 5 -50 22 -64 12 -10 23 -29 23 -42 1 -14 17 -41 38 -62 20
-20 37 -45 37 -56 0 -10 7 -31 15 -47 8 -15 17 -44 20 -64 3 -21 17 -54 31
-75 21 -30 24 -42 15 -54 -26 -35 -23 -42 22 -81 34 -29 50 -53 62 -92 10 -28
26 -66 37 -84 15 -26 17 -36 8 -53 -16 -29 -7 -46 27 -53 27 -5 28 -8 25 -55
-3 -35 3 -64 17 -97 12 -26 21 -56 21 -67 0 -11 9 -31 20 -45 24 -31 26 -51 3
-32 -15 12 -16 12 -10 -4 4 -10 7 -22 7 -27 0 -4 18 -31 40 -59 29 -36 40 -60
40 -84 0 -18 7 -42 15 -53 8 -10 15 -29 15 -42 0 -13 7 -37 16 -53 8 -17 19
-56 24 -87 6 -34 16 -61 26 -67 9 -5 39 -25 67 -42 56 -36 107 -43 128 -17 8
9 30 27 51 40 20 13 40 34 44 46 3 13 17 34 30 47 19 19 24 34 24 76 0 39 5
56 20 70 19 17 43 80 55 145 10 53 25 88 42 94 14 6 13 9 -3 27 -18 20 -18 21
6 40 14 10 29 19 34 19 4 0 6 12 3 26 -4 21 1 30 29 46 36 21 45 53 22 76 -9
9 -8 12 5 12 12 0 17 8 17 30 0 20 7 33 23 41 28 15 37 28 37 55 0 12 7 28 16
35 12 9 14 23 10 50 -5 31 -2 39 17 52 12 8 33 35 46 60 13 25 30 48 37 51 8
3 13 21 12 49 0 31 7 58 26 89 14 25 26 56 26 70 0 14 8 32 19 42 14 13 17 26
13 67 -4 44 -2 51 16 56 11 2 26 18 32 33 7 17 24 33 41 39 32 11 38 26 14 35
-19 7 -19 35 0 42 11 5 12 11 4 25 -8 15 -5 25 10 46 12 14 21 36 21 50 0 16
8 27 24 33 34 12 41 28 22 49 -19 21 -12 31 21 31 23 0 27 7 24 46 -3 34 38
177 58 204 10 14 21 35 25 47 10 32 82 65 153 71 52 4 66 1 89 -17 15 -11 33
-21 40 -21 7 0 29 -15 48 -32 18 -18 43 -40 55 -48 15 -11 23 -33 31 -79 6
-39 16 -68 25 -73 8 -5 15 -19 15 -31 0 -30 55 -135 85 -163 26 -24 32 -53 15
-83 -7 -14 -4 -25 15 -45 14 -15 25 -33 25 -41 0 -7 14 -23 30 -35 17 -12 30
-30 30 -40 0 -10 9 -46 20 -81 18 -58 29 -79 82 -158 27 -40 38 -69 38 -102 0
-17 8 -36 20 -46 13 -12 20 -30 20 -55 0 -52 15 -85 60 -135 41 -44 48 -69 29
-104 -13 -26 4 -49 37 -49 21 0 24 -5 24 -34 0 -18 -7 -39 -15 -46 -23 -19
-18 -38 14 -45 23 -5 30 -13 35 -40 4 -18 15 -44 26 -58 11 -14 20 -32 20 -41
0 -8 11 -36 25 -62 14 -26 25 -55 25 -64 0 -10 9 -29 20 -43 11 -14 20 -37 20
-51 0 -36 20 -75 42 -82 26 -8 49 -57 55 -120 5 -45 11 -58 34 -75 18 -13 29
-29 29 -44 0 -15 12 -33 32 -49 l32 -25 -22 -24 c-32 -34 -28 -63 29 -183 39
-84 49 -116 45 -140 -5 -26 -2 -32 18 -42 17 -7 29 -25 36 -52 9 -34 15 -40
38 -41 78 -3 132 20 142 61 5 22 13 26 60 31 30 3 69 13 86 22 17 9 55 19 85
23 30 4 71 13 93 20 21 8 49 14 63 14 13 0 36 8 50 18 23 14 58 18 211 22 167
5 185 7 198 24 20 28 17 59 -6 74 -12 7 -20 23 -20 40 0 47 -30 135 -61 176
-16 22 -29 48 -29 57 0 10 -11 30 -24 46 -13 16 -31 51 -39 79 -8 28 -29 75
-46 106 -17 30 -36 81 -42 113 -6 33 -19 70 -30 83 -10 14 -19 36 -19 49 0 16
-7 27 -20 30 -15 4 -20 14 -20 43 0 30 -5 39 -26 49 -18 8 -24 17 -20 27 3 9
-3 31 -15 50 -14 23 -21 52 -22 89 -1 45 -4 55 -19 55 -22 0 -48 49 -48 90 0
42 -26 95 -56 115 -18 12 -24 24 -24 54 0 28 -11 55 -45 107 -25 37 -45 77
-45 89 0 11 -9 38 -19 61 -16 35 -17 44 -5 67 13 25 12 27 -29 54 -33 23 -43
35 -45 63 -2 18 -17 53 -33 77 -35 50 -59 114 -59 154 0 19 -14 44 -45 78 -44
50 -56 83 -52 146 2 26 -2 30 -25 33 -30 4 -38 29 -13 38 13 5 13 8 0 27 -8
12 -15 41 -15 64 0 34 -5 46 -25 59 -15 10 -25 26 -25 40 0 13 -9 28 -20 34
-14 7 -20 21 -20 43 0 21 -10 45 -30 69 -37 44 -50 78 -50 127 0 25 -7 44 -20
56 -11 10 -20 26 -20 36 0 10 -13 25 -30 34 -21 11 -30 23 -30 40 0 14 -8 29
-20 35 -10 6 -39 41 -63 78 -24 37 -60 78 -80 92 -22 15 -39 36 -43 53 -3 16
-16 33 -30 39 -14 7 -40 33 -59 60 -19 26 -42 48 -51 48 -9 0 -25 11 -35 24
-11 14 -45 37 -76 52 -57 26 -58 27 -303 28 l-247 1 -39 -27 c-22 -16 -48 -28
-58 -28 -9 0 -24 -7 -32 -15 -9 -8 -36 -20 -60 -26 -32 -8 -49 -19 -59 -38
-14 -28 -88 -101 -140 -138 -25 -18 -27 -23 -16 -36 15 -19 7 -37 -18 -37 -25
0 -48 -37 -66 -106 -10 -38 -28 -73 -58 -108 -59 -70 -59 -69 -41 -111 14 -35
14 -37 -5 -42 -22 -6 -51 -59 -51 -95 0 -12 -9 -43 -20 -67 -11 -24 -20 -64
-20 -91 0 -35 -5 -52 -21 -66 -12 -10 -28 -34 -36 -52 -7 -18 -24 -37 -37 -42
-37 -14 -47 -39 -29 -73 14 -27 13 -32 -6 -58 -12 -15 -21 -37 -21 -47 0 -11
-10 -32 -22 -47 -12 -15 -25 -50 -29 -77 -5 -28 -15 -58 -22 -67 -8 -9 -18
-27 -21 -41 -11 -40 -28 -70 -40 -70 -11 0 -24 22 -63 102 -10 20 -28 42 -40
47 -26 12 -30 41 -10 71 11 18 8 23 -20 46 -20 15 -33 34 -33 48 0 13 -13 48
-30 79 -16 31 -30 65 -30 75 0 11 -9 27 -20 37 -11 10 -17 21 -14 26 8 14 -18
87 -38 105 -10 10 -18 25 -18 35 0 10 -12 24 -27 31 -15 7 -30 25 -34 42 -5
16 -17 38 -27 50 -11 11 -22 37 -25 56 -9 59 -56 183 -77 202 -11 10 -20 28
-20 40 0 12 -14 45 -30 75 -17 29 -35 76 -41 105 -6 28 -20 65 -30 82 -10 17
-19 38 -19 47 0 9 -9 28 -20 42 -11 14 -20 36 -20 49 0 38 -11 68 -25 68 -15
0 -25 22 -25 54 0 12 -9 39 -20 61 -11 22 -20 45 -20 52 0 7 -9 18 -20 25 -11
7 -20 17 -20 21 0 16 -71 170 -92 199 -15 22 -18 37 -14 61 14 67 13 71 -26
89 -28 14 -38 24 -38 42 0 13 -10 30 -21 38 -16 10 -23 27 -27 66 -3 34 -11
57 -22 65 -10 7 -17 25 -17 44 0 21 -10 43 -31 67 -43 50 -75 155 -67 223 6
49 5 52 -22 65 -29 14 -34 36 -18 85 6 18 2 25 -19 33 -20 7 -26 16 -26 38 0
20 -15 46 -50 87 -42 47 -50 63 -48 89 3 29 1 31 -25 28 -22 -3 -35 5 -61 32
-18 20 -53 49 -78 65 -25 16 -58 45 -73 66 -28 35 -90 75 -118 75 -8 0 -17 9
-20 20 -3 12 -14 20 -27 20 -11 0 -35 7 -52 16 -37 19 -315 29 -387 14z m4927
-4028 c3 -9 -2 -13 -14 -10 -9 1 -19 9 -22 16 -3 9 2 13 14 10 9 -1 19 -9 22
-16z"/>
<path d="M6950 9831 c-8 -5 -40 -14 -70 -20 -30 -7 -61 -18 -70 -25 -8 -7 -26
-16 -40 -19 -14 -4 -47 -21 -75 -39 -27 -18 -69 -44 -95 -58 -28 -16 -57 -44
-78 -75 -18 -27 -42 -54 -52 -59 -22 -10 -60 -82 -60 -113 0 -13 -13 -29 -34
-41 -19 -12 -44 -39 -56 -61 -11 -22 -34 -50 -50 -63 -19 -14 -30 -31 -30 -46
0 -13 -6 -36 -14 -50 -8 -15 -19 -38 -25 -52 -7 -14 -19 -36 -27 -50 -10 -17
-13 -41 -10 -77 4 -46 1 -57 -25 -92 -24 -33 -29 -51 -29 -95 0 -35 -5 -58
-13 -63 -8 -4 -33 -48 -57 -98 -33 -70 -45 -107 -51 -167 -6 -62 -13 -84 -38
-119 -38 -51 -39 -65 -6 -73 23 -6 24 -9 14 -29 -7 -12 -30 -41 -51 -65 -29
-32 -37 -46 -29 -56 8 -9 4 -22 -14 -46 -14 -19 -25 -45 -25 -59 0 -14 -7 -35
-15 -45 -10 -13 -15 -43 -15 -82 0 -54 -3 -64 -20 -69 -29 -9 -53 -50 -45 -75
5 -17 1 -23 -25 -33 -20 -8 -30 -17 -27 -27 10 -38 -26 -178 -74 -291 -28 -67
-51 -132 -51 -145 0 -14 -4 -27 -9 -30 -5 -3 -9 -18 -9 -33 0 -16 -7 -34 -15
-41 -8 -7 -15 -27 -15 -44 0 -24 -7 -35 -30 -48 -30 -17 -31 -18 -15 -48 18
-35 9 -61 -33 -96 l-26 -21 13 -74 c8 -41 18 -83 23 -94 16 -30 60 -75 91 -91
15 -8 27 -21 27 -29 0 -8 26 -34 58 -57 53 -40 61 -43 122 -43 l64 0 8 43 c4
24 16 58 28 76 11 19 20 43 20 55 0 12 7 35 15 51 8 16 18 58 21 92 8 95 12
108 34 108 24 0 35 17 21 34 -9 10 -5 17 14 30 16 10 23 22 18 29 -4 7 -6 44
-4 82 2 61 6 72 27 88 17 13 24 28 24 53 0 27 4 34 20 34 19 0 20 7 20 94 0
89 1 95 25 110 15 10 25 26 25 41 0 13 10 34 22 45 24 22 31 86 16 140 -6 21
-2 28 22 42 19 11 30 25 30 39 0 12 9 37 21 56 12 18 19 40 16 47 -3 7 -1 18
4 23 6 6 5 21 -2 41 -6 18 -8 44 -5 57 5 20 13 25 37 25 26 0 29 3 24 21 -5
15 0 29 18 47 31 32 47 72 47 115 0 17 9 40 20 52 11 12 23 42 26 71 4 27 12
56 19 64 7 8 18 33 25 55 7 22 21 56 31 75 11 19 16 43 13 52 -3 10 2 33 11
51 9 17 26 64 36 102 22 77 54 132 104 179 18 17 35 40 37 51 5 29 59 44 166
44 92 1 92 1 92 -24 0 -30 25 -95 37 -95 5 0 20 -11 34 -24 23 -21 28 -36 34
-103 7 -75 19 -108 35 -98 14 9 29 -20 43 -81 8 -32 24 -75 36 -94 11 -19 21
-49 21 -67 0 -21 6 -36 18 -42 10 -5 18 -20 19 -33 1 -12 14 -51 28 -85 14
-35 25 -75 25 -91 0 -28 37 -76 76 -98 14 -8 16 -14 8 -25 -6 -8 -9 -35 -6
-61 3 -39 8 -48 23 -48 23 0 39 -29 39 -72 0 -28 5 -35 30 -45 24 -9 30 -17
30 -41 0 -29 21 -62 41 -62 5 0 9 -10 9 -23 0 -12 6 -31 14 -42 7 -11 16 -41
20 -67 4 -25 16 -56 26 -69 11 -12 20 -36 20 -53 0 -17 6 -43 14 -58 8 -14 19
-43 26 -65 7 -21 18 -45 26 -53 7 -9 18 -46 24 -84 11 -68 50 -149 115 -236
14 -19 36 -48 48 -65 12 -16 20 -37 19 -47 -2 -10 11 -36 29 -58 26 -32 39
-40 65 -40 18 0 36 -5 39 -10 4 -6 30 -22 58 -36 29 -15 75 -48 103 -74 67
-63 122 -90 208 -102 39 -5 82 -17 96 -26 24 -15 51 -19 410 -53 126 -12 470
-5 517 11 15 5 72 14 126 20 55 6 108 15 120 22 12 6 40 10 62 10 31 -2 47 4
63 21 27 28 52 88 52 124 0 15 7 37 15 47 19 25 19 36 0 36 -25 0 -23 110 3
150 12 19 17 67 23 205 5 115 14 198 23 229 9 28 16 85 16 132 0 75 -2 85 -27
113 -33 38 -63 39 -118 6 -22 -14 -51 -25 -64 -25 -13 0 -36 -11 -51 -23 -21
-18 -45 -25 -99 -30 -46 -4 -93 -16 -129 -32 -37 -17 -89 -30 -147 -37 -49 -5
-112 -19 -140 -31 -64 -28 -126 -29 -154 -3 -15 14 -45 22 -92 27 -53 6 -81
15 -116 38 -24 16 -70 35 -101 41 -64 13 -108 47 -117 91 -4 15 -17 35 -31 43
-13 9 -24 23 -24 31 0 8 -11 25 -25 37 -18 16 -25 32 -25 58 0 22 -8 48 -20
63 -11 14 -20 34 -20 45 0 11 -13 53 -29 94 -16 40 -35 105 -42 143 -8 45 -20
79 -35 95 -12 14 -29 41 -37 62 -8 20 -25 39 -36 43 -23 7 -27 20 -11 30 17
11 11 44 -10 55 -16 9 -20 21 -20 66 0 69 -40 161 -77 175 -10 4 -26 29 -36
60 -34 99 -39 107 -62 113 -13 3 -25 16 -29 31 -3 13 -21 41 -38 61 -31 35
-31 37 -20 81 14 50 10 60 -23 73 -20 8 -23 14 -18 50 7 49 -16 113 -58 166
-16 20 -29 41 -29 45 0 5 -8 27 -17 50 -13 30 -25 42 -45 46 -16 3 -28 11 -28
17 0 7 -13 25 -30 41 -16 16 -30 35 -30 42 0 7 -4 13 -10 13 -5 0 -16 12 -23
26 -9 17 -17 23 -21 15 -15 -24 -26 -9 -26 35 0 39 -5 51 -34 80 -24 24 -43
34 -64 34 -41 0 -78 15 -122 50 -23 19 -58 33 -96 41 -76 15 -295 22 -314 10z"/>
<path d="M7204 8039 c-8 -14 18 -31 30 -19 9 9 0 30 -14 30 -5 0 -12 -5 -16
-11z"/>
<path d="M3560 7951 c-14 -4 -42 -15 -62 -24 -26 -12 -64 -17 -125 -17 -105 0
-159 -13 -166 -39 -3 -14 -15 -21 -38 -23 -30 -3 -34 -6 -32 -31 2 -23 -3 -30
-26 -38 -15 -5 -35 -23 -45 -39 -9 -17 -24 -30 -33 -30 -8 0 -51 -37 -94 -81
-58 -60 -78 -87 -74 -100 5 -14 -4 -23 -34 -38 -46 -24 -71 -55 -71 -89 0 -25
-14 -59 -60 -142 -17 -30 -37 -83 -45 -117 -9 -34 -22 -74 -30 -90 -41 -80
-75 -162 -75 -180 0 -11 -7 -37 -15 -56 -8 -20 -15 -59 -15 -86 0 -27 -4 -52
-9 -56 -5 -3 -17 -29 -25 -59 -9 -29 -23 -66 -31 -82 -8 -16 -15 -38 -15 -49
0 -11 -11 -37 -25 -57 -14 -20 -34 -60 -46 -90 -11 -29 -25 -58 -29 -63 -5 -7
-2 -30 8 -57 16 -46 16 -47 -5 -70 -12 -13 -26 -43 -32 -67 -5 -25 -22 -57
-41 -76 -22 -23 -33 -46 -39 -83 -4 -29 -15 -60 -25 -70 -11 -13 -16 -37 -16
-80 0 -61 0 -62 -35 -76 -39 -17 -45 -32 -15 -41 11 -3 20 -15 20 -25 0 -39
-42 -149 -70 -185 -23 -28 -30 -48 -30 -80 0 -27 -7 -50 -19 -64 -12 -13 -23
-46 -27 -79 -4 -31 -15 -73 -25 -92 -11 -19 -19 -50 -19 -68 0 -25 -5 -35 -22
-41 -17 -6 -23 -17 -23 -44 -1 -21 -13 -52 -28 -75 -15 -21 -27 -46 -27 -56 0
-9 -9 -62 -21 -117 -11 -54 -18 -103 -15 -108 10 -16 -25 -115 -50 -142 -20
-20 -24 -35 -22 -74 1 -41 -3 -51 -24 -69 -41 -33 -51 -62 -43 -122 3 -29 12
-57 18 -62 7 -5 54 -13 105 -17 88 -7 94 -9 103 -33 5 -14 8 -31 5 -38 -7 -18
-102 -37 -149 -29 -58 9 -59 9 -176 -4 -58 -6 -123 -20 -148 -31 -25 -11 -61
-20 -79 -20 -18 0 -68 -15 -111 -34 -43 -19 -96 -39 -119 -45 -23 -6 -59 -25
-80 -41 -21 -17 -54 -40 -71 -51 -27 -17 -33 -28 -33 -55 0 -25 -4 -32 -14
-28 -18 7 -46 -34 -46 -67 0 -13 0 -46 0 -74 0 -27 7 -76 15 -108 20 -77 19
-99 -5 -127 -11 -13 -18 -30 -16 -39 3 -9 8 -31 11 -49 4 -19 20 -49 37 -68
l30 -34 -26 -10 c-28 -10 -35 -37 -11 -46 22 -9 19 -73 -6 -140 l-22 -57 21
-16 c16 -12 23 -32 28 -73 4 -32 10 -58 15 -58 4 0 20 -11 34 -24 30 -28 53
-25 86 10 13 14 46 31 75 40 56 16 100 54 91 78 -5 12 0 16 22 16 19 0 30 6
33 18 3 11 22 23 46 30 23 7 53 25 67 40 22 23 35 28 97 32 65 4 74 8 85 30
16 33 51 39 243 39 165 1 219 -7 245 -33 35 -34 128 -66 197 -66 44 0 70 -9
62 -21 -3 -5 1 -9 9 -9 8 0 20 -6 26 -14 7 -8 44 -16 96 -21 64 -5 83 -10 79
-20 -7 -17 17 -29 86 -45 90 -20 130 -33 130 -42 0 -4 -10 -8 -22 -8 -53 0 4
-19 87 -29 230 -27 275 -35 365 -64 l95 -31 318 -4 317 -3 63 30 c34 16 80 33
102 37 22 4 75 20 118 35 43 16 86 29 96 29 10 0 26 9 36 20 10 11 34 23 54
26 25 5 51 22 86 57 l50 51 -3 294 c-2 316 1 338 45 329 21 -4 24 -2 19 17 -3
11 -6 29 -6 39 0 10 -8 17 -20 17 -49 0 -48 74 1 136 16 20 29 43 29 50 0 20
13 17 44 -7 18 -14 25 -27 21 -40 -3 -10 1 -32 11 -50 9 -18 22 -68 30 -113 9
-51 21 -88 34 -101 11 -12 20 -30 20 -40 0 -10 7 -27 16 -37 10 -10 21 -42 25
-70 6 -40 15 -59 37 -78 23 -19 28 -30 21 -45 -4 -11 -8 -32 -8 -47 -1 -20 4
-27 22 -30 19 -3 23 -11 29 -67 4 -35 14 -71 23 -80 8 -10 15 -25 15 -35 0 -9
7 -31 16 -48 9 -17 14 -39 11 -49 -7 -26 18 -56 53 -64 l30 -7 -20 -25 c-27
-34 -26 -41 15 -92 27 -34 35 -53 35 -84 0 -24 6 -44 15 -51 8 -6 19 -38 23
-74 6 -41 16 -70 30 -85 12 -13 22 -31 22 -40 0 -41 25 -96 45 -99 14 -2 22
-14 27 -38 14 -73 26 -109 45 -137 11 -15 23 -37 27 -49 12 -39 38 -42 316
-33 146 4 380 8 520 9 140 0 265 3 277 6 15 4 22 15 25 40 5 43 -11 81 -51
118 -34 32 -39 46 -17 46 25 0 25 14 2 60 -13 25 -26 62 -30 82 -3 20 -13 41
-21 48 -8 6 -19 27 -25 45 -6 18 -22 41 -36 49 -18 13 -24 25 -24 53 0 24 -8
45 -21 59 -13 14 -23 41 -26 71 -3 26 -12 55 -19 63 -7 9 -22 45 -34 80 -11
36 -33 85 -50 110 -16 25 -30 54 -30 66 0 11 -11 35 -25 54 -24 33 -36 98 -15
85 21 -13 9 19 -20 52 -16 18 -30 43 -30 54 0 11 -9 37 -20 59 -11 22 -20 48
-20 58 0 11 -10 32 -22 47 -12 15 -25 49 -29 76 -4 27 -17 61 -28 76 -12 14
-21 38 -21 52 0 15 -6 35 -14 46 -7 11 -16 42 -20 69 -4 33 -13 54 -26 63 -11
8 -20 20 -20 28 0 7 -13 16 -29 20 -24 5 -30 13 -36 43 -4 20 -13 48 -21 63
-7 15 -19 65 -27 111 -11 76 -14 83 -35 82 -19 0 -22 5 -22 36 0 21 -6 43 -14
49 -7 6 -16 32 -20 57 -3 25 -15 57 -26 71 -11 14 -22 40 -26 59 -3 18 -12 38
-20 45 -8 6 -14 26 -14 43 -1 17 -8 49 -16 71 -8 22 -18 49 -21 60 -4 11 -17
34 -30 51 -12 17 -23 41 -23 54 0 12 -11 33 -24 45 -15 14 -26 38 -30 71 -4
27 -14 59 -22 71 -8 12 -14 28 -14 36 0 7 -11 28 -25 47 -16 22 -25 47 -25 71
0 21 -12 59 -30 93 -20 37 -28 64 -24 80 4 17 -1 27 -20 40 -14 9 -26 22 -26
29 0 8 -11 24 -25 37 -14 13 -25 31 -25 40 0 9 -9 34 -20 55 -13 26 -18 50
-15 67 5 20 -2 37 -25 70 -28 38 -31 49 -27 91 4 44 2 50 -19 59 -20 9 -24 19
-24 56 0 35 -6 50 -25 68 -16 15 -25 34 -25 53 0 40 -19 79 -42 86 -14 5 -17
12 -12 31 7 25 -36 152 -62 184 -6 8 -14 32 -18 52 -4 22 -15 42 -26 48 -23
12 -26 41 -8 69 14 24 -11 67 -47 81 -32 12 -55 48 -55 88 0 18 -9 50 -20 72
-11 22 -20 51 -20 65 0 15 -15 41 -36 65 -35 39 -36 43 -30 94 5 50 4 55 -19
70 -18 12 -25 25 -25 49 0 36 -48 133 -80 162 -11 10 -20 28 -20 41 0 33 -10
54 -26 54 -9 0 -14 12 -14 35 0 22 -8 43 -20 55 -11 11 -23 38 -26 59 -4 22
-15 48 -25 57 -11 9 -19 28 -19 41 0 16 -8 27 -24 33 -13 5 -27 19 -31 32 -10
31 -51 74 -86 88 -16 7 -29 18 -29 24 0 7 -11 22 -25 34 -14 12 -25 26 -25 32
0 5 -10 10 -23 10 -12 0 -28 9 -35 20 -7 11 -20 20 -30 20 -10 0 -31 14 -45
30 -17 19 -37 30 -53 30 -16 0 -37 12 -54 30 -15 17 -37 30 -48 30 -11 0 -34
11 -49 24 -32 27 -108 40 -153 27z m-306 -917 c9 -8 16 -20 16 -25 0 -5 23 -9
50 -9 51 0 90 -23 90 -54 0 -7 11 -21 24 -29 15 -10 26 -29 30 -54 7 -42 16
-61 64 -123 17 -24 32 -55 32 -69 0 -14 11 -48 25 -76 13 -27 25 -55 25 -62 0
-7 10 -21 22 -33 18 -17 22 -30 21 -77 -2 -64 8 -89 38 -98 17 -6 20 -12 14
-43 -5 -30 -1 -44 20 -72 38 -50 65 -106 65 -132 0 -33 55 -163 79 -187 15
-15 19 -28 14 -55 -4 -29 0 -43 22 -72 21 -27 26 -43 21 -64 -4 -25 -1 -31 22
-42 21 -11 26 -19 23 -38 -11 -62 -7 -74 32 -99 35 -23 37 -27 37 -80 1 -33 7
-64 15 -75 8 -11 15 -32 15 -47 0 -14 9 -38 21 -52 11 -15 23 -43 26 -62 3
-21 16 -44 30 -55 23 -18 24 -24 18 -70 -5 -40 -4 -55 9 -68 24 -28 73 -124
81 -162 4 -19 13 -44 21 -55 9 -15 34 -117 34 -141 0 -2 10 -13 22 -24 13 -12
23 -34 24 -51 1 -16 10 -39 20 -50 13 -15 19 -36 19 -72 0 -47 2 -52 23 -55
18 -3 23 -9 19 -22 -3 -10 1 -27 9 -38 7 -10 18 -41 25 -68 15 -61 27 -85 51
-102 24 -17 23 -41 -4 -69 l-21 -23 21 0 c12 0 22 -6 22 -13 0 -7 11 -28 25
-47 36 -48 31 -128 -5 -85 -10 12 -37 15 -125 15 -99 0 -114 -2 -130 -20 -10
-11 -27 -22 -39 -26 -11 -4 -44 -24 -72 -45 -28 -22 -58 -39 -67 -39 -9 0 -32
-13 -50 -30 -19 -16 -44 -30 -55 -30 -11 0 -37 -7 -58 -16 -24 -10 -51 -14
-76 -10 -28 5 -41 2 -55 -12 -77 -78 -538 -57 -681 30 -20 12 -63 24 -104 28
-49 6 -74 13 -80 24 -7 12 -24 16 -76 15 -53 -1 -76 4 -103 20 -18 11 -42 21
-52 21 -10 0 -34 8 -55 19 -20 10 -66 21 -101 25 -36 4 -81 15 -100 25 -22 11
-70 20 -126 24 -93 6 -169 29 -199 60 -10 9 -26 17 -36 17 -10 0 -32 11 -48
25 -17 14 -35 25 -41 25 -18 0 -13 11 14 32 16 12 25 29 25 48 0 15 7 33 15
40 8 7 15 18 15 26 0 7 11 34 25 60 14 27 25 64 25 86 0 22 11 59 25 86 17 31
25 63 25 95 0 36 4 49 18 54 23 9 33 25 26 45 -8 27 14 58 41 58 27 0 32 9 14
27 -8 8 -8 17 0 31 6 11 11 30 11 41 0 12 9 30 21 42 12 12 24 42 28 70 5 28
17 60 30 72 11 13 21 33 21 45 0 11 12 34 26 49 25 27 26 32 20 104 -5 65 -4
79 13 100 10 13 22 35 26 49 4 14 14 32 22 41 13 16 30 66 54 163 5 21 16 48
24 59 13 18 13 23 -2 39 -15 17 -15 19 1 37 9 10 21 44 26 76 10 61 14 69 69
128 l36 38 -28 23 -27 22 25 24 c14 13 25 30 25 37 0 8 11 35 25 61 14 26 25
59 25 73 0 14 9 38 20 52 11 14 20 34 20 45 0 37 31 107 61 138 26 27 29 36
24 66 -5 27 -2 38 14 52 12 11 21 30 21 43 0 13 4 31 9 41 5 9 14 42 21 72 7
30 25 80 40 110 16 30 36 73 45 95 21 49 44 76 115 134 32 26 54 38 72 40 4 1
14 -6 22 -15z m-1589 -3104 c93 -13 158 -13 172 1 16 16 111 14 223 -4 52 -9
118 -19 147 -22 29 -4 69 -16 90 -26 23 -12 69 -22 118 -26 44 -3 90 -12 101
-20 12 -8 50 -18 85 -24 41 -7 72 -18 87 -32 16 -15 37 -22 69 -22 37 -1 48
-6 58 -25 16 -29 44 -41 69 -28 13 7 27 5 50 -6 17 -8 48 -18 68 -21 23 -4 42
-14 48 -25 9 -16 21 -20 64 -20 42 0 62 -6 100 -31 43 -29 56 -32 165 -40 69
-5 135 -15 160 -25 40 -16 45 -16 77 0 25 12 40 13 54 6 13 -7 29 -5 54 5 19
8 52 15 71 15 42 0 72 14 100 46 15 17 38 25 89 33 37 5 76 17 85 25 23 21 96
46 133 46 24 0 29 3 24 16 -17 45 27 79 116 90 39 5 56 3 64 -7 33 -42 42
-380 12 -417 -8 -9 -8 -16 -1 -20 14 -9 25 -89 26 -187 1 -67 -4 -90 -26 -139
-33 -72 -135 -176 -173 -176 -13 0 -27 -7 -30 -15 -4 -8 -17 -15 -30 -15 -14
0 -50 -9 -82 -21 -31 -12 -88 -24 -127 -29 -38 -4 -99 -16 -135 -26 -55 -16
-98 -19 -285 -19 -205 1 -223 2 -267 23 -32 15 -66 22 -105 22 -34 0 -67 6
-78 14 -11 7 -45 20 -75 29 -30 8 -73 22 -95 31 -22 8 -57 15 -77 16 -23 0
-44 7 -55 19 -10 10 -38 21 -62 24 -24 3 -62 14 -85 25 -57 28 -166 62 -196
62 -31 0 -44 8 -59 38 -11 20 -18 22 -105 22 -80 0 -100 3 -140 25 -26 14 -56
25 -68 25 -11 0 -35 9 -53 20 -26 16 -50 20 -126 20 -198 1 -218 0 -294 -25
-41 -14 -85 -25 -96 -25 -50 0 -112 -25 -153 -61 -24 -22 -54 -39 -66 -39 -11
0 -34 -7 -49 -14 -34 -18 -91 -81 -91 -101 0 -21 -53 -19 -79 3 -15 12 -24 34
-30 72 -4 31 -10 61 -14 67 -4 7 -2 25 6 40 10 21 13 86 13 265 -1 225 -2 238
-21 252 -19 14 -19 15 -2 34 10 11 21 36 24 56 3 20 11 36 19 36 7 0 17 6 21
13 27 41 156 116 201 117 34 0 62 18 56 35 -4 11 1 15 17 15 13 0 62 11 109
24 47 14 92 23 100 20 8 -2 47 -8 85 -14z"/>
<path d="M7915 6583 c-33 -8 -54 -33 -61 -72 -3 -20 -17 -55 -30 -78 -18 -31
-24 -57 -24 -100 0 -47 -4 -62 -21 -77 -18 -15 -20 -25 -15 -62 5 -40 3 -46
-23 -65 -16 -12 -32 -33 -36 -48 -4 -14 -14 -34 -23 -44 -8 -10 -19 -39 -23
-65 -3 -26 -16 -69 -27 -97 -11 -27 -28 -86 -38 -130 -11 -53 -25 -89 -40
-106 -17 -18 -24 -37 -24 -65 0 -22 -7 -49 -15 -60 -8 -10 -15 -26 -15 -35 0
-25 -40 -99 -55 -106 -8 -3 -15 -14 -15 -25 0 -11 -13 -31 -29 -45 -27 -24
-28 -28 -23 -89 5 -70 -9 -118 -39 -135 -14 -7 -19 -21 -19 -53 0 -30 -11 -64
-35 -110 -19 -37 -38 -85 -41 -106 -4 -27 -13 -41 -30 -49 -22 -10 -24 -16
-24 -80 0 -59 -4 -74 -24 -98 -13 -15 -29 -54 -36 -86 -15 -72 -9 -78 100
-104 95 -23 214 -23 256 0 31 16 54 58 54 100 0 11 8 34 19 51 10 17 21 58 25
91 4 32 13 66 20 75 8 8 20 35 27 60 7 25 16 49 21 54 4 6 8 18 8 28 0 10 16
40 35 67 19 26 35 57 35 67 0 11 6 28 14 39 7 11 19 37 25 57 7 20 19 42 27
48 9 8 14 32 14 71 0 53 3 63 35 98 42 46 43 58 10 73 -31 14 -29 21 15 50 19
13 36 33 38 43 2 11 10 27 17 35 12 14 19 40 32 120 3 19 16 49 28 66 14 19
25 48 27 75 2 37 7 45 26 47 12 2 22 10 22 18 0 8 11 32 25 52 18 26 25 50 25
84 0 41 4 50 32 72 26 20 30 28 20 38 -20 20 -14 56 18 91 33 39 39 71 13 85
-16 9 -16 11 0 33 9 13 23 33 31 44 8 11 17 41 20 66 8 57 -14 90 -73 107 -22
7 -53 24 -70 37 -55 47 -121 64 -186 48z"/>
<path d="M12690 4423 c-19 -2 -39 -10 -45 -17 -6 -7 -42 -15 -86 -19 -49 -3
-90 -13 -115 -26 -21 -12 -52 -21 -67 -21 -47 0 -145 -50 -152 -77 -4 -16 -13
-23 -29 -23 -39 0 -85 -21 -91 -41 -4 -11 -24 -28 -44 -39 -39 -19 -51 -36
-51 -71 0 -11 -7 -30 -15 -43 -18 -27 -11 -53 15 -61 16 -5 17 -10 10 -31 -6
-14 -10 -65 -10 -114 0 -87 -1 -89 -31 -113 l-31 -24 30 -29 c25 -26 29 -38
36 -113 4 -45 4 -141 0 -211 -6 -111 -5 -133 10 -155 10 -16 26 -25 41 -25 18
0 28 -8 35 -25 9 -23 15 -25 68 -25 50 0 62 4 80 25 12 14 28 25 35 25 23 0
87 50 87 68 0 20 50 62 74 62 8 0 37 18 65 40 54 43 112 60 198 60 25 0 70 7
101 16 64 19 262 16 298 -4 12 -6 55 -17 95 -23 41 -6 85 -17 99 -24 14 -7 46
-15 71 -19 27 -4 54 -15 64 -26 10 -11 24 -20 32 -20 8 0 27 -7 42 -15 16 -8
68 -19 116 -25 52 -7 106 -20 134 -34 68 -34 140 -55 186 -53 54 1 95 -10 95
-28 0 -21 33 -35 81 -35 25 0 55 -8 76 -21 25 -16 42 -19 68 -15 31 6 36 4 45
-19 5 -14 22 -30 37 -37 16 -6 117 -13 233 -16 168 -4 207 -7 216 -20 10 -14
14 -13 35 1 18 13 47 17 136 17 124 0 163 9 163 39 0 27 11 32 87 41 84 11
133 36 140 73 6 30 14 33 42 15 16 -9 30 -7 78 15 32 14 69 28 83 32 15 3 34
22 48 45 12 22 27 40 32 40 6 0 10 7 10 16 0 9 8 23 17 30 14 10 18 26 16 78
-1 37 -9 81 -17 98 -15 29 -15 33 1 57 16 23 18 61 21 358 l3 333 -28 12 c-15
7 -41 23 -58 36 -25 21 -36 23 -82 18 -85 -10 -179 -53 -215 -97 -17 -22 -38
-39 -47 -39 -9 0 -28 -7 -43 -15 -16 -8 -40 -22 -55 -30 -15 -8 -48 -37 -73
-65 l-45 -51 -90 -9 c-49 -5 -112 -16 -139 -25 -81 -25 -259 -21 -348 9 -168
55 -206 66 -231 66 -14 0 -38 5 -54 11 -26 10 -27 11 -10 24 18 13 18 14 -2
24 -11 6 -33 11 -48 11 -16 0 -47 9 -68 21 -22 11 -62 22 -90 25 -27 3 -66 12
-85 20 -19 8 -64 18 -100 22 -56 6 -65 10 -68 28 -3 24 -35 34 -109 34 -24 0
-54 6 -66 14 -12 7 -49 16 -82 19 -33 3 -82 15 -109 27 -40 18 -75 23 -178 28
-91 3 -128 8 -128 17 0 7 -20 15 -46 19 -49 6 -243 6 -304 -1z m355 -115 c33
-18 60 -23 160 -26 95 -3 122 -8 131 -20 9 -12 33 -18 90 -20 62 -4 86 -9 116
-29 33 -22 44 -25 91 -19 50 7 55 5 70 -17 12 -19 24 -24 62 -25 48 0 79 -19
90 -53 4 -11 22 -23 48 -29 23 -6 65 -20 92 -30 28 -11 106 -31 175 -46 69
-14 133 -30 142 -35 9 -5 32 -11 50 -13 18 -3 62 -13 98 -22 48 -13 108 -17
227 -18 152 -1 163 0 192 22 21 15 44 22 76 22 34 0 45 4 45 15 0 13 4 14 21
4 14 -7 24 -8 28 -1 3 6 24 13 46 17 22 4 75 21 118 36 43 16 83 26 88 23 16
-10 41 17 29 31 -13 15 14 71 40 85 36 19 119 30 146 19 26 -9 26 -10 9 -29
-10 -11 -13 -20 -7 -20 5 0 13 -18 17 -41 4 -22 16 -49 28 -60 20 -19 20 -19
2 -33 -16 -11 -21 -32 -26 -98 -3 -45 -3 -88 2 -93 4 -6 4 -17 -1 -25 -9 -15
-5 -294 5 -310 3 -5 1 -19 -5 -31 -9 -15 -9 -24 -1 -32 19 -19 12 -37 -14 -37
-25 0 -36 -9 -87 -69 -20 -24 -33 -31 -48 -26 -15 5 -22 0 -30 -20 -9 -23 -13
-25 -25 -15 -13 10 -19 10 -33 -4 -10 -9 -27 -16 -37 -16 -10 0 -28 -11 -41
-25 -15 -16 -34 -25 -54 -25 -17 0 -47 -7 -67 -15 -19 -8 -50 -15 -67 -15 -17
0 -49 -7 -71 -15 -22 -8 -67 -14 -101 -15 -34 0 -76 -5 -93 -11 -28 -10 -38
-9 -71 10 -42 23 -96 27 -134 10 -19 -9 -29 -9 -40 0 -9 8 -34 10 -77 5 -57
-5 -70 -3 -113 20 -27 14 -58 26 -70 26 -12 0 -36 9 -54 20 -19 12 -69 27
-112 34 -91 16 -109 24 -89 38 9 6 -11 7 -57 3 -67 -6 -71 -5 -83 19 -18 34
-75 55 -169 62 -43 4 -93 14 -114 25 -20 10 -56 21 -80 25 -23 4 -55 13 -70
20 -15 8 -42 14 -59 14 -20 0 -42 9 -56 22 -21 19 -39 23 -147 29 -89 4 -129
11 -148 23 -33 21 -231 33 -303 18 -118 -26 -188 -49 -201 -66 -7 -10 -35 -27
-61 -36 -132 -49 -162 -59 -210 -73 -51 -15 -52 -14 -59 7 -3 11 -16 29 -28
38 -20 16 -21 28 -27 220 -7 213 -5 225 37 265 22 20 24 28 22 130 -1 59 1
117 5 128 5 14 35 31 99 55 50 19 110 47 133 61 36 23 55 27 142 31 84 3 104
7 127 26 27 20 39 22 165 22 122 0 141 -2 176 -22z"/>
<path d="M9437 4389 c-6 -21 -9 -21 -125 -14 -106 6 -125 4 -183 -15 -35 -12
-89 -24 -119 -27 -30 -3 -67 -12 -81 -19 -14 -7 -68 -16 -120 -19 -60 -5 -97
-12 -104 -21 -15 -19 -336 -134 -376 -134 -9 0 -33 -13 -54 -30 -21 -16 -48
-30 -61 -30 -13 0 -28 -8 -33 -19 -8 -15 -31 -20 -117 -30 -59 -7 -126 -19
-148 -28 -51 -19 -280 -28 -441 -18 -95 6 -121 11 -136 26 -10 10 -38 23 -61
28 -23 6 -47 16 -53 24 -6 8 -19 16 -30 18 -11 3 -26 16 -33 31 -14 31 -58 68
-79 68 -8 0 -29 11 -47 25 -18 14 -38 25 -44 25 -6 0 -12 10 -14 23 -3 21 -8
22 -99 25 l-97 3 -36 -42 c-41 -48 -42 -55 -20 -80 13 -14 13 -24 4 -60 -7
-23 -11 -72 -11 -108 1 -36 1 -79 1 -96 0 -16 1 -43 2 -60 0 -16 0 -50 0 -75
-1 -25 -1 -65 0 -90 3 -104 1 -137 -12 -167 -12 -28 -12 -36 5 -73 15 -34 16
-45 7 -61 -16 -25 -18 -20 33 -80 33 -38 66 -63 122 -91 43 -21 83 -38 89 -38
7 0 15 -11 18 -24 6 -25 36 -40 97 -51 21 -3 42 -12 49 -20 22 -26 85 -52 145
-58 108 -12 708 -10 735 2 14 6 37 20 51 32 20 16 45 22 110 26 46 3 94 12
106 19 12 8 29 14 37 14 8 0 28 12 45 26 24 20 49 28 109 36 42 5 93 15 112
22 19 8 58 17 85 20 28 4 64 16 81 25 17 10 53 21 80 25 27 4 64 16 82 27 18
10 39 19 45 19 7 0 26 8 42 17 21 11 62 17 135 20 75 3 119 10 153 24 44 18
57 19 150 9 56 -6 126 -13 154 -16 29 -3 74 -17 100 -31 86 -47 97 -51 153
-57 39 -5 62 -14 80 -31 15 -14 33 -25 42 -25 15 0 94 -86 117 -127 12 -22
198 -14 235 10 14 10 37 17 51 17 15 0 25 6 25 14 0 8 12 24 26 35 24 19 25
24 15 52 -6 17 -9 35 -6 39 3 5 -9 13 -26 19 -27 9 -30 14 -25 38 3 16 6 89 8
163 2 117 2 171 -2 345 0 17 0 46 1 65 5 141 5 144 -29 196 -17 28 -43 56 -56
62 -14 6 -26 21 -28 34 -3 21 -7 23 -55 20 -49 -4 -54 -2 -63 22 -7 20 -16 26
-39 26 -42 0 -61 9 -61 31 0 11 -7 19 -17 19 -10 1 -36 9 -58 20 -27 13 -62
19 -108 20 -62 0 -68 2 -79 25 -13 28 -28 33 -28 9 0 -10 -6 -14 -14 -11 -8 3
-61 11 -117 17 -57 6 -115 18 -130 26 -39 19 -56 18 -62 -7z m103 -109 c52 -4
124 -15 160 -24 36 -9 79 -16 96 -16 16 0 35 -5 42 -12 9 -9 18 -9 37 0 37 17
43 15 47 -15 2 -24 8 -29 36 -31 20 -2 36 -10 39 -20 10 -26 21 -30 68 -24 42
4 44 3 69 -36 14 -22 31 -44 38 -49 24 -15 80 -94 89 -126 5 -17 9 -64 9 -103
0 -59 3 -73 18 -79 15 -6 12 -10 -16 -35 -27 -23 -32 -31 -24 -46 5 -11 13
-57 17 -104 5 -66 3 -89 -8 -104 -12 -16 -12 -23 1 -48 11 -23 12 -41 5 -77
-5 -27 -6 -57 -2 -69 6 -16 1 -27 -27 -51 -41 -37 -85 -40 -114 -11 -12 12
-32 25 -45 30 -25 10 -34 30 -13 30 23 0 -23 37 -75 59 -28 13 -75 34 -103 47
-28 13 -64 24 -80 24 -16 0 -48 7 -71 15 -23 8 -62 18 -85 21 -24 4 -53 16
-66 28 -22 20 -35 21 -180 21 -145 0 -159 -2 -187 -22 -22 -15 -50 -22 -105
-26 -117 -8 -450 -100 -450 -124 0 -9 -14 -10 -49 -6 -45 5 -50 3 -66 -20 -16
-25 -21 -26 -96 -24 -58 1 -82 -2 -88 -12 -5 -7 -30 -17 -57 -22 -27 -5 -50
-13 -52 -17 -10 -28 -26 -35 -104 -43 -46 -5 -105 -18 -132 -30 -38 -16 -59
-20 -95 -15 -137 20 -154 19 -196 -10 -35 -25 -51 -29 -125 -32 -79 -4 -87 -2
-112 21 -34 31 -114 42 -197 27 -64 -11 -81 -8 -81 15 0 16 -22 25 -65 25 -43
0 -80 14 -117 45 -16 14 -40 25 -54 25 -13 0 -24 4 -24 9 0 13 37 24 51 15 7
-4 10 -1 7 7 -3 8 -21 17 -42 20 -20 3 -50 16 -66 28 -16 11 -34 21 -39 21
-31 0 -36 46 -36 335 0 257 2 293 17 315 10 14 22 49 28 78 13 60 26 73 39 39
13 -32 66 -64 121 -73 25 -4 59 -15 76 -25 17 -11 37 -19 44 -19 8 0 21 -6 29
-14 29 -26 142 -57 235 -65 53 -5 107 -16 129 -27 32 -15 41 -16 58 -5 18 10
24 10 40 -5 18 -16 19 -15 28 8 9 23 16 25 90 31 57 3 91 12 120 28 36 20 45
21 77 11 40 -12 54 -9 54 14 0 18 14 18 30 -1 17 -21 63 -19 108 4 21 11 60
22 87 26 28 4 55 11 60 15 11 8 63 19 112 24 20 1 42 13 58 30 21 23 32 27 56
22 24 -4 29 -2 29 14 0 29 39 50 94 50 55 0 138 33 209 83 18 13 51 20 119 23
51 3 110 12 131 20 20 8 70 15 110 15 39 1 86 5 102 10 17 4 53 6 80 3 28 -3
93 -9 145 -14z"/>
<path d="M19340 4379 c-41 -4 -132 -12 -202 -18 -70 -6 -146 -17 -170 -25 -33
-12 -52 -13 -85 -4 -37 9 -47 8 -78 -11 -20 -11 -43 -21 -52 -21 -8 0 -28 -11
-43 -24 -16 -13 -47 -26 -70 -30 -23 -3 -52 -13 -65 -22 -13 -8 -56 -20 -95
-25 -69 -10 -152 -45 -207 -89 -14 -10 -50 -20 -92 -24 -47 -5 -76 -13 -92
-27 -14 -12 -37 -19 -66 -19 -24 0 -59 -7 -78 -15 -20 -8 -72 -19 -117 -25
-45 -6 -98 -19 -118 -27 -46 -20 -293 -24 -312 -5 -6 6 -32 12 -57 12 -56 0
-153 30 -229 70 -31 16 -62 30 -69 30 -7 0 -22 14 -35 30 -12 17 -27 30 -33
30 -6 0 -23 17 -36 37 -30 47 -61 63 -122 63 -37 0 -53 -5 -71 -23 -27 -27
-40 -94 -26 -131 8 -22 5 -28 -20 -46 -33 -24 -38 -44 -14 -58 14 -8 14 -13 4
-33 -16 -28 -33 -201 -22 -208 10 -7 -6 -228 -17 -250 -6 -10 2 -35 24 -77 19
-35 30 -67 25 -74 -10 -17 17 -68 40 -75 10 -3 22 -14 25 -23 6 -20 105 -72
135 -72 14 0 24 -10 31 -29 12 -33 33 -43 133 -66 51 -11 75 -23 96 -45 27
-29 31 -30 122 -30 55 0 109 -6 133 -15 54 -19 136 -19 186 1 34 14 42 15 49
4 7 -11 16 -11 47 -2 21 6 81 14 133 17 128 8 138 11 142 38 3 20 9 22 67 25
36 2 69 9 77 17 14 14 97 35 137 35 13 0 34 8 47 17 24 17 91 32 160 37 19 1
46 7 60 13 14 7 49 17 78 22 29 6 65 20 80 31 17 13 50 23 87 26 33 3 69 12
80 20 11 8 35 25 53 39 25 18 51 25 110 30 42 3 127 12 187 20 159 19 310 7
440 -35 55 -18 118 -43 140 -55 22 -13 55 -26 74 -30 22 -5 59 -31 110 -80 42
-40 86 -77 98 -84 25 -13 172 -15 192 -2 22 14 24 87 6 241 -9 80 -20 189 -25
244 -4 54 -13 103 -19 109 -9 9 -10 -54 -5 -251 4 -144 4 -262 0 -262 -3 0
-11 11 -16 25 -8 22 -15 25 -59 25 -42 0 -52 4 -62 23 -15 28 -28 37 -56 37
-25 0 -29 10 -12 27 18 18 -42 43 -100 43 -40 0 -54 4 -63 20 -7 11 -22 20
-34 20 -12 0 -27 6 -33 14 -7 8 -27 18 -44 22 -18 3 -44 15 -58 25 -16 11 -60
23 -105 30 -44 6 -89 17 -101 25 -31 19 -86 18 -141 -5 -34 -14 -82 -21 -169
-25 -75 -3 -133 -10 -150 -19 -15 -8 -51 -17 -79 -20 -28 -3 -78 -20 -110 -37
-33 -17 -77 -33 -99 -36 -22 -3 -56 -12 -75 -19 -19 -7 -57 -16 -85 -19 -27
-2 -72 -14 -98 -25 -27 -12 -61 -21 -77 -21 -22 0 -29 -5 -32 -22 -3 -20 -11
-24 -73 -31 -102 -12 -115 -16 -115 -32 0 -28 -38 -37 -134 -30 -81 6 -96 5
-131 -14 -48 -24 -187 -43 -223 -30 -19 7 -37 4 -79 -16 -70 -32 -83 -32 -83
0 0 28 -11 31 -43 11 -12 -8 -37 -17 -54 -21 -29 -6 -33 -4 -33 14 0 17 -5 20
-28 15 -34 -7 -214 38 -289 72 -28 13 -57 24 -63 24 -7 0 -29 13 -49 29 -20
15 -55 38 -79 50 -26 13 -47 32 -53 49 -6 15 -20 37 -31 49 -17 18 -19 29 -14
70 4 26 6 66 5 88 -2 22 -3 97 -3 167 -1 114 1 129 18 141 16 12 20 30 24 101
l5 86 39 0 c21 0 55 -9 76 -20 20 -11 65 -36 99 -54 36 -20 70 -32 81 -29 11
2 37 -4 59 -15 21 -11 57 -24 78 -28 22 -3 58 -16 79 -26 33 -17 45 -18 74
-10 23 7 41 8 53 2 10 -6 83 -10 163 -10 135 0 147 1 158 20 10 16 24 20 63
20 73 0 186 19 210 34 39 25 136 56 178 56 23 0 51 7 61 15 11 8 31 15 45 15
14 0 39 7 56 16 16 8 48 18 71 21 31 4 45 11 53 29 11 25 78 64 110 64 11 0
43 9 71 20 28 11 72 20 98 20 56 0 92 9 92 21 0 6 -10 14 -22 19 -18 7 -9 9
38 9 34 1 87 10 120 22 49 17 89 21 234 24 183 4 279 -5 326 -30 16 -8 46 -15
67 -15 26 0 37 -4 37 -15 0 -22 28 -32 115 -40 94 -9 145 -27 152 -55 4 -15
11 -18 29 -14 21 6 24 3 24 -25 0 -31 0 -31 53 -31 41 0 58 -5 72 -20 10 -11
26 -20 36 -20 10 0 23 -8 28 -18 11 -20 8 -127 -4 -155 -4 -9 -3 -23 3 -30 5
-6 12 -24 16 -38 4 -20 14 -28 38 -33 110 -23 114 -21 73 34 -32 44 -32 66 3
82 24 12 27 19 25 56 -1 23 -9 52 -17 64 -9 12 -16 30 -16 39 0 9 -11 32 -24
52 -13 19 -26 43 -28 54 -3 13 -12 17 -33 16 -18 -2 -44 7 -65 21 -19 14 -73
36 -120 51 -47 14 -101 37 -120 50 -19 13 -53 27 -75 31 -22 4 -49 13 -60 20
-11 7 -47 16 -80 20 -33 3 -102 17 -154 30 -99 25 -104 26 -221 13z m-2410
-1130 c0 -16 -31 -22 -43 -10 -9 9 -9 14 2 20 16 10 41 4 41 -10z m1668 0 c-2
-6 -8 -10 -13 -10 -5 0 -11 4 -13 10 -2 6 4 11 13 11 9 0 15 -5 13 -11z"/>
<path d="M19375 3320 c-3 -6 1 -13 10 -16 19 -8 30 0 20 15 -8 14 -22 14 -30
1z"/>
<path d="M19134 3266 c-3 -8 -20 -14 -42 -14 -20 0 -66 -7 -102 -17 -36 -9
-74 -18 -86 -21 -11 -2 -25 -14 -31 -27 -6 -14 -23 -27 -38 -31 -15 -4 -44
-18 -65 -32 -22 -15 -54 -34 -72 -43 -40 -20 -46 -43 -19 -77 12 -15 21 -37
21 -51 0 -13 11 -45 24 -71 13 -26 29 -72 36 -102 7 -30 17 -59 24 -65 16 -15
43 -102 51 -165 16 -139 90 -301 145 -317 28 -8 127 -8 245 1 44 3 87 6 95 6
37 1 358 0 380 -2 109 -6 314 3 338 14 31 15 47 56 58 147 l7 61 -56 0 c-58 0
-67 7 -67 56 0 13 -11 34 -25 46 -20 17 -25 31 -25 70 0 36 -5 53 -20 65 -11
10 -20 23 -20 30 0 7 -7 13 -15 13 -17 0 -35 30 -35 58 0 10 -9 27 -19 36 -13
12 -22 37 -26 75 -3 31 -12 70 -20 86 -8 17 -19 51 -24 77 -8 48 -7 47 -143
175 -26 24 -119 33 -229 23 -52 -5 -104 -7 -116 -4 -11 3 -24 1 -27 -5 -5 -8
-16 -6 -36 4 -36 19 -59 19 -66 1z"/>
<path d="M1365 2814 c-57 -18 -118 -76 -140 -134 -32 -85 -98 -240 -124 -290
-15 -30 -31 -68 -35 -85 -4 -16 -16 -39 -26 -50 -9 -11 -23 -38 -30 -60 -7
-22 -17 -46 -23 -53 -14 -18 13 -44 47 -45 21 -2 26 -7 26 -29 0 -34 12 -35
40 -6 l20 22 28 -22 c47 -38 72 -45 131 -33 63 13 122 46 115 66 -3 7 3 16 15
20 11 3 32 20 46 36 20 25 25 41 25 88 0 35 6 65 15 79 9 12 19 44 22 72 3 29
13 56 24 66 11 10 19 28 19 41 0 13 7 40 16 61 9 20 20 55 23 77 4 28 13 43
29 50 34 15 27 45 -24 98 l-46 47 -71 -1 c-40 0 -94 -7 -122 -15z"/>
<path d="M12237 2063 c-10 -9 -9 -53 1 -53 8 0 32 43 32 55 0 7 -26 6 -33 -2z"/>
</g>
</svg>
